<?xml version="1.0" encoding="utf-8"?>
<!-- Generator: Adobe Illustrator 21.0.2, SVG Export Plug-In . SVG Version: 6.00 Build 0)  -->
<!DOCTYPE svg PUBLIC "-//W3C//DTD SVG 1.1//EN" "http://www.w3.org/Graphics/SVG/1.1/DTD/svg11.dtd">
<svg version="1.1" xmlns="http://www.w3.org/2000/svg" xmlns:xlink="http://www.w3.org/1999/xlink" x="0px" y="0px" width="638px"
	 height="397px" viewBox="0 0 638 397" style="enable-background:new 0 0 638 397;" xml:space="preserve">
<style type="text/css">
	.st0{fill:#404040;}
	.st1{opacity:0.25;fill:url(#SVGID_1_);}
	.st2{fill:url(#SVGID_2_);}
	.st3{fill:#FFFBE7;}
	.st4{fill:url(#SVGID_3_);}
	.st5{opacity:0.25;fill:url(#SVGID_4_);}
	.st6{fill:#5DBFC3;}
	.st7{opacity:0.25;fill:url(#SVGID_5_);}
	.st8{fill:#FFC97F;}
	.st9{fill-rule:evenodd;clip-rule:evenodd;fill:#404040;}
	.st10{fill-rule:evenodd;clip-rule:evenodd;fill:#FFFBE7;}
	.st11{opacity:0.25;fill:url(#SVGID_6_);}
	.st12{fill:#7DC387;}
	.st13{fill:none;}
	.st14{opacity:0.25;fill:url(#SVGID_7_);}
	.st15{fill:url(#SVGID_8_);}
	.st16{fill:url(#SVGID_9_);}
	.st17{opacity:0.25;fill:url(#SVGID_10_);}
	.st18{opacity:0.25;fill:url(#SVGID_11_);}
	.st19{opacity:0.25;fill:url(#SVGID_12_);}
</style>
<g id="Layer_2">
</g>
<g id="Layer_1">
	<g>
		<path class="st12" d="M342.4,296.3v-19.8h-11c-0.7-2.2-1.6-4.4-2.7-6.4l7.8-7.8l-14-14l-7.8,7.8c-2-1.1-4.2-2-6.4-2.7v-11h-19.8
			v11c-2.2,0.7-4.4,1.6-6.4,2.7l-7.8-7.8l-14,14l7.8,7.8c-1.1,2-2,4.2-2.7,6.4h-11v19.8h11c0.7,2.2,1.6,4.4,2.7,6.4l-7.8,7.8l14,14
			l7.8-7.8c2,1.1,4.2,2,6.4,2.7v11h19.8v-11c2.2-0.7,4.4-1.6,6.4-2.7l7.8,7.8l14-14l-7.8-7.8c1.1-2,2-4.2,2.7-6.4H342.4z
			 M298.4,298.7c-6.8,0-12.3-5.5-12.3-12.3s5.5-12.3,12.3-12.3s12.3,5.5,12.3,12.3S305.2,298.7,298.4,298.7z"/>
		<path class="st0" d="M310.8,332.9H286v-11.7c-1.2-0.4-2.3-0.9-3.4-1.4l-8.3,8.3l-17.5-17.5l8.3-8.3c-0.5-1.1-1-2.3-1.4-3.4h-11.7
			V274h11.7c0.4-1.2,0.9-2.3,1.4-3.4l-8.3-8.3l17.5-17.5l8.3,8.3c1.1-0.5,2.3-1,3.4-1.4v-11.7h24.8v11.7c1.2,0.4,2.3,0.9,3.4,1.4
			l8.3-8.3l17.5,17.5l-8.3,8.3c0.5,1.1,1,2.3,1.4,3.4h11.7v24.8h-11.7c-0.4,1.2-0.9,2.3-1.4,3.4l8.3,8.3L322.5,328l-8.3-8.3
			c-1.1,0.5-2.3,1-3.4,1.4V332.9z M291,327.9h14.8v-10.4l1.8-0.5c2.1-0.6,4.1-1.5,5.9-2.5l1.6-0.9l7.4,7.4l10.4-10.4l-7.4-7.4
			l0.9-1.6c1-1.9,1.8-3.9,2.5-5.9l0.5-1.8h10.4V279h-10.4l-0.5-1.8c-0.6-2.1-1.4-4.1-2.5-5.9l-0.9-1.6l7.4-7.4l-10.4-10.4l-7.4,7.4
			l-1.6-0.9c-1.9-1-3.9-1.8-5.9-2.5l-1.8-0.5v-10.4H291v10.4l-1.8,0.5c-2.1,0.6-4.1,1.4-5.9,2.5l-1.6,0.9l-7.4-7.4l-10.4,10.4
			l7.4,7.4l-0.9,1.6c-1,1.9-1.8,3.9-2.5,5.9l-0.5,1.8h-10.4v14.8h10.4l0.5,1.8c0.6,2.1,1.4,4.1,2.5,5.9l0.9,1.6l-7.4,7.4l10.4,10.4
			l7.4-7.4l1.6,0.9c1.9,1,3.9,1.8,5.9,2.5l1.8,0.5V327.9z"/>
	</g>
</g>
</svg>
