<?xml version="1.0" encoding="utf-8"?>
<!-- Generator: Adobe Illustrator 21.0.2, SVG Export Plug-In . SVG Version: 6.00 Build 0)  -->
<!DOCTYPE svg PUBLIC "-//W3C//DTD SVG 1.1//EN" "http://www.w3.org/Graphics/SVG/1.1/DTD/svg11.dtd">
<svg version="1.1" xmlns="http://www.w3.org/2000/svg" xmlns:xlink="http://www.w3.org/1999/xlink" x="0px" y="0px" width="638px"
	 height="397px" viewBox="0 0 638 397" style="enable-background:new 0 0 638 397;" xml:space="preserve">
<style type="text/css">
	.st0{fill:#404040;}
	.st1{opacity:0.25;fill:url(#SVGID_1_);}
	.st2{fill:url(#SVGID_2_);}
	.st3{fill:#FFFBE7;}
	.st4{fill:url(#SVGID_3_);}
	.st5{opacity:0.25;fill:url(#SVGID_4_);}
	.st6{fill:#5DBFC3;}
	.st7{opacity:0.25;fill:url(#SVGID_5_);}
	.st8{fill:#FFC97F;}
	.st9{fill-rule:evenodd;clip-rule:evenodd;fill:#404040;}
	.st10{fill-rule:evenodd;clip-rule:evenodd;fill:#FFFBE7;}
	.st11{opacity:0.25;fill:url(#SVGID_6_);}
	.st12{fill:#7DC387;}
	.st13{fill:none;}
	.st14{opacity:0.25;fill:url(#SVGID_7_);}
	.st15{fill:url(#SVGID_8_);}
	.st16{fill:url(#SVGID_9_);}
	.st17{opacity:0.25;fill:url(#SVGID_10_);}
	.st18{opacity:0.25;fill:url(#SVGID_11_);}
	.st19{opacity:0.25;fill:url(#SVGID_12_);}
</style>
<g id="Layer_2">
</g>
<g id="Layer_1">
	<g>
		<path class="st8" d="M441.9,86l-24.3-2.2l13.9,19.7C434.2,97.2,437.7,91.4,441.9,86z"/>
		<path class="st8" d="M529.1,34.1l-14.9,19.9c7.1,0.6,13.9,2,20.4,4.3L529.1,34.1z"/>
		<path class="st8" d="M468.1,63.8l-21.6-12.1l4.8,24.1C456.3,71.1,462,67.1,468.1,63.8z"/>
		<path class="st8" d="M568.6,51.7L547,63.8c6.1,3.3,11.7,7.4,16.8,12L568.6,51.7z"/>
		<path class="st8" d="M424.4,136.9c0-6.8,0.8-13.4,2.4-19.7l-22.6,7.7L424.4,136.9C424.4,136.9,424.4,136.9,424.4,136.9z"/>
		<path class="st8" d="M610.8,124.9l-22.6-7.7c1.5,6.3,2.4,12.9,2.4,19.7c0,0,0,0,0,0L610.8,124.9z"/>
		<path class="st8" d="M597.5,83.8L573.2,86c4.1,5.3,7.7,11.2,10.4,17.5L597.5,83.8z"/>
		<path class="st8" d="M485.9,34.1l-5.5,24.2c6.5-2.2,13.3-3.7,20.4-4.3L485.9,34.1z"/>
		<path class="st8" d="M549.8,230.6l0.3-22.4c-5.3,3.2-11,5.8-17.1,7.7L549.8,230.6z"/>
		<path class="st8" d="M563.2,198.5l21.6,6.7l-9-21C572.1,189.5,567.9,194.3,563.2,198.5z"/>
		<path class="st8" d="M583.5,170.5l22.8-2.7L589.2,152C588,158.5,586.1,164.7,583.5,170.5z"/>
		<path class="st8" d="M498.2,219.4l9.3,20.2l9.3-20.2c-3.1,0.3-6.2,0.5-9.3,0.5C504.4,220,501.3,219.8,498.2,219.4z"/>
		<path class="st8" d="M425.9,152l-17.1,15.8l22.8,2.7C429,164.7,427.1,158.5,425.9,152z"/>
		<path class="st8" d="M439.3,184.3l-9,21l21.6-6.7C447.2,194.3,443,189.5,439.3,184.3z"/>
		<path class="st8" d="M465.3,230.6l16.8-14.7c-6-1.9-11.7-4.5-17.1-7.7L465.3,230.6z"/>
	</g>
</g>
</svg>
