<?xml version="1.0" encoding="utf-8"?>
<!-- Generator: Adobe Illustrator 21.0.1, SVG Export Plug-In . SVG Version: 6.00 Build 0)  -->
<svg version="1.1" id="Layer_1" xmlns="http://www.w3.org/2000/svg" xmlns:xlink="http://www.w3.org/1999/xlink" x="0px" y="0px"
	 viewBox="0 0 406.4 405.8" style="enable-background:new 0 0 406.4 405.8;" xml:space="preserve">
<style type="text/css">
	.st0{opacity:0.15;fill:url(#SVGID_1_);}
	.st1{fill:#7DC387;}
	.st2{fill:#FFFBE7;}
	.st3{fill:#7DC387;stroke:#FFFBE7;stroke-width:7;stroke-miterlimit:10;}
	.st4{fill:none;stroke:#404040;stroke-miterlimit:10;}
	.st5{fill:none;stroke:#404040;stroke-miterlimit:10;stroke-dasharray:1.8819,3.7638;}
	.st6{fill:none;stroke:#404040;stroke-miterlimit:10;stroke-dasharray:1.9562,3.9124;}
	.st7{fill:#404040;}
	.st8{fill:none;}
	.st9{fill-rule:evenodd;clip-rule:evenodd;fill:#404040;}
	.st10{fill-rule:evenodd;clip-rule:evenodd;fill:none;stroke:#404040;stroke-width:3;stroke-miterlimit:10;}
	.st11{fill-rule:evenodd;clip-rule:evenodd;fill:none;stroke:#404040;stroke-width:2;stroke-miterlimit:10;}
	.st12{fill:none;stroke:#404040;stroke-miterlimit:10;stroke-dasharray:2,4;}
	.st13{fill:none;stroke:#404040;stroke-miterlimit:10;stroke-dasharray:2.0012,4.0025;}
	.st14{fill:none;stroke:#404040;stroke-miterlimit:10;stroke-dasharray:2.0168,4.0335;}
</style>
<g>
	
		<radialGradient id="SVGID_1_" cx="313.7848" cy="-12245.4082" r="185.1862" gradientTransform="matrix(0.8394 0 0 0.2532 -82.1764 3457.9817)" gradientUnits="userSpaceOnUse">
		<stop  offset="0" style="stop-color:#000000"/>
		<stop  offset="1" style="stop-color:#FFFFFF"/>
	</radialGradient>
	<ellipse class="st0" cx="181.2" cy="356.9" rx="155.4" ry="46.9"/>
	<g>
		<path class="st1" d="M327.1,225.1v-62.3h-34.8c-2.1-7.1-4.9-13.8-8.4-20.2l24.6-24.6l-44-44l-24.6,24.6
			c-6.4-3.4-13.2-6.2-20.2-8.4V55.4h-62.3v34.8c-7.1,2.1-13.8,4.9-20.2,8.4L112.6,74l-44,44l24.6,24.6c-3.4,6.4-6.2,13.2-8.4,20.2
			H50v62.3h34.8c2.1,7.1,4.9,13.8,8.4,20.2l-24.6,24.6l44,44l24.6-24.6c6.4,3.4,13.2,6.2,20.2,8.4v34.8h62.3v-34.8
			c7.1-2.1,13.8-4.9,20.2-8.4l24.6,24.6l44-44l-24.6-24.6c3.4-6.4,6.2-13.2,8.4-20.2H327.1z"/>
		<circle class="st2" cx="188.6" cy="193.9" r="54.5"/>
	</g>
	<path class="st3" d="M159.2,319.4v-33.1h-18.5c-1.1-3.8-2.6-7.4-4.5-10.8l13.1-13.1L125.9,239l-13.1,13.1c-3.4-1.8-7-3.3-10.8-4.5
		v-18.5H68.9v18.5c-3.8,1.1-7.4,2.6-10.8,4.5L45.1,239l-23.4,23.4l13.1,13.1c-1.8,3.4-3.3,7-4.5,10.8H11.8v33.1h18.5
		c1.1,3.8,2.6,7.4,4.5,10.8l-13.1,13.1l23.4,23.4l13.1-13.1c3.4,1.8,7,3.3,10.8,4.5v18.5H102V358c3.8-1.1,7.4-2.6,10.8-4.5
		l13.1,13.1l23.4-23.4l-13.1-13.1c1.8-3.4,3.3-7,4.5-10.8H159.2z"/>
	<g>
		<g>
			<line class="st4" x1="14.1" y1="152.1" x2="14.1" y2="153.1"/>
			<line class="st5" x1="14" y1="156.8" x2="13.6" y2="188.8"/>
			<polyline class="st4" points="13.6,190.7 13.6,191.7 14.6,191.7 			"/>
			<line class="st6" x1="18.5" y1="191.7" x2="104.6" y2="191.7"/>
			<line class="st4" x1="106.5" y1="191.7" x2="107.5" y2="191.7"/>
			<g>
				
					<ellipse transform="matrix(1.350702e-02 -0.9999 0.9999 1.350702e-02 -138.349 164.314)" class="st7" cx="14.1" cy="152.3" rx="3.8" ry="3.8"/>
			</g>
			<g>
				<circle class="st7" cx="107.3" cy="191.7" r="3.8"/>
			</g>
		</g>
	</g>
	<g>
		<path class="st8" d="M361.8,155"/>
	</g>
	<g>
		<path class="st7" d="M28.5,53.7H0v7.6h4.9v60.6c0,5.2,4.2,9.4,9.4,9.4c5.2,0,9.4-4.2,9.4-9.4V61.3h4.9V53.7z"/>
		<path class="st2" d="M9.6,93.7v28c0,2.6,2.1,4.7,4.7,4.7s4.7-2.1,4.7-4.7v-28H9.6z"/>
		<circle class="st7" cx="5.6" cy="41" r="2.8"/>
		<circle class="st7" cx="19" cy="34.6" r="2.8"/>
		<circle class="st7" cx="9.6" cy="21.8" r="2.8"/>
		<circle class="st7" cx="6.8" cy="2.8" r="2.8"/>
		<circle class="st7" cx="25.8" cy="18.1" r="2.8"/>
		<circle class="st7" cx="16.2" cy="46.1" r="2.8"/>
	</g>
	<g>
		<g>
			<rect x="371.9" y="66.6" class="st7" width="6.6" height="4.4"/>
			<rect x="381.9" y="66.6" class="st7" width="6.6" height="4.4"/>
			<rect x="391.7" y="66.6" class="st7" width="6.6" height="4.4"/>
			<rect x="381.9" y="75.3" class="st7" width="6.6" height="4.4"/>
			<rect x="391.7" y="75.3" class="st7" width="6.6" height="4.4"/>
			<rect x="391.7" y="84.1" class="st7" width="6.6" height="4.4"/>
			<rect x="381.7" y="58.3" class="st7" width="6.6" height="4.4"/>
			<line class="st4" x1="385" y1="60.5" x2="385" y2="79.2"/>
			<line class="st4" x1="395" y1="68.7" x2="395" y2="86.3"/>
			<line class="st4" x1="374.5" y1="69.1" x2="395.8" y2="69.1"/>
		</g>
		<g>
			<path class="st9" d="M376.2,60c0-2.4-1.9-4.3-4.3-4.3h-9.4l-5.8-4.7c-0.5-2.2-2.5-3.9-5-3.9h-5c0.1-0.6,0.2-1.1,0.5-1.2
				c2.4-1,3.5-2.4,4.6-3.9c4.3-5.4-2.9-17.1-8.2-15.3c0,0-4.2-1.5-7.5,2.2c-3.3,3.7-3.9,11.7-3.9,11.7s1.7,3.1,6,5.1
				c0.3,0.1,0.4,0.7,0.5,1.4h-5c-2.6,0-4.7,1.9-5,4.4c0,0.2-0.1,0.4-0.1,0.6c0,0,0,0,0,0v0v11.1v1.5v10.7c0,3.2,2.4,5.9,5.6,6.3
				l0.1,0v24.4c0,2.7,2.2,4.9,4.9,4.9c2.7,0,4.9-2.2,4.9-4.9c0,2.7,2.2,4.9,4.9,4.9c2.7,0,4.9-2.2,4.9-4.9V93.9V81.7V58.8l6.9,5.5
				h11.1C374.2,64.3,376.2,62.3,376.2,60z M346.2,47c0.3,3.3-2.1,3.5-3,5.1l0,0c-0.2,0.3-0.3,0.8-0.3,1.3c0,0.6,0.3,0.9,0.6,1.2
				c0.8,0.6,0.3,1.7-0.7,1.7c-1.1,0-1.6-1.1-0.7-1.7c0.3-0.2,0.6-0.5,0.6-1.2c0-2.9-3.8-2.3-3.4-6.3l0-0.1v-2.1
				c0.9,0.9,2.1,1.4,3.4,1.5c1.3,0,2.5-0.6,3.6-1.7L346.2,47L346.2,47z M337.3,40c-0.2,0-0.3,0-0.4-0.1c-0.4-0.4-0.7-2.7-0.5-3.2
				c0.1-0.2,0.4-0.2,0.6-0.1c0-0.1,0-0.1,0-0.2c0.1-6.9,5-6,5-6c0,5.5,5.1,8,6.7,8.6c0.3,1.1-1.1,1.3-1.1,1.3c0,1.4-0.6,2.7-1.4,3.6
				c-0.9,1-2.3,1.9-3.6,1.8h-0.1c-1.1,0-2.3-0.6-3.2-1.3C338.3,43.5,337.6,41.3,337.3,40z"/>
			<path class="st9" d="M404.8,45.1c-1-1-2.3-1.6-3.8-1.6h-31.8c-1.5,0-2.8,0.6-3.8,1.6c-1,1-1.6,2.3-1.6,3.8v4.4h4v-4.4
				c0-0.4,0.1-0.7,0.4-0.9c0.2-0.2,0.6-0.4,0.9-0.4H401c0.4,0,0.7,0.1,0.9,0.4c0.2,0.2,0.4,0.6,0.4,0.9v43.3c0,0.4-0.1,0.7-0.4,0.9
				c-0.2,0.2-0.6,0.4-0.9,0.4h-31.8c-0.4,0-0.7-0.1-0.9-0.4c-0.2-0.2-0.4-0.6-0.4-0.9V66.6h-4v25.5c0,1.5,0.6,2.8,1.6,3.8
				c1,1,2.3,1.6,3.8,1.6H401c1.5,0,2.8-0.6,3.8-1.6c1-1,1.6-2.3,1.6-3.8V48.9C406.4,47.4,405.8,46,404.8,45.1z"/>
			<path class="st9" d="M387.5,37.8c0-1.3-1.1-2.4-2.4-2.4c-1.3,0-2.4,1.1-2.4,2.4v4h4.8V37.8z"/>
			<polygon class="st9" points="390.9,99.4 395.8,111.1 400.2,111.1 395.4,99.4 			"/>
			<polygon class="st9" points="371.5,111.1 375.9,111.1 380.8,99.4 376.3,99.4 			"/>
		</g>
	</g>
	<g>
		<rect x="241.4" y="356.9" class="st10" width="66.4" height="47.4"/>
		<polyline class="st11" points="241.4,394.5 258.7,378.2 271.9,391.6 291.3,366.9 299.6,378.2 307.5,369.6 		"/>
		<circle class="st9" cx="258.7" cy="378.2" r="3.8"/>
		<circle class="st9" cx="272.5" cy="392.5" r="3.8"/>
		<circle class="st9" cx="291.5" cy="365.8" r="3.8"/>
		<circle class="st9" cx="300" cy="378.2" r="3.8"/>
	</g>
	<g>
		<g>
			<line class="st12" x1="190.4" y1="194.1" x2="312.2" y2="71.3"/>
			<g>
				<ellipse transform="matrix(0.7042 -0.71 0.71 0.7042 -81.3772 192.6368)" class="st7" cx="190.5" cy="194" rx="3.8" ry="3.8"/>
			</g>
			<g>
				<ellipse transform="matrix(0.7042 -0.71 0.71 0.7042 41.6144 242.6938)" class="st7" cx="312.1" cy="71.4" rx="3.8" ry="3.8"/>
			</g>
		</g>
	</g>
	<circle class="st2" cx="85.5" cy="302.8" r="20.6"/>
	<g>
		<g>
			<line class="st4" x1="84.9" y1="302.8" x2="85.9" y2="302.8"/>
			<line class="st13" x1="89.9" y1="302.8" x2="226" y2="302.8"/>
			<polyline class="st4" points="228,302.8 229,302.8 229.7,303.5 			"/>
			<line class="st14" x1="232.5" y1="306.5" x2="264.4" y2="340.1"/>
			<line class="st4" x1="265.8" y1="341.6" x2="266.5" y2="342.3"/>
			<g>
				<circle class="st7" cx="85.1" cy="302.8" r="3.8"/>
			</g>
			<g>
				
					<ellipse transform="matrix(0.7258 -0.6879 0.6879 0.7258 -162.3628 277.051)" class="st7" cx="266.3" cy="342.2" rx="3.8" ry="3.8"/>
			</g>
		</g>
	</g>
</g>
</svg>
