<?xml version="1.0" encoding="utf-8"?>
<!-- Generator: Adobe Illustrator 21.0.2, SVG Export Plug-In . SVG Version: 6.00 Build 0)  -->
<!DOCTYPE svg PUBLIC "-//W3C//DTD SVG 1.1//EN" "http://www.w3.org/Graphics/SVG/1.1/DTD/svg11.dtd">
<svg version="1.1" id="Layer_1" xmlns="http://www.w3.org/2000/svg" xmlns:xlink="http://www.w3.org/1999/xlink" x="0px" y="0px"
	 width="91px" height="106px" viewBox="0 0 91 106" style="enable-background:new 0 0 91 106;" xml:space="preserve">
<style type="text/css">
	.st0{fill:#404040;}
</style>
<g>
	<path class="st0" d="M83.7,48.3c-1-4.6-2.6-10.5-10.7-14.2c-3.3-1.5-6.8-2.1-10-2.1c-4.6,0-8.6,1.1-10.9,2.3
		c-3.3,1.6-5.7,2.5-7.3,4.8c-1.6-2.3-4.1-3.2-7.3-4.8C35,33.2,31,32,26.4,32c-3.2,0-6.7,0.6-10,2.1c-8.1,3.7-9.8,9.6-10.7,14.2
		C2.7,62.6,8.5,77.5,17,89.6c3,4.3,7.9,8.5,12.4,11.4c1.8,1.1,3.8,1.6,5.9,1.6c3.1,0,6.4-1,9.4-2c3,1,6.3,2,9.4,2
		c2.1,0,4.1-0.4,5.9-1.6c4.5-2.9,9.4-7.1,12.4-11.4C80.8,77.5,86.6,62.6,83.7,48.3z"/>
	<path class="st0" d="M59.1,22c-5.5,8-16.5,10.1-16.5,10.1s-2.1-11,3.4-19S62.4,3,62.4,3S64.6,14,59.1,22z"/>
</g>
</svg>
