<?xml version="1.0" encoding="utf-8"?>
<!-- Generator: Adobe Illustrator 21.0.1, SVG Export Plug-In . SVG Version: 6.00 Build 0)  -->
<svg version="1.1" id="Layer_1" xmlns="http://www.w3.org/2000/svg" xmlns:xlink="http://www.w3.org/1999/xlink" x="0px" y="0px"
	 viewBox="0 0 200.6 56.7" style="enable-background:new 0 0 200.6 56.7;" xml:space="preserve">
<style type="text/css">
	.st0{opacity:0.75;}
	.st1{fill-rule:evenodd;clip-rule:evenodd;}
</style>
<g class="st0">
	<g>
		<path class="st1" d="M97.3,4.6c0,1.2-0.4,2.2-1.1,3c-0.7,0.9-1.8,1.3-3,1.3c-0.4,0-1.1,0-2.1-0.1c0.1-1.3,0.1-2.6,0.1-4.2
			c0-1.4,0-2.7-0.1-3.8h0.7c0.2,0,0.4,0,0.7,0c0.3,0,0.6,0,0.7,0c1.4,0,2.5,0.4,3.2,1.1C97,2.6,97.3,3.5,97.3,4.6L97.3,4.6z
			 M96.2,4.9c0-0.9-0.3-1.7-0.9-2.3c-0.6-0.6-1.5-0.9-2.7-0.9c-0.2,0-0.4,0-0.7,0.1c0,0.9,0,1.9,0,2.9c0,1.1,0,2.2,0.1,3.3
			c0.3,0.1,0.6,0.1,0.9,0.1c1.1,0,1.9-0.3,2.4-1C96,6.5,96.2,5.8,96.2,4.9L96.2,4.9z M105.5,7.9l0,0.9h-4.9c0.1-1.3,0.1-2.6,0.1-4.2
			c0-1.4,0-2.7-0.1-3.8h4.6l0,0.9c-1.1,0-2.3-0.1-3.5-0.1c0,0.6,0,1.5,0,2.5c1.1,0,2,0,2.9-0.1v0.9c-0.9,0-1.9-0.1-2.9-0.1
			c0,1,0,2,0.1,2.9C103,8,104.3,8,105.5,7.9L105.5,7.9z M114,2.9c0,0.9-0.4,1.6-1.1,2.1c-0.7,0.5-1.6,0.7-2.8,0.7
			c-0.1,0-0.3,0-0.4,0c0,0.9,0,2,0.1,3.2h-1.2c0.1-1.2,0.1-2.5,0.1-4.2c0-1.4,0-2.6-0.1-3.8h0.9c0.1,0,0.4,0,0.8,0
			c0.4,0,0.8,0,1.1,0c0.8,0,1.4,0.2,1.9,0.5C113.8,1.8,114,2.3,114,2.9L114,2.9z M113,3.2c0-1-0.7-1.6-2.1-1.6c-0.3,0-0.7,0-1.2,0.1
			c0,0.7,0,1.7,0,3.1c0.1,0,0.3,0,0.5,0C112.1,4.9,113,4.3,113,3.2L113,3.2z M123.3,8.8H122c0-0.3-0.3-1.1-0.8-2.6h-3.5
			c-0.5,1.4-0.8,2.3-0.8,2.6h-1.2c0-0.1,0.5-1.4,1.6-3.9c1-2.4,1.6-3.8,1.6-4h1.4c0,0.2,0.5,1.6,1.5,4
			C122.8,7.3,123.3,8.6,123.3,8.8L123.3,8.8z M121,5.5c-1-2.4-1.4-3.6-1.4-3.8h-0.1c0,0.1-0.5,1.4-1.5,3.8H121L121,5.5z M132.1,8.8
			h-1.2c-0.4-1.2-0.7-1.9-0.9-2.3c-0.2-0.5-0.5-0.8-0.8-0.9c-0.2-0.1-0.6-0.2-1.2-0.2c-0.3,0-0.7,0-0.9,0c0,1.3,0,2.4,0.1,3.4h-1.1
			c0.1-1.3,0.1-2.6,0.1-4.2c0-1.4,0-2.7-0.1-3.8h0.9c0.2,0,0.4,0,0.7,0c0.3,0,0.6,0,1,0c1.8,0,2.7,0.6,2.7,1.8c0,1-0.5,1.7-1.5,2.1
			v0.1c0.4,0.1,0.8,0.4,1.1,0.9C131.1,6.3,131.5,7.3,132.1,8.8L132.1,8.8z M130.2,3.1c0-1-0.7-1.4-2-1.4c-0.5,0-0.9,0-1.2,0.1
			c0,0.7,0,1.7,0,2.9c0.2,0,0.5,0,0.7,0C129.4,4.7,130.2,4.1,130.2,3.1L130.2,3.1z M140.3,0.9l0,0.9c-0.8,0-1.6-0.1-2.5-0.1
			c0,0.8,0,1.8,0,3c0,1.3,0,2.7,0.1,4.2h-1.1c0-1.4,0.1-2.8,0.1-4.2c0-1.2,0-2.2,0-3c-0.6,0-1.4,0-2.5,0.1l0-0.9H140.3L140.3,0.9z
			 M151.6,8.8h-1.1c0-0.9-0.1-2.2-0.2-3.9c-0.1-1.7-0.2-2.7-0.2-3.1H150c-0.4,1.3-0.9,2.8-1.5,4.3c-0.6,1.5-0.9,2.4-0.9,2.7h-0.8
			c0-0.3-0.3-1.2-0.9-2.8c-0.6-1.6-0.9-2.6-1.1-3.1c-0.2-0.5-0.3-0.9-0.3-1.1h-0.1c0,0.6-0.1,1.7-0.2,3.4c-0.1,1.7-0.2,2.9-0.2,3.6
			h-1c0,0,0.1-1.2,0.4-3.4c0.3-2.2,0.4-3.7,0.4-4.6h1.6c0,0.4,0.3,1.6,1,3.3c0.6,1.8,1,2.9,1,3.2h0.1c0-0.4,0.4-1.5,1.1-3.3
			c0.7-1.8,1.1-2.9,1.1-3.3h1.6c0,0.9,0.1,2.4,0.3,4.6C151.5,7.7,151.6,8.8,151.6,8.8L151.6,8.8z M160.2,7.9l0,0.9h-4.9
			c0.1-1.3,0.1-2.6,0.1-4.2c0-1.4,0-2.7-0.1-3.8h4.6l0,0.9c-1.1,0-2.3-0.1-3.5-0.1c0,0.6,0,1.5,0,2.5c1.1,0,2,0,2.9-0.1v0.9
			c-0.9,0-1.9-0.1-2.9-0.1c0,1,0,2,0.1,2.9C157.7,8,159,8,160.2,7.9L160.2,7.9z M169.5,8.8h-0.9c0-0.1-0.7-1-2-2.9
			c-1.4-2-2.2-3.2-2.4-3.7h-0.1c0.1,1,0.1,1.8,0.1,2.5c0,1.4,0,2.7,0.1,4.1h-1c0.1-1.3,0.1-2.7,0.1-4.2c0-1.4,0-2.7-0.1-3.8h1.2
			c0,0.1,0.6,1,1.8,2.8c1.3,1.8,2,3,2.2,3.6h0.1c-0.1-1-0.1-1.8-0.1-2.5c0-1.5,0-2.8-0.1-3.8h1c-0.1,1.1-0.1,2.3-0.1,3.8
			C169.4,6.1,169.4,7.5,169.5,8.8L169.5,8.8z M178.4,0.9l0,0.9c-0.8,0-1.6-0.1-2.5-0.1c0,0.8,0,1.8,0,3c0,1.3,0,2.7,0.1,4.2h-1.1
			c0-1.4,0.1-2.8,0.1-4.2c0-1.2,0-2.2,0-3c-0.6,0-1.4,0-2.5,0.1l0-0.9H178.4L178.4,0.9z M192.6,4.8c0,1.3-0.4,2.4-1.2,3.1
			c-0.8,0.8-1.7,1.2-2.7,1.2c-1,0-1.8-0.4-2.5-1.1c-0.7-0.7-1.1-1.7-1.1-2.9c0-1.3,0.4-2.4,1.2-3.2c0.8-0.8,1.7-1.2,2.7-1.2
			c1,0,1.8,0.4,2.5,1.1C192.3,2.6,192.6,3.5,192.6,4.8L192.6,4.8z M191.6,4.9c0-1-0.3-1.9-0.8-2.4c-0.6-0.6-1.2-0.9-1.9-0.9
			c-0.7,0-1.3,0.3-1.8,0.9c-0.5,0.6-0.8,1.4-0.8,2.4c0,1.1,0.3,1.9,0.8,2.4c0.6,0.6,1.2,0.9,1.9,0.9c0.7,0,1.3-0.3,1.8-0.9
			C191.3,6.7,191.6,5.9,191.6,4.9L191.6,4.9z M200.6,0.9l0,0.9c-1.1,0-2.3-0.1-3.7-0.1c0,0.7,0.1,1.6,0.1,2.8c1,0,1.9,0,2.8,0v0.9
			c-0.9,0-1.8,0-2.8,0c0,1.6,0,2.8,0.1,3.5h-1.1c0.1-1.3,0.1-2.6,0.1-4.2c0-1.4,0-2.7-0.1-3.8H200.6L200.6,0.9z"/>
		<path class="st1" d="M96.2,43.3c0,1.4-1,2.1-2.9,2.1c-0.7,0-1.3-0.1-1.9-0.2l0.2-0.9c0.6,0.2,1.2,0.3,1.8,0.3
			c1.3,0,1.9-0.4,1.9-1.1c0-0.4-0.2-0.7-0.5-0.9c-0.2-0.2-0.7-0.4-1.3-0.7c-0.7-0.3-1.2-0.6-1.4-0.8c-0.4-0.4-0.6-0.8-0.6-1.3
			c0-0.6,0.2-1,0.6-1.4c0.4-0.4,1-0.6,1.8-0.6c0.9,0,1.5,0.1,1.8,0.2l-0.1,0.9c-0.6-0.2-1.2-0.3-1.8-0.3c-1,0-1.5,0.3-1.5,1
			c0,0.3,0.1,0.6,0.4,0.8c0.2,0.1,0.6,0.3,1.2,0.6c0.7,0.3,1.2,0.6,1.5,0.9C96,42.2,96.2,42.7,96.2,43.3L96.2,43.3z M101.1,44.4
			l-0.1,0.7c-0.3,0.1-0.6,0.2-0.8,0.2c-0.7,0-1.1-0.2-1.4-0.5c-0.2-0.3-0.4-1-0.4-1.8c0-0.6,0-1.3,0-2.3c-0.2,0-0.5,0-0.9,0l0-0.8
			c0.4,0,0.7,0,1,0c0-0.2,0-0.8,0.1-1.6l0.9-0.1c-0.1,0.8-0.1,1.4-0.1,1.7c0.4,0,0.9,0,1.6-0.1l0,0.8c-0.7,0-1.2,0-1.6,0
			c0,0.6,0,1.2,0,1.9c0,0.8,0.1,1.3,0.2,1.5c0.2,0.3,0.5,0.4,0.9,0.4C100.6,44.5,100.8,44.5,101.1,44.4L101.1,44.4z M106.8,45.2
			l-0.9,0c0-0.2-0.1-0.4-0.1-0.5h-0.1c-0.5,0.4-1.1,0.6-1.9,0.6c-0.4,0-0.8-0.1-1.1-0.4c-0.3-0.3-0.5-0.6-0.5-1.1
			c0-0.6,0.2-1,0.7-1.4c0.5-0.4,1.4-0.5,2.7-0.6c0-0.1,0-0.2,0-0.3c0-0.5-0.1-0.8-0.4-0.9c-0.2-0.2-0.6-0.2-1.1-0.2
			c-0.6,0-1.2,0.1-1.7,0.2l0.1-0.8c0.6-0.2,1.2-0.2,1.9-0.2c0.7,0,1.2,0.1,1.6,0.4c0.4,0.3,0.5,0.8,0.5,1.4c0,0.2,0,0.5,0,1
			c0,0.5,0,0.8,0,0.9C106.6,44.1,106.7,44.7,106.8,45.2L106.8,45.2z M105.8,44.1c0-0.6,0-1.1,0-1.5c-0.7,0-1.2,0.1-1.6,0.2
			c-0.6,0.2-0.9,0.5-0.9,1.1c0,0.5,0.4,0.8,1.1,0.8C104.9,44.6,105.4,44.4,105.8,44.1L105.8,44.1z M111.7,44.4l-0.1,0.7
			c-0.3,0.1-0.6,0.2-0.8,0.2c-0.7,0-1.1-0.2-1.4-0.5c-0.2-0.3-0.4-1-0.4-1.8c0-0.6,0-1.3,0-2.3c-0.2,0-0.5,0-0.9,0l0-0.8
			c0.4,0,0.7,0,1,0c0-0.2,0-0.8,0.1-1.6l0.9-0.1c-0.1,0.8-0.1,1.4-0.1,1.7c0.4,0,0.9,0,1.6-0.1l0,0.8c-0.7,0-1.2,0-1.6,0
			c0,0.6,0,1.2,0,1.9c0,0.8,0.1,1.3,0.2,1.5c0.2,0.3,0.5,0.4,0.9,0.4C111.2,44.5,111.5,44.5,111.7,44.4L111.7,44.4z M117.9,41.9
			c0,0.2,0,0.4,0,0.7l-3.9,0.1c0,0.5,0.3,1,0.6,1.4c0.4,0.4,0.9,0.6,1.5,0.6c0.6,0,1.1-0.1,1.6-0.2l-0.1,0.8
			c-0.4,0.1-0.9,0.2-1.6,0.2c-1,0-1.7-0.3-2.2-0.8c-0.5-0.5-0.8-1.2-0.8-2c0-0.8,0.2-1.5,0.7-2.1c0.5-0.6,1.1-0.9,1.9-0.9
			c0.7,0,1.3,0.2,1.7,0.6C117.7,40.7,117.9,41.2,117.9,41.9L117.9,41.9z M116.9,41.9c0-1.1-0.4-1.6-1.3-1.6c-0.9,0-1.4,0.5-1.6,1.6
			L116.9,41.9L116.9,41.9z M128.1,42.4c0,1-0.3,1.7-0.8,2.3c-0.6,0.5-1.2,0.8-2,0.8c-0.7,0-1.3-0.2-1.8-0.7c-0.5-0.5-0.8-1.2-0.8-2
			c0-1,0.3-1.7,0.8-2.3c0.6-0.5,1.2-0.8,2-0.8c0.7,0,1.3,0.2,1.8,0.7C127.9,40.8,128.1,41.5,128.1,42.4L128.1,42.4z M127.1,42.6
			c0-0.6-0.1-1.1-0.4-1.6c-0.3-0.5-0.7-0.7-1.3-0.7c-0.5,0-1,0.2-1.3,0.7c-0.3,0.4-0.4,0.9-0.4,1.5c0,0.6,0.1,1.1,0.4,1.6
			c0.3,0.5,0.7,0.7,1.3,0.7c0.5,0,1-0.2,1.2-0.7C127,43.6,127.1,43.1,127.1,42.6L127.1,42.6z M133,37.2l-0.2,0.7
			c-0.2-0.1-0.5-0.1-0.7-0.1c-0.3,0-0.6,0.1-0.7,0.4c-0.1,0.3-0.2,0.8-0.2,1.7c0.4,0,0.9,0,1.6-0.1l0,0.8c-0.8,0-1.3,0-1.5,0
			c0,1.7,0,3.2,0.1,4.5h-1c0.1-1.3,0.1-2.8,0.1-4.5c-0.2,0-0.6,0-1.2,0l0-0.8c0.5,0,0.9,0,1.2,0c0-1,0.1-1.7,0.4-2.2
			c0.3-0.5,0.7-0.7,1.3-0.7C132.5,37.1,132.7,37.1,133,37.2L133,37.2z M146.8,37.9c0,0.3-0.4,1.5-1.2,3.7c-0.8,2.2-1.2,3.4-1.2,3.7
			h-0.7c0-0.3-0.3-1.3-0.9-2.9c-0.6-1.7-1-2.8-1.1-3.3h-0.1c-0.1,0.5-0.4,1.7-1,3.4c-0.5,1.6-0.8,2.6-0.8,2.8H139
			c0-0.4-0.4-1.7-1.2-3.9c-0.8-2.2-1.2-3.4-1.2-3.5h1.1c0,0.2,0.3,1.1,0.9,2.9c0.6,1.8,0.9,2.9,0.9,3.3h0.1c0-0.4,0.3-1.5,0.9-3.3
			c0.6-1.8,0.9-2.7,0.9-2.9h1c0,0.2,0.3,1.3,0.9,3.1c0.6,1.8,0.9,2.9,0.9,3.1h0.1c0-0.4,0.3-1.4,0.8-3.1c0.5-1.7,0.8-2.8,0.8-3.1
			H146.8L146.8,37.9z M152.1,45.2l-0.9,0c0-0.2-0.1-0.4-0.1-0.5h-0.1c-0.5,0.4-1.1,0.6-1.9,0.6c-0.4,0-0.8-0.1-1.1-0.4
			c-0.3-0.3-0.5-0.6-0.5-1.1c0-0.6,0.2-1,0.7-1.4c0.5-0.4,1.4-0.5,2.7-0.6c0-0.1,0-0.2,0-0.3c0-0.5-0.1-0.8-0.4-0.9
			c-0.2-0.2-0.6-0.2-1.1-0.2c-0.6,0-1.2,0.1-1.7,0.2l0.1-0.8c0.6-0.2,1.2-0.2,1.9-0.2c0.7,0,1.2,0.1,1.6,0.4
			c0.4,0.3,0.5,0.8,0.5,1.4c0,0.2,0,0.5,0,1c0,0.5,0,0.8,0,0.9C151.9,44.1,152,44.7,152.1,45.2L152.1,45.2z M151.1,44.1
			c0-0.6,0-1.1,0-1.5c-0.7,0-1.2,0.1-1.6,0.2c-0.6,0.2-0.9,0.5-0.9,1.1c0,0.5,0.4,0.8,1.1,0.8C150.2,44.6,150.7,44.4,151.1,44.1
			L151.1,44.1z M157.5,43.7c0,1.1-0.7,1.7-2.1,1.7c-0.6,0-1.2-0.1-1.7-0.2l0.2-0.8c0.5,0.2,1,0.3,1.6,0.3c0.8,0,1.2-0.2,1.2-0.7
			c0-0.2-0.1-0.4-0.3-0.5c-0.2-0.1-0.5-0.3-0.9-0.4c-0.5-0.2-0.9-0.4-1.2-0.6c-0.4-0.3-0.5-0.6-0.5-1.1c0-0.4,0.2-0.8,0.5-1.1
			c0.3-0.3,0.8-0.5,1.5-0.5c0.6,0,1.2,0.1,1.6,0.2l-0.2,0.8c-0.4-0.2-0.9-0.2-1.4-0.2c-0.7,0-1.1,0.2-1.1,0.6c0,0.2,0.1,0.4,0.2,0.5
			c0.2,0.1,0.5,0.3,0.9,0.5c0.5,0.2,0.9,0.4,1.1,0.6C157.3,42.9,157.5,43.3,157.5,43.7L157.5,43.7z M164.2,45.2h-1
			c0.1-1,0.1-2.1,0.1-3.2c0-0.6-0.1-1-0.3-1.2c-0.2-0.2-0.5-0.3-0.9-0.3c-0.6,0-1.1,0.2-1.6,0.6c0,2.1,0,3.4,0,4.2h-1
			c0-1,0.1-2.4,0.1-4.2c0-1.6-0.1-2.8-0.2-3.7l1.1-0.1c0,1.1,0,2.2,0,3.2h0c0.6-0.5,1.2-0.7,1.9-0.7c0.6,0,1.1,0.1,1.4,0.4
			c0.3,0.3,0.5,0.8,0.5,1.5c0,0.1,0,0.2,0,0.4c0,0.2,0,0.4,0,0.5C164.2,43.1,164.2,44,164.2,45.2L164.2,45.2z M167.2,45.2h-1
			c0.1-0.8,0.1-1.6,0.1-2.6c0-1.1-0.1-2-0.2-2.7l1.1-0.2c0,0.8-0.1,1.8-0.1,2.9C167.1,43.5,167.1,44.4,167.2,45.2L167.2,45.2z
			 M167.4,38.2c0,0.2-0.1,0.4-0.2,0.5c-0.1,0.1-0.3,0.2-0.5,0.2c-0.2,0-0.3-0.1-0.4-0.2c-0.1-0.1-0.2-0.3-0.2-0.4
			c0-0.2,0.1-0.4,0.2-0.5c0.1-0.1,0.3-0.2,0.5-0.2c0.2,0,0.3,0.1,0.4,0.2C167.4,37.8,167.4,38,167.4,38.2L167.4,38.2z M173.9,45.2
			h-1c0.1-1,0.1-2.1,0.1-3.2c0-0.6-0.1-1-0.4-1.2c-0.2-0.2-0.6-0.3-1-0.3c-0.5,0-1,0.2-1.5,0.6c0,1.3,0,2.7,0,4.2h-1
			c0.1-1.3,0.1-2.2,0.1-2.8c0-0.9-0.1-1.7-0.2-2.6l1-0.1l0.1,0.7h0c0.6-0.5,1.2-0.8,1.8-0.8c0.6,0,1.1,0.1,1.5,0.4
			c0.3,0.3,0.5,0.8,0.5,1.5c0,0.1,0,0.2,0,0.4c0,0.2,0,0.4,0,0.4C173.9,43,173.9,44,173.9,45.2L173.9,45.2z M181.1,39.1l-0.1,0.8
			c-0.7,0-1.1,0.1-1.2,0.3v0.1c0.2,0.3,0.4,0.6,0.4,1c0,0.6-0.2,1.1-0.6,1.5c-0.4,0.4-1,0.6-1.8,0.6c-0.4,0-0.6,0-0.9-0.1
			c-0.2,0.1-0.3,0.3-0.3,0.5c0,0.2,0.1,0.4,0.3,0.5c0.3,0.1,0.9,0.2,1.7,0.2c1.4,0,2.1,0.5,2.1,1.4c0,0.7-0.3,1.2-0.8,1.7
			c-0.6,0.4-1.3,0.7-2.2,0.7c-0.9,0-1.6-0.2-1.9-0.5c-0.4-0.3-0.6-0.7-0.6-1.2c0-0.4,0.1-0.8,0.3-1c0.2-0.3,0.4-0.4,0.7-0.5v-0.1
			c-0.3-0.1-0.4-0.4-0.4-0.8c0-0.4,0.2-0.7,0.6-1v0c-0.2-0.1-0.4-0.3-0.6-0.5c-0.2-0.2-0.3-0.5-0.3-0.9c0-0.6,0.2-1.1,0.6-1.5
			c0.4-0.4,1-0.6,1.7-0.6c0.6,0,1.1,0.1,1.4,0.3h0.1c0.1-0.6,0.4-1,1-1C180.7,39.1,181,39.1,181.1,39.1L181.1,39.1z M180.1,46.2
			c0-0.4-0.1-0.6-0.4-0.7c-0.3-0.1-0.7-0.2-1.5-0.2c-0.5,0-0.9,0-1.3-0.1c-0.5,0.2-0.7,0.5-0.7,1c0,0.9,0.6,1.4,1.8,1.4
			c0.6,0,1.1-0.1,1.5-0.4C179.9,46.9,180.1,46.6,180.1,46.2L180.1,46.2z M179.3,41.5c0-0.4-0.1-0.7-0.4-1c-0.3-0.2-0.6-0.3-1-0.3
			c-0.4,0-0.7,0.1-1,0.3c-0.3,0.2-0.4,0.5-0.4,0.9c0,0.4,0.1,0.7,0.4,0.9c0.3,0.2,0.6,0.3,1,0.3c0.4,0,0.7-0.1,0.9-0.3
			C179.2,42.2,179.3,41.9,179.3,41.5L179.3,41.5z M185.8,44.4l-0.1,0.7c-0.3,0.1-0.6,0.2-0.8,0.2c-0.7,0-1.1-0.2-1.4-0.5
			c-0.2-0.3-0.4-1-0.4-1.8c0-0.6,0-1.3,0-2.3c-0.2,0-0.5,0-0.9,0l0-0.8c0.4,0,0.7,0,1,0c0-0.2,0-0.8,0.1-1.6l0.9-0.1
			c-0.1,0.8-0.1,1.4-0.1,1.7c0.4,0,0.9,0,1.6-0.1l0,0.8c-0.7,0-1.2,0-1.6,0c0,0.6,0,1.2,0,1.9c0,0.8,0.1,1.3,0.2,1.5
			c0.2,0.3,0.5,0.4,0.9,0.4C185.3,44.5,185.5,44.5,185.8,44.4L185.8,44.4z M192.4,42.4c0,1-0.3,1.7-0.8,2.3c-0.6,0.5-1.2,0.8-2,0.8
			c-0.7,0-1.3-0.2-1.8-0.7c-0.5-0.5-0.8-1.2-0.8-2c0-1,0.3-1.7,0.8-2.3c0.6-0.5,1.2-0.8,2-0.8c0.7,0,1.3,0.2,1.8,0.7
			C192.2,40.8,192.4,41.5,192.4,42.4L192.4,42.4z M191.5,42.6c0-0.6-0.1-1.1-0.4-1.6c-0.3-0.5-0.7-0.7-1.3-0.7c-0.5,0-1,0.2-1.3,0.7
			c-0.3,0.4-0.4,0.9-0.4,1.5c0,0.6,0.1,1.1,0.4,1.6c0.3,0.5,0.7,0.7,1.3,0.7c0.5,0,1-0.2,1.2-0.7C191.3,43.6,191.5,43.1,191.5,42.6
			L191.5,42.6z M199,45.2h-1c0.1-1,0.1-2.1,0.1-3.2c0-0.6-0.1-1-0.4-1.2c-0.2-0.2-0.6-0.3-1-0.3c-0.5,0-1,0.2-1.5,0.6
			c0,1.3,0,2.7,0,4.2h-1c0.1-1.3,0.1-2.2,0.1-2.8c0-0.9-0.1-1.7-0.2-2.6l1-0.1l0.1,0.7h0c0.6-0.5,1.2-0.8,1.8-0.8
			c0.6,0,1.1,0.1,1.5,0.4c0.3,0.3,0.5,0.8,0.5,1.5c0,0.1,0,0.2,0,0.4c0,0.2,0,0.4,0,0.4C198.9,43,199,44,199,45.2L199,45.2z"/>
		<path class="st1" d="M200.3,15.4c0,0.1,0,0.4-0.1,0.6c-0.2,0.6-0.8,1.6-1.5,2.6c-1.3,1.8-2.4,3.5-2.9,4.2
			c-0.9,1.6-1.4,2.8-1.4,3.7c0,1.7,0.1,3.8,0.2,5.5h-3c0.1-1.7,0.1-3.5,0.2-5.4c0-1-0.5-2.4-1.4-4.1c-0.5-1-1.4-2.3-2.6-4.1
			c-0.7-1-1.3-1.9-1.5-2.5c-0.1-0.2,0-0.4,0-0.5h3.2c0,0,0,0.2,0,0.3c0.2,0.6,1,2,2.1,3.8c0.4,0.7,1.5,2.6,1.9,3.7
			c0.4-1.1,0.7-1.6,1.8-3.6c1.1-2,2.1-3.6,2.1-4l0-0.3H200.3L200.3,15.4z M183.9,31.5c-1.3,0.4-2.7,0.7-4.4,0.7
			c-2.8,0-5.1-0.7-6.7-2.3c-1.6-1.5-2.4-3.4-2.4-6c0-2.3,0.8-4.5,2.5-6.2c1.6-1.6,3.8-2.6,6.9-2.6c1,0,2.3,0.2,3.3,0.5l-0.4,2.7
			c-1.4-0.4-2.8-0.6-3.6-0.6c-1.6,0-3.3,0.5-4.3,1.7c-1,1.2-1.5,2.6-1.5,4.3c0,1.8,0.6,3.1,1.8,4.4c1.1,1.2,2.7,1.9,4.9,1.9
			c0.4,0,0.7,0,1.5-0.2c-0.1-0.8-0.2-1.6-0.2-2.7c0-0.9-0.1-2.2-0.2-3.1h3c-0.1,1.1-0.1,2.5-0.1,3.7
			C183.8,28.3,183.8,29.7,183.9,31.5L183.9,31.5z M149.6,29.5l-0.1,2.5h-10.4c0.1-2,0.2-5.1,0.2-8.7c0-3-0.1-6-0.2-7.9h3
			c-0.1,1.6-0.2,4.6-0.2,7.9c0,2.8,0,4.7-0.1,6.4C144.2,29.7,146.9,29.6,149.6,29.5L149.6,29.5z M132.3,23.7c0-2.1-0.5-3.5-1.6-4.6
			c-1.1-1.1-2.3-1.7-3.6-1.7c-1.3,0-2.4,0.5-3.4,1.7c-1,1.2-1.6,2.7-1.6,4.7c0,2.1,0.6,3.6,1.6,4.7c1,1,2.3,1.6,3.7,1.6
			c1.3,0,2.5-0.7,3.3-1.8C131.8,27.1,132.3,25.7,132.3,23.7L132.3,23.7z M135.1,23.4c0,2.7-0.8,5.2-2.5,6.6
			c-1.5,1.3-3.2,2.4-5.6,2.4c-2.3,0-3.9-0.8-5.4-2.3c-1.7-1.6-2.4-3.7-2.4-6.1c0-2.6,0.7-4.7,2.5-6.6c1.5-1.6,3.4-2.4,5.6-2.4
			c1.9,0,3.7,0.7,5.3,2.2C134.3,18.7,135.1,20.9,135.1,23.4L135.1,23.4z M117,29.3l-0.2,2.5c-1,0.3-2.4,0.5-3.7,0.5
			c-2.8,0-5.1-0.8-6.5-2.4c-1.4-1.5-2.3-3.7-2.3-5.9c0-2.3,1.1-4.8,2.7-6.4c1.6-1.7,3.8-2.5,6.5-2.5c0.7,0,1.9,0.2,2.7,0.5l-0.5,2.5
			c-0.9-0.3-2.1-0.5-2.8-0.5c-2,0-3.3,0.5-4.3,1.7c-1,1.2-1.5,2.7-1.5,4.3c0,1.8,0.5,3.2,1.7,4.4c1.1,1.2,2.8,1.8,4.6,1.8
			C114.8,29.9,115.8,29.6,117,29.3L117,29.3z M101.9,29.5l-0.1,2.5H91.2c0.1-2.5,0.2-7,0.2-8.7c0-2.4-0.1-5.7-0.2-7.9h10l-0.1,2.5
			c-2.2-0.1-4.7-0.2-7.2-0.2c0,1.3,0.1,2.4,0.1,4.5c0.9,0,1.8,0,2.8,0c1.2,0,2.3-0.1,3.1-0.1v2.5c-1.8-0.1-3.9-0.1-5.9-0.1
			c0,2.1,0.1,3.5,0.1,5.3C96.7,29.7,99.5,29.6,101.9,29.5L101.9,29.5z M164.4,23.7c0-2.1-0.5-3.5-1.6-4.6c-1.1-1.1-2.3-1.7-3.6-1.7
			c-1.3,0-2.4,0.5-3.4,1.7c-1,1.2-1.6,2.7-1.6,4.7c0,2.1,0.6,3.6,1.6,4.7c1,1,2.3,1.6,3.7,1.6c1.3,0,2.5-0.7,3.3-1.8
			C163.9,27.1,164.4,25.7,164.4,23.7L164.4,23.7z M167.2,23.4c0,2.7-0.8,5.2-2.5,6.6c-1.5,1.3-3.2,2.4-5.6,2.4
			c-2.3,0-3.9-0.8-5.4-2.3c-1.7-1.6-2.4-3.7-2.4-6.1c0-2.6,0.7-4.7,2.5-6.6c1.5-1.6,3.4-2.4,5.6-2.4c1.9,0,3.7,0.7,5.3,2.2
			C166.3,18.7,167.2,20.9,167.2,23.4L167.2,23.4z"/>
	</g>
	<path class="st1" d="M1,17.8h18.8c0.1-0.7,0.3-1.3,0.2-2c-0.2-0.9-0.4-2-1.1-2.6c-0.3-0.3-0.6,0.9-1,0.9c-0.9-0.1-1.6-1.2-2.5-1.3
		c-1-0.1-1.8,1.2-2.8,1L0.9,10.6c-1.1-0.3-0.3,0.5-0.3,0.7l-0.5,1.8L0,15.3l0.5,1.6L1,17.8L1,17.8z"/>
	<path class="st1" d="M23.7,17.8h53.7L77.2,0H20.5c0.2,1.2-0.2,2.7,0.5,3.7c0.3,0.5,1.4-0.6,1.9-0.2c0.4,0.3-0.1,1-0.2,1.6
		C22.6,6,23,7,22.6,7.8c-0.2,0.4-1.5-0.3-1.4,0.2c0.2,1.1,1.6,1.7,2,2.8c0.1,0.4-0.9,0.7-0.8,1.1c0.3,1.5,2.2,2.7,1.8,4.1L23.7,17.8
		z M48.1,4.1c2.7,0,4.9,2.2,4.9,4.8c0,2.7-2.2,4.9-4.9,4.9c-2.6,0-4.8-2.2-4.8-4.9C43.2,6.3,45.4,4.1,48.1,4.1z"/>
	<path class="st1" d="M77.3,19.3l0.1,18.1H6l-0.1-1.8L5,33.8l-0.7-1.3l-0.6-2.2l-0.5-3.1c13.7-4.1,18-2,18-2s5.7,2.8,9.7,1
		c8.5-3.7,14.6-2.2,14.6-2.2s10.6,4.2,14.8,0.7c4.3-3.4,6.8-3.3,10.1-4.1H2l-0.2-0.8l-0.3-0.6H77.3L77.3,19.3z"/>
	<path class="st1" d="M79.1,49.2c-0.5-0.7,0.6-1.4,0.4-2c-0.3-1.5-1.1-2.1-1.7-3.5c-0.2-0.5-0.3-1.2-0.3-1.7l0-3H6l0.2,3
		C6.1,43.4,6.7,45,7.6,45l4.1,0.3l0.5,0.4c0.2,0.3,0.6,0.5,0.9,0.6c0.3,0.1,0.5,0.1,0.8,0.1c0.2,0,0.3-0.1,0.5-0.1l1.8,1.9l1.2,2.8
		l0.7,2.7c0.5,1.9,3.2,3,5,2.9c1.8-0.1,5.2-2.2,7-2.2h1.5c1.2,0,2.4,2,3.8,1.9c1.4-0.1,2.1-1.8,3.4-1.8c1.2-0.1,2.2,1,3.2,1
		s1.9-0.6,3-1.2c0.5-0.3,1-0.6,1.5-0.8c3.1-0.9,6.2-1.8,9.3-2.6l23.3,0C80,50.9,79.9,50.1,79.1,49.2z M31.6,48.1
		c-1.1,0.2-2.7-0.5-4.2-0.6c-1.5-0.1-3.6,0.6-4.9,0.5c-1.4-0.2-2.3-1.1-2.3-1.1h14.5C34.8,47,32.6,48.1,31.6,48.1z M70.4,41.4
		c-5.8-0.6-7.9,0.8-7.9,0.8s-4,1.6-7.6,1.1c-5-0.9-5.8-1.4-7.2-1.4c-1.3-0.2-6.1,0.8-8.6,0.3c-2.5-0.5-4.8-1.8-4.8-1.8H74
		C71,41.6,70.4,41.4,70.4,41.4z"/>
</g>
</svg>
