<?xml version="1.0" encoding="utf-8"?>
<!-- Generator: Adobe Illustrator 21.0.1, SVG Export Plug-In . SVG Version: 6.00 Build 0)  -->
<svg version="1.1" id="Layer_1" xmlns="http://www.w3.org/2000/svg" xmlns:xlink="http://www.w3.org/1999/xlink" x="0px" y="0px"
	 viewBox="0 0 394.3 394.1" style="enable-background:new 0 0 394.3 394.1;" xml:space="preserve">
<style type="text/css">
	.st0{opacity:0.15;fill:url(#SVGID_1_);}
	.st1{fill:#5DBFC3;}
	.st2{fill:#FFFBE7;}
	.st3{fill:none;stroke:#404040;stroke-miterlimit:10;}
	.st4{fill:none;stroke:#404040;stroke-miterlimit:10;stroke-dasharray:1.9893,3.9786;}
	.st5{fill:none;stroke:#404040;stroke-miterlimit:10;stroke-dasharray:1.97,3.94;}
	.st6{fill:#404040;}
	.st7{fill:none;stroke:#404040;stroke-miterlimit:10;stroke-dasharray:2,4;}
	.st8{fill:none;stroke:#FFFBE7;stroke-miterlimit:10;}
	.st9{fill:none;stroke:#404040;stroke-miterlimit:10;stroke-dasharray:2.0622,4.1244;}
	.st10{fill:none;stroke:#404040;stroke-miterlimit:10;stroke-dasharray:1.9528,3.9056;}
</style>
<g>
	
		<radialGradient id="SVGID_1_" cx="349.0478" cy="-12266.8594" r="185.1862" gradientTransform="matrix(0.8394 0 0 0.2532 -83.1971 3453.7156)" gradientUnits="userSpaceOnUse">
		<stop  offset="0" style="stop-color:#000000"/>
		<stop  offset="1" style="stop-color:#FFFFFF"/>
	</radialGradient>
	<ellipse class="st0" cx="209.8" cy="347.2" rx="155.4" ry="46.9"/>
	<g>
		<g>
			<circle class="st1" cx="198" cy="115.4" r="113.8"/>
			
				<rect x="171.3" y="91.2" transform="matrix(-1 4.490751e-11 -4.490751e-11 -1 459.5678 430.1917)" class="st1" width="116.9" height="247.7"/>
			<polygon class="st1" points="87.5,126.3 48.7,208.2 89.2,208.2 			"/>
		</g>
		<polygon class="st1" points="83.8,235.9 83.8,113.7 198,113.7 198,275.7 83.8,275.7 83.8,264.7 		"/>
	</g>
	<g>
		<circle class="st2" cx="150.7" cy="73.9" r="31.9"/>
		<circle class="st2" cx="195.8" cy="66.4" r="31.9"/>
		<circle class="st2" cx="247.4" cy="78.1" r="31.9"/>
		<circle class="st2" cx="227.6" cy="118.9" r="31.9"/>
		<circle class="st2" cx="183.7" cy="112.1" r="31.9"/>
		<circle class="st2" cx="131.6" cy="125.8" r="15.9"/>
		<circle class="st2" cx="138.3" cy="152.5" r="6.7"/>
	</g>
	<g>
		<g>
			<line class="st3" x1="350.9" y1="81.2" x2="350.3" y2="82"/>
			<line class="st4" x1="347.9" y1="85.1" x2="320.1" y2="121.5"/>
			<polyline class="st3" points="318.9,123.1 318.3,123.9 317.3,123.9 			"/>
			<line class="st5" x1="313.4" y1="123.9" x2="232.6" y2="123.9"/>
			<line class="st3" x1="230.6" y1="123.9" x2="229.6" y2="123.9"/>
			<g>
				
					<ellipse transform="matrix(0.6061 -0.7954 0.7954 0.6061 73.4679 311.0328)" class="st6" cx="350.8" cy="81.3" rx="3.8" ry="3.8"/>
			</g>
			<g>
				<circle class="st6" cx="229.8" cy="123.9" r="3.8"/>
			</g>
		</g>
	</g>
	<g>
		<g>
			<polyline class="st7" points="195.6,82.7 195.6,24.7 92.1,24.7 			"/>
			<g>
				<circle class="st6" cx="195.6" cy="82.5" r="3.8"/>
			</g>
			<g>
				<circle class="st6" cx="92.3" cy="24.7" r="3.8"/>
			</g>
		</g>
	</g>
	<g>
		<g>
			<path class="st6" d="M68.5,334.3H5.7c-3.2,0-5.7-2.6-5.7-5.7l0,0h74.2l0,0C74.2,331.7,71.7,334.3,68.5,334.3z"/>
			<path class="st6" d="M69.3,325.7H4.9v-40.4c0-1.9,1.5-3.4,3.4-3.4h57.6c1.9,0,3.4,1.5,3.4,3.4V325.7z"/>
			
				<rect x="19.7" y="276.1" transform="matrix(-1.836970e-16 1 -1 -1.836970e-16 340.8886 266.67)" class="st2" width="34.7" height="55.3"/>
		</g>
		<g>
			<rect x="17.6" y="305.3" class="st6" width="9.5" height="6.4"/>
			<rect x="31.8" y="305.3" class="st6" width="9.5" height="6.4"/>
			<rect x="46.1" y="305.3" class="st6" width="9.5" height="6.4"/>
			<rect x="31.8" y="293.2" class="st6" width="9.5" height="6.4"/>
			<line class="st3" x1="36.6" y1="296.4" x2="36.6" y2="308.9"/>
			<line class="st3" x1="21.3" y1="308.9" x2="51.9" y2="308.9"/>
		</g>
	</g>
	<g>
		<g>
			<path class="st6" d="M221.4,86.8c0-11.7-10.2-21.1-22.2-19.8c-9.3,1-16.8,8.7-17.6,18.1c-0.6,6.9,2.4,13.1,7.3,17.1
				c3.8,3.1,6.1,7.5,6.1,12.4v0.9H208v-0.9c0-4.8,2.2-9.3,6-12.3C218.5,98.7,221.4,93.1,221.4,86.8z"/>
			<rect x="193.2" y="118" class="st6" width="16.5" height="11.6"/>
		</g>
		<path class="st6" d="M202.6,62.6c-0.7,0-1.2-0.6-1.2-1.2v-9.7c0-0.7,0.6-1.2,1.2-1.2c0.7,0,1.2,0.6,1.2,1.2v9.7
			C203.8,62.1,203.3,62.6,202.6,62.6z"/>
		<path class="st6" d="M215.4,65.7c-0.2,0-0.5-0.1-0.7-0.2c-0.6-0.4-0.7-1.1-0.4-1.7l5.2-8.1c0.4-0.6,1.1-0.7,1.7-0.4
			c0.6,0.4,0.7,1.1,0.4,1.7l-5.2,8.1C216.2,65.5,215.8,65.7,215.4,65.7z"/>
		<path class="st6" d="M224,74.9c-0.4,0-0.9-0.2-1.1-0.6c-0.3-0.6-0.1-1.4,0.5-1.7l8.4-4.7c0.6-0.3,1.4-0.1,1.7,0.5
			c0.3,0.6,0.1,1.4-0.5,1.7l-8.4,4.7C224.4,74.9,224.2,74.9,224,74.9z"/>
		<path class="st6" d="M188.9,65.7c-0.4,0-0.8-0.2-1-0.6l-5.2-8.1c-0.4-0.6-0.2-1.3,0.4-1.7c0.6-0.4,1.3-0.2,1.7,0.4l5.2,8.1
			c0.4,0.6,0.2,1.3-0.4,1.7C189.4,65.6,189.1,65.7,188.9,65.7z"/>
		<path class="st6" d="M180.3,74.9c-0.2,0-0.4-0.1-0.6-0.2l-8.4-4.7c-0.6-0.3-0.8-1.1-0.5-1.7c0.3-0.6,1.1-0.8,1.7-0.5l8.4,4.7
			c0.6,0.3,0.8,1.1,0.5,1.7C181.1,74.7,180.7,74.9,180.3,74.9z"/>
	</g>
	<g>
		<g>
			<rect x="335.7" y="13.4" class="st6" width="40.6" height="50.4"/>
		</g>
		<g>
			<polygon class="st2" points="363.7,56.4 386.7,79.4 394.3,71.7 371.3,48.7 357.8,43.4 			"/>
			<g>
				
					<rect x="372.6" y="52.5" transform="matrix(0.7071 -0.7071 0.7071 0.7071 64.5993 282.6684)" class="st6" width="1.7" height="21.7"/>
				
					<rect x="374.3" y="50.1" transform="matrix(0.7071 -0.7071 0.7071 0.7071 66.9769 283.6532)" class="st6" width="3.2" height="21.7"/>
				
					<rect x="377.3" y="47.8" transform="matrix(0.7071 -0.7071 0.7071 0.7071 69.3127 284.6207)" class="st6" width="1.8" height="21.7"/>
				<g>
					<polygon class="st6" points="364,47.1 360.1,45.6 361.7,49.4 					"/>
					<polygon class="st6" points="364.8,47.7 362.3,50.2 364.5,55.5 370.5,49.6 					"/>
				</g>
				
					<rect x="380.6" y="69.4" transform="matrix(0.7071 -0.7071 0.7071 0.7071 63.2547 292.6395)" class="st6" width="8.5" height="1.1"/>
				
					<rect x="383.8" y="70.2" transform="matrix(0.7071 -0.7071 0.7071 0.7071 61.9304 295.8364)" class="st6" width="8.5" height="5.9"/>
			</g>
		</g>
		<line class="st8" x1="343.8" y1="22.1" x2="368.2" y2="22.1"/>
		<line class="st8" x1="343.8" y1="27.4" x2="368.2" y2="27.4"/>
		<line class="st8" x1="343.8" y1="33.2" x2="368.2" y2="33.2"/>
		<line class="st8" x1="343.8" y1="38.5" x2="368.2" y2="38.5"/>
	</g>
	<g>
		<circle class="st6" cx="282" cy="242.3" r="13.8"/>
		<g>
			<path class="st6" d="M282,306.9c-12.7,0-22.7-28.4-22.7-64.6s10-64.6,22.7-64.6c12.7,0,22.7,28.4,22.7,64.6
				S294.7,306.9,282,306.9z M282,180.3c-10.9,0-20.2,28.4-20.2,62s9.2,62,20.2,62c10.9,0,20.2-28.4,20.2-62S292.9,180.3,282,180.3z"
				/>
		</g>
		<g>
			<path class="st6" d="M282,265c-36.2,0-64.6-10-64.6-22.7c0-12.7,28.4-22.7,64.6-22.7c36.2,0,64.6,10,64.6,22.7
				C346.6,255,318.2,265,282,265z M282,222.2c-33.6,0-62,9.2-62,20.2s28.4,20.2,62,20.2c33.6,0,62-9.2,62-20.2
				S315.6,222.2,282,222.2z"/>
		</g>
		<g>
			<path class="st6" d="M319.6,290.8c-12.5,0-33.5-12.3-53.6-32.5l0,0c-12.1-12.1-21.8-25-27.5-36.4c-5.9-11.8-6.6-20.8-2.2-25.3
				c4.5-4.5,13.4-3.7,25.3,2.2c11.4,5.7,24.4,15.4,36.4,27.5c25.6,25.6,38.6,52.7,29.6,61.7C325.7,289.9,323,290.8,319.6,290.8z
				 M267.7,256.6c23.8,23.8,50.4,37.3,58.1,29.6c7.7-7.7-5.8-34.3-29.6-58.1c-11.9-11.9-24.6-21.4-35.8-27
				c-10.6-5.3-18.8-6.2-22.4-2.6c-3.6,3.6-2.6,11.7,2.6,22.4C246.3,232,255.9,244.7,267.7,256.6L267.7,256.6z"/>
		</g>
		<g>
			<path class="st6" d="M244.4,290.8c-3.4,0-6.2-0.9-8.1-2.8c-9-9,4-36.1,29.6-61.7l0,0l0,0c12-12.1,25-21.8,36.4-27.5
				c11.8-5.8,20.8-6.6,25.3-2.2c4.5,4.5,3.7,13.4-2.2,25.3c-5.7,11.4-15.4,24.4-27.5,36.4C277.9,278.5,256.9,290.8,244.4,290.8z
				 M319.5,196.3c-4.1,0-9.6,1.6-16,4.8c-11.2,5.5-23.9,15.1-35.8,27l0,0c-23.8,23.8-37.3,50.4-29.6,58.1
				c7.7,7.7,34.3-5.8,58.1-29.6c11.9-11.9,21.4-24.6,27-35.8c5.3-10.6,6.2-18.8,2.6-22.4C324.4,197,322.3,196.3,319.5,196.3z"/>
		</g>
		<circle class="st6" cx="239.1" cy="196.5" r="6.9"/>
		<circle class="st6" cx="327.1" cy="214.5" r="6.9"/>
		<circle class="st6" cx="226.2" cy="252.6" r="6.9"/>
		<circle class="st6" cx="293" cy="296.8" r="6.9"/>
	</g>
	<g>
		<g>
			<path class="st6" d="M61.6,39.2c-2.2,0-4.2-1.4-5-3.5C56,34,56.4,32,57.5,30.6c0-0.1,0-0.1,0-0.1c0,0,0,0,0,0
				c-0.1,0-0.2-0.1-0.4-0.1l-9.4,3.5l-3.5-9.5c-0.2-0.6-0.1-1.5,0.3-2c0.3-0.4,0.8-0.7,1.3-0.7c0.3,0,0.6,0.1,1,0.3l0.1,0l0.1,0
				c0.8,0.7,1.8,1,2.9,1c0.5,0,1-0.1,1.5-0.3c2.3-0.9,3.5-3.4,2.6-5.7c-0.6-1.7-2.3-2.9-4.2-2.9c-0.5,0-1,0.1-1.5,0.3
				c-1.6,0.6-2.7,2-2.9,3.6l0,0.2l-0.1,0.2c-0.4,0.5-0.9,0.8-1.5,0.8c-0.8,0-1.6-0.5-1.9-1.3l-3.5-9.3L39,8.2
				c0.2-0.1,0.4-0.2,0.6-0.2l18.6-6.9c0.6-0.2,1.3-0.4,2-0.4c2.4,0,4.7,1.5,5.5,3.8l6.9,18.6c0.1,0.2,0.2,0.5,0.2,0.7l0.1,0.6
				l-10.3,3.8c0,0-0.1,0.1-0.1,0.2c0,0,0,0.1,0,0.1c1.9,0.3,3.4,1.6,4,3.4c1,2.7-0.4,5.8-3.1,6.8C62.9,39.1,62.3,39.2,61.6,39.2
				C61.6,39.2,61.6,39.2,61.6,39.2z"/>
			<path class="st2" d="M60.2,1.5c2.1,0,4,1.3,4.8,3.3l6.9,18.6c0.1,0.2,0.1,0.4,0.2,0.6l-9.7,3.6c-0.7,0.3-0.8,1.2-0.2,1.7
				c1.6,0.2,3.1,1.3,3.7,2.9c0.9,2.4-0.3,5-2.7,5.8c-0.5,0.2-1.1,0.3-1.6,0.3c-1.8,0-3.6-1.1-4.3-3c-0.6-1.6-0.2-3.3,0.8-4.5
				c0.5-0.9-0.4-1.3-1-1.3c-0.1,0-0.1,0-0.2,0l-8.8,3.2c-1.1-3-3.1-8.3-3.2-8.8c-0.2-0.5,0.1-1.7,0.9-1.7c0.2,0,0.4,0.1,0.6,0.2
				c0.9,0.8,2.1,1.2,3.4,1.2c0.6,0,1.2-0.1,1.8-0.3c2.7-1,4.1-4,3.1-6.7c-0.8-2.1-2.8-3.4-4.9-3.4c-0.6,0-1.2,0.1-1.8,0.3
				c-1.9,0.7-3.1,2.4-3.4,4.3c-0.2,0.3-0.6,0.5-0.9,0.5c-0.5,0-1-0.3-1.1-0.8c-0.3-0.8-2.3-6.3-3.2-8.7c0.2-0.1,0.3-0.2,0.5-0.2
				l18.6-6.9C59,1.6,59.6,1.5,60.2,1.5 M60.2,0c-0.8,0-1.5,0.1-2.3,0.4L39.3,7.3c-0.2,0.1-0.4,0.2-0.6,0.3l-1.2,0.6l0.5,1.3l1.7,4.7
				l1.5,4c0.4,1.1,1.4,1.8,2.6,1.8c0.8,0,1.6-0.4,2.1-1l0.2-0.3l0-0.4c0.2-1.4,1.1-2.6,2.4-3c0.4-0.2,0.8-0.2,1.3-0.2
				c1.5,0,2.9,1,3.5,2.4c0.7,1.9-0.3,4.1-2.2,4.8c-0.4,0.2-0.8,0.2-1.3,0.2c-0.9,0-1.7-0.3-2.4-0.9l-0.1-0.1l-0.1-0.1
				c-0.4-0.2-0.9-0.4-1.3-0.4c-0.7,0-1.4,0.4-1.9,1c-0.5,0.8-0.7,1.9-0.4,2.7l3.2,8.8l0.5,1.4l1.4-0.5l7.3-2.7
				C55.5,33,55.5,34.6,56,36c0.9,2.4,3.2,3.9,5.7,3.9c0.7,0,1.4-0.1,2.1-0.4c3.1-1.2,4.7-4.6,3.6-7.8c-0.5-1.4-1.6-2.6-2.9-3.3
				l8.2-3l1.2-0.5l-0.3-1.3c-0.1-0.3-0.1-0.6-0.2-0.8L66.4,4.3C65.5,1.7,63,0,60.2,0L60.2,0z"/>
		</g>
		<g>
			<g>
				<path class="st6" d="M1.6,42.5l-0.1-0.7c0-0.2,0-0.4,0-0.6V21.3c0-3.2,2.6-5.9,5.8-5.9h19.9c0.3,0,0.5,0,0.8,0.1l0.6,0.1v11
					c0,0.1,0.1,0.2,0.3,0.2c0,0,0,0,0,0c0.9-1.6,2.7-2.6,4.6-2.6c2.9,0,5.3,2.4,5.3,5.3c0,2.9-2.4,5.3-5.3,5.3c-1.9,0-3.6-1-4.6-2.6
					c0,0-0.1-0.1-0.1-0.1c0,0-0.1,0.2-0.2,0.4v10H1.6z"/>
				<path class="st2" d="M27.2,16.2c0.2,0,0.4,0,0.7,0v10.4c0.1,0.5,0.5,0.9,1,0.9c0.2,0,0.4-0.1,0.5-0.2c0.8-1.5,2.3-2.5,4-2.5
					c2.5,0,4.5,2,4.5,4.6c0,2.5-2,4.6-4.5,4.6c-1.7,0-3.2-0.9-3.9-2.3c-0.2-0.3-0.4-0.4-0.6-0.4c-0.5,0-0.9,0.6-1,1v9.4
					c-1.1,0-2.6,0-4.1,0c-2.5,0-5,0-5.3,0h-7c-0.4,0-2.1,0-4,0c-1.9,0-3.9,0-5.2,0c0-0.2,0-0.4,0-0.5V21.3c0-2.8,2.3-5.1,5.1-5.1
					H27.2 M27.2,14.7H7.3c-3.6,0-6.6,3-6.6,6.6v19.9c0,0.2,0,0.5,0,0.7l0.1,1.3h1.3h5.2h4h7h5.3h4.1h1.5v-1.5v-7.9
					c1.1,1,2.6,1.6,4.1,1.6c3.3,0,6-2.7,6-6.1c0-3.3-2.7-6.1-6-6.1c-1.5,0-3,0.6-4.1,1.6v-8.8v-1.3L28,14.7
					C27.8,14.7,27.5,14.7,27.2,14.7L27.2,14.7z"/>
			</g>
			<g>
				<path class="st6" d="M7.3,68.3c-3.2,0-5.9-2.6-5.9-5.8V42.6c0-0.3,0-0.5,0-0.8l0.1-0.7h11c0,0,0.1-0.1,0.2-0.2c0,0,0-0.1,0-0.1
					c-1.6-0.9-2.6-2.7-2.6-4.6c0-2.9,2.4-5.3,5.3-5.3s5.3,2.4,5.3,5.3c0,1.9-1,3.6-2.6,4.6c0,0-0.1,0.1-0.1,0.1c0,0,0.2,0.1,0.4,0.2
					h10.1v27l-0.7,0.1c-0.2,0-0.4,0-0.6,0H7.3z"/>
				<path class="st2" d="M15.4,31.8c2.5,0,4.6,2,4.6,4.5c0,1.7-0.9,3.2-2.3,3.9c-0.9,0.8,0.1,1.5,0.7,1.6h9.4c0,1.1,0,2.6,0,4.1
					c0,2.5,0,5,0,5.3v7c0,0.4,0,2.1,0,4c0,1.9,0,3.9,0,5.2c-0.2,0-0.4,0-0.5,0H7.3c-2.8,0-5.1-2.3-5.1-5.1V42.6c0-0.2,0-0.4,0-0.7
					h10.4c0.7-0.1,1.2-0.9,0.8-1.5c-1.5-0.8-2.5-2.3-2.5-4C10.9,33.9,12.9,31.8,15.4,31.8 M15.4,30.3c-3.3,0-6.1,2.7-6.1,6
					c0,1.5,0.6,3,1.6,4.1H2.2H0.9l-0.2,1.3c0,0.3-0.1,0.6-0.1,0.9v19.9c0,3.6,3,6.6,6.6,6.6h19.9c0.2,0,0.5,0,0.7,0l1.3-0.1v-1.3
					v-5.2v-4v-7V46V42v-1.5h-1.5h-7.9c1-1.1,1.6-2.6,1.6-4.1C21.5,33.1,18.8,30.3,15.4,30.3L15.4,30.3z"/>
			</g>
			<g>
				<path class="st6" d="M28.7,68.3c-0.3,0-0.5,0-0.8-0.1l-0.6-0.1v-11c0-0.1-0.1-0.2-0.3-0.2c0,0,0,0,0,0c-0.9,1.6-2.7,2.6-4.6,2.6
					c-2.9,0-5.3-2.4-5.3-5.3c0-2.9,2.4-5.3,5.3-5.3c1.9,0,3.6,1,4.6,2.6c0,0,0.1,0.1,0.1,0.1c0,0,0.1-0.2,0.2-0.4v-10h11l0.2,0.1
					c0.5,0.3,0.8,0.8,0.9,1.3c0,0.3-0.1,0.8-0.6,1.3l-0.1,0l-0.1,0c-1.2,0.7-1.9,1.9-1.9,3.3c0,2.1,1.7,3.8,3.8,3.8
					c2.1,0,3.8-1.7,3.8-3.8c0-1.4-0.8-2.7-2.1-3.4L42,43.9l-0.1-0.2c-0.5-0.8-0.3-1.8,0.4-2.3l0.2-0.2h11.8l0.1,0.7
					c0,0.2,0,0.4,0,0.6v19.9c0,3.2-2.6,5.9-5.8,5.9H28.7z"/>
				<path class="st2" d="M53.6,42c0,0.2,0,0.4,0,0.5v19.9c0,2.8-2.3,5.1-5.1,5.1H28.7c-0.2,0-0.4,0-0.7,0V57.2
					c-0.1-0.5-0.5-0.9-1-0.9c-0.2,0-0.4,0.1-0.5,0.2c-0.8,1.5-2.3,2.5-4,2.5c-2.5,0-4.5-2-4.5-4.6c0-2.5,2-4.6,4.5-4.6
					c1.7,0,3.2,0.9,3.9,2.3c0.2,0.3,0.4,0.4,0.6,0.4c0.5,0,0.9-0.6,1-1V42c1.1,0,2.6,0,4.1,0c2.5,0,5,0,5.3,0H38
					c0.5,0.3,0.8,0.9,0.2,1.4c-1.4,0.8-2.3,2.3-2.3,3.9c0,2.5,2,4.5,4.5,4.5s4.5-2,4.5-4.5c0-1.8-1-3.3-2.5-4
					c-0.3-0.5-0.1-1,0.2-1.3h1.6c0.4,0,2.1,0,4,0C50.3,42,52.3,42,53.6,42 M55,40.5h-1.3h-5.2h-4h-1.6h-0.5l-0.4,0.3
					c-1,0.8-1.3,2.2-0.6,3.3l0.2,0.3l0.4,0.2c1,0.5,1.7,1.6,1.7,2.7c0,1.7-1.4,3-3,3c-1.7,0-3-1.4-3-3c0-1.1,0.6-2.1,1.5-2.6
					l0.1-0.1l0.1-0.1c0.8-0.7,0.9-1.5,0.9-1.9c0-0.7-0.5-1.4-1.2-1.9l-0.4-0.2H38h-0.6h-5.3H28h-1.5V42v7.9c-1.1-1-2.6-1.6-4.1-1.6
					c-3.3,0-6,2.7-6,6.1c0,3.3,2.7,6.1,6,6.1c1.5,0,3-0.6,4.1-1.6v8.8v1.3l1.3,0.2c0.3,0,0.6,0.1,0.9,0.1h19.9c3.6,0,6.6-3,6.6-6.6
					V42.5c0-0.2,0-0.5,0-0.7L55,40.5L55,40.5z"/>
			</g>
		</g>
	</g>
	<g>
		<g>
			<line class="st3" x1="134.7" y1="236.7" x2="133.7" y2="236.7"/>
			<line class="st9" x1="129.6" y1="236.7" x2="38.8" y2="236.7"/>
			<polyline class="st3" points="36.8,236.7 35.8,236.7 35.8,237.7 			"/>
			<line class="st10" x1="35.8" y1="241.6" x2="35.8" y2="263.1"/>
			<line class="st3" x1="35.8" y1="265" x2="35.8" y2="266"/>
			<g>
				<circle class="st6" cx="134.5" cy="236.7" r="3.8"/>
			</g>
			<g>
				<circle class="st6" cx="35.8" cy="265.8" r="3.8"/>
			</g>
		</g>
	</g>
</g>
</svg>
