<?xml version="1.0" encoding="utf-8"?>
<!-- Generator: Adobe Illustrator 21.0.1, SVG Export Plug-In . SVG Version: 6.00 Build 0)  -->
<svg version="1.1" id="Layer_1" xmlns="http://www.w3.org/2000/svg" xmlns:xlink="http://www.w3.org/1999/xlink" x="0px" y="0px"
	 viewBox="0 0 30.6 30.6" style="enable-background:new 0 0 30.6 30.6;" xml:space="preserve">
<style type="text/css">
	.st0{fill:#FFFBE7;}
	.st1{fill:#404040;}
</style>
<g>
	<g>
		<path class="st0" d="M15.3,0C6.9,0,0,6.9,0,15.3c0,8.5,6.9,15.3,15.3,15.3c8.5,0,15.3-6.9,15.3-15.3C30.6,6.9,23.8,0,15.3,0z"/>
		<path class="st1" d="M20,9.2h-1.7c-0.8,0-1.7,0.6-1.7,1.3V13h3.1v3.5h-3.1v8.9h-3.8v-8.9H9.6V13h3.1V9.6c0-2.1,1.9-3.7,3.6-3.7H20
			V9.2z"/>
	</g>
	<g>
		<path class="st0" d="M58.7,0c-8.5,0-15.3,6.9-15.3,15.3c0,8.5,6.9,15.3,15.3,15.3c8.5,0,15.3-6.9,15.3-15.3C74,6.9,67.2,0,58.7,0z
			"/>
		<g>
			<path class="st1" d="M67.1,12.7c-1.4,8.3-7.7,11.7-13.6,10.3c-2.4-0.6-4.4-1.9-5.9-3.7c1.8,0.1,3.5-0.3,5.1-1
				c-1.6-1.2-1.2-4-1.2-4s0.8,0.7,1.5,0.4C51,12,53.2,9.3,53.2,9.3c0.7,2,2.5,3.6,4.1,4.6c-0.3-0.8-0.3-1.8-0.1-2.7
				c0.6-2.7,3.4-4.4,6.1-3.7c1.2,0.3,2.1,0.9,2.8,1.8c0.3,0,2.9-0.1,2.9-0.1L67,10.9l2.4,0.6L67.1,12.7z"/>
			<ellipse transform="matrix(0.2315 -0.9728 0.9728 0.2315 39.2383 69.3871)" class="st0" cx="63.5" cy="9.9" rx="0.9" ry="0.9"/>
		</g>
	</g>
	<g>
		<path class="st0" d="M102.7,0c-8.5,0-15.3,6.9-15.3,15.3c0,8.5,6.9,15.3,15.3,15.3c8.5,0,15.3-6.9,15.3-15.3
			C118,6.9,111.2,0,102.7,0z"/>
		<g>
			<path class="st1" d="M106.5,24.5H99c-2.9,0-5.3-2.4-5.3-5.3v-8c0-2.9,2.4-5.3,5.3-5.3h7.6c2.9,0,5.3,2.4,5.3,5.3v8
				C111.8,22.1,109.4,24.5,106.5,24.5z M106.5,23.1c1,0,2-0.4,2.7-1.1c0.7-0.7,1.1-1.7,1.1-2.7v-8c0-1-0.4-2-1.1-2.7
				c-0.7-0.7-1.7-1.1-2.7-1.1H99c-1,0-2,0.4-2.7,1.1s-1.1,1.7-1.1,2.7v8c0,1,0.4,2,1.1,2.7c0.7,0.7,1.7,1.1,2.7,1.1H106.5z"/>
			<path class="st1" d="M107.7,15.1c0,2.7-2.2,5-5,5s-5-2.2-5-5s2.2-5,5-5S107.7,12.4,107.7,15.1z M102.7,11.9
				c-1.8,0-3.3,1.5-3.3,3.3s1.5,3.3,3.3,3.3c1.8,0,3.3-1.5,3.3-3.3S104.5,11.9,102.7,11.9z"/>
			<circle class="st1" cx="107.8" cy="10.1" r="1.2"/>
		</g>
	</g>
</g>
</svg>
