<?xml version="1.0" encoding="utf-8"?>
<!-- Generator: Adobe Illustrator 21.0.1, SVG Export Plug-In . SVG Version: 6.00 Build 0)  -->
<svg version="1.1" id="Layer_1" xmlns="http://www.w3.org/2000/svg" xmlns:xlink="http://www.w3.org/1999/xlink" x="0px" y="0px"
	 viewBox="0 0 91.3 91.3" style="enable-background:new 0 0 91.3 91.3;" xml:space="preserve">
<style type="text/css">
	.st0{fill:#404040;}
</style>
<path class="st0" d="M91.3,55.9V35.4H79.8c-0.7-2.3-1.6-4.6-2.8-6.7l8.1-8.1L70.7,6.1l-8.1,8.1c-2.1-1.1-4.3-2.1-6.7-2.8V0H35.4
	v11.5c-2.3,0.7-4.6,1.6-6.7,2.8l-8.1-8.1L6.1,20.6l8.1,8.1c-1.1,2.1-2.1,4.3-2.8,6.7H0v20.5h11.5c0.7,2.3,1.6,4.6,2.8,6.7l-8.1,8.1
	l14.5,14.5l8.1-8.1c2.1,1.1,4.3,2.1,6.7,2.8v11.5h20.5V79.8c2.3-0.7,4.6-1.6,6.7-2.8l8.1,8.1l14.5-14.5l-8.1-8.1
	c1.1-2.1,2.1-4.3,2.8-6.7H91.3z M45.6,63.6c-9.9,0-18-8-18-18c0-9.9,8-18,18-18c9.9,0,18,8,18,18C63.6,55.6,55.6,63.6,45.6,63.6z"/>
</svg>
