<?xml version="1.0" encoding="utf-8"?>
<!-- Generator: Adobe Illustrator 21.0.1, SVG Export Plug-In . SVG Version: 6.00 Build 0)  -->
<svg version="1.1" id="Layer_1" xmlns="http://www.w3.org/2000/svg" xmlns:xlink="http://www.w3.org/1999/xlink" x="0px" y="0px"
	 viewBox="0 0 589.9 348.3" style="enable-background:new 0 0 589.9 348.3;" xml:space="preserve">
<style type="text/css">
	.st0{opacity:0.25;fill:url(#SVGID_1_);}
	.st1{fill:url(#SVGID_2_);}
	.st2{fill:#FFFBE7;}
	.st3{fill:url(#SVGID_3_);stroke:#404040;stroke-width:6;stroke-miterlimit:10;}
	.st4{fill:#404040;}
	.st5{opacity:0.25;fill:url(#SVGID_4_);}
	.st6{fill:#7DC387;}
	.st7{fill:#7DC387;stroke:#404040;stroke-width:5;stroke-miterlimit:10;}
	.st8{fill:none;}
	.st9{opacity:0.25;fill:url(#SVGID_5_);}
	.st10{fill:url(#SVGID_6_);}
	.st11{opacity:0.25;fill:url(#SVGID_7_);}
	.st12{fill:#FFC97F;}
	.st13{fill-rule:evenodd;clip-rule:evenodd;fill:#404040;}
	.st14{fill-rule:evenodd;clip-rule:evenodd;fill:#FFFBE7;}
</style>
<g>
	<g>
		
			<radialGradient id="SVGID_1_" cx="237.3188" cy="-12594.2334" r="110.4676" gradientTransform="matrix(0.8394 0 0 0.2532 -67.4343 3436.5879)" gradientUnits="userSpaceOnUse">
			<stop  offset="0" style="stop-color:#000000"/>
			<stop  offset="1" style="stop-color:#000000;stop-opacity:0"/>
		</radialGradient>
		<ellipse class="st0" cx="131.8" cy="247.2" rx="92.7" ry="28"/>
		<linearGradient id="SVGID_2_" gradientUnits="userSpaceOnUse" x1="54.0023" y1="243.6517" x2="190.959" y2="106.6949">
			<stop  offset="0" style="stop-color:#BF5E4F"/>
			<stop  offset="0.997" style="stop-color:#E97269"/>
		</linearGradient>
		<path class="st1" d="M139.3,85.3c-40.4,0-73.1,32.7-73.1,73.1c0,20.2,8.2,38.5,21.5,51.8l-21.5,45.7l49.6-28.3
			c7.4,2.5,15.2,3.9,23.4,3.9c40.4,0,73.1-32.7,73.1-73.1C212.4,118,179.6,85.3,139.3,85.3z"/>
		<g>
			<path class="st2" d="M167.1,138.8c0,19.5-21.3,18.4-21.3,31.2v2.3h-19v-3c0-20.8,18.2-19.6,18.2-28.4c0-3.7-2.6-5.7-7.1-5.7
				c-4.5,0-9,2.4-13.2,6.9l-13.2-10.5c6.7-7.9,15.7-13,28.7-13C158.2,118.5,167.1,127.9,167.1,138.8z M148,194.1
				c0,6.3-5.1,11.4-11.5,11.4c-6.3,0-11.4-5.1-11.4-11.4c0-6.3,5.1-11.5,11.4-11.5C142.9,182.6,148,187.8,148,194.1z"/>
		</g>
		<linearGradient id="SVGID_3_" gradientUnits="userSpaceOnUse" x1="29.7034" y1="167.1003" x2="101.1004" y2="95.7032">
			<stop  offset="0" style="stop-color:#BF5E4F"/>
			<stop  offset="0.997" style="stop-color:#E97269"/>
		</linearGradient>
		<path class="st3" d="M93.9,149.8c7.8-10.4,11.6-23.7,9.6-37.5c-4-27.6-29.6-46.7-57.2-42.7c-27.6,4-46.7,29.6-42.7,57.2
			c4,27.6,29.6,46.7,57.2,42.7c5.6-0.8,10.9-2.5,15.7-5l36.7,14.4L93.9,149.8z"/>
		<g>
			<circle class="st4" cx="33.5" cy="119.9" r="5.8"/>
			<circle class="st4" cx="53.3" cy="119.9" r="5.8"/>
			<circle class="st4" cx="73.2" cy="119.9" r="5.8"/>
		</g>
	</g>
	<g>
		
			<radialGradient id="SVGID_4_" cx="511.1039" cy="-12305.3281" r="110.4676" gradientTransform="matrix(0.8394 0 0 0.2532 -67.4343 3436.5879)" gradientUnits="userSpaceOnUse">
			<stop  offset="0" style="stop-color:#000000"/>
			<stop  offset="1" style="stop-color:#000000;stop-opacity:0"/>
		</radialGradient>
		<ellipse class="st5" cx="361.6" cy="320.3" rx="92.7" ry="28"/>
		<g>
			<path class="st6" d="M448.6,241.7v-37.1h-20.7c-1.3-4.2-2.9-8.3-5-12.1l14.7-14.7l-26.3-26.3l-14.7,14.7c-3.8-2.1-7.8-3.7-12.1-5
				v-20.7h-37.1v20.7c-4.2,1.3-8.3,2.9-12.1,5l-14.7-14.7l-26.3,26.3l14.7,14.7c-2.1,3.8-3.7,7.8-5,12.1h-20.8v37.1h20.8
				c1.3,4.2,2.9,8.3,5,12.1l-14.7,14.7l26.3,26.3l14.7-14.7c3.8,2.1,7.8,3.7,12.1,5v20.7h37.1V285c4.2-1.3,8.3-2.9,12.1-5l14.7,14.7
				l26.3-26.3l-14.7-14.7c2.1-3.8,3.7-7.8,5-12.1H448.6z"/>
			<circle class="st4" cx="366" cy="223.1" r="32.5"/>
		</g>
		<path class="st7" d="M348.4,297.9v-19.8h-11c-0.7-2.2-1.6-4.4-2.7-6.4l7.8-7.8l-14-14l-7.8,7.8c-2-1.1-4.2-2-6.4-2.7v-11h-19.8v11
			c-2.2,0.7-4.4,1.6-6.4,2.7l-7.8-7.8l-14,14l7.8,7.8c-1.1,2-2,4.2-2.7,6.4h-11v19.8h11c0.7,2.2,1.6,4.4,2.7,6.4l-7.8,7.8l14,14
			l7.8-7.8c2,1.1,4.2,2,6.4,2.7v11h19.8v-11c2.2-0.7,4.4-1.6,6.4-2.7l7.8,7.8l14-14l-7.8-7.8c1.1-2,2-4.2,2.7-6.4H348.4z"/>
		<g>
			<path class="st8" d="M469.3,199.9"/>
		</g>
		<circle class="st4" cx="304.5" cy="288.1" r="12.3"/>
	</g>
	<g>
		
			<radialGradient id="SVGID_5_" cx="404.5899" cy="-12805.5752" r="110.4676" gradientTransform="matrix(0.8394 0 0 0.2532 -67.4343 3436.5879)" gradientUnits="userSpaceOnUse">
			<stop  offset="0" style="stop-color:#000000"/>
			<stop  offset="1" style="stop-color:#000000;stop-opacity:0"/>
		</radialGradient>
		<ellipse class="st9" cx="272.2" cy="193.6" rx="92.7" ry="28"/>
		<linearGradient id="SVGID_6_" gradientUnits="userSpaceOnUse" x1="208.3292" y1="163.0304" x2="332.1114" y2="39.2482">
			<stop  offset="0" style="stop-color:#46809A"/>
			<stop  offset="0.997" style="stop-color:#5DBFC3"/>
		</linearGradient>
		<path class="st10" d="M330.8,63.7c0-35.2-29.5-63.7-66-63.7c-36.1,0-65.4,28-66,62.7h-0.3v11.5l-20.3,41.4h20.3v15.5v16.1v6.2
			h50.7v35.4h67.8v-86.3C325.7,91.7,330.8,78.3,330.8,63.7z"/>
		<g>
			<ellipse class="st2" cx="237.4" cy="40.5" rx="18.5" ry="17.8"/>
			<ellipse class="st2" cx="263.5" cy="36.3" rx="18.5" ry="17.8"/>
			<ellipse class="st2" cx="293.5" cy="42.8" rx="18.5" ry="17.8"/>
			<ellipse class="st2" cx="282" cy="65.6" rx="18.5" ry="17.8"/>
			<ellipse class="st2" cx="256.5" cy="61.9" rx="18.5" ry="17.8"/>
			<ellipse class="st2" cx="226.4" cy="69.5" rx="9.2" ry="8.9"/>
			<ellipse class="st2" cx="230.2" cy="84.4" rx="3.9" ry="3.7"/>
		</g>
	</g>
	<g>
		
			<radialGradient id="SVGID_7_" cx="660.0579" cy="-12771.3945" r="110.4676" gradientTransform="matrix(0.8394 0 0 0.2532 -67.4343 3436.5879)" gradientUnits="userSpaceOnUse">
			<stop  offset="0" style="stop-color:#000000"/>
			<stop  offset="1" style="stop-color:#000000;stop-opacity:0"/>
		</radialGradient>
		<ellipse class="st11" cx="486.6" cy="202.3" rx="92.7" ry="28"/>
		<g>
			<path class="st12" d="M421,57.7l-24.3-2.2l13.9,19.7C413.3,68.9,416.8,63,421,57.7z"/>
			<path class="st12" d="M508.2,5.8l-14.9,19.9c7.1,0.6,13.9,2,20.4,4.3L508.2,5.8z"/>
			<path class="st12" d="M447.1,35.4l-21.6-12.1l4.8,24.1C435.4,42.8,441,38.7,447.1,35.4z"/>
			<path class="st12" d="M547.7,23.4l-21.6,12.1c6.1,3.3,11.7,7.4,16.8,12L547.7,23.4z"/>
			<path class="st12" d="M403.5,108.5c0-6.8,0.8-13.4,2.4-19.7l-22.6,7.7L403.5,108.5C403.5,108.6,403.5,108.6,403.5,108.5z"/>
			<path class="st12" d="M589.9,96.5l-22.6-7.7c1.5,6.3,2.4,12.9,2.4,19.7c0,0,0,0,0,0L589.9,96.5z"/>
			<path class="st12" d="M576.6,55.5l-24.3,2.2c4.1,5.3,7.7,11.2,10.4,17.5L576.6,55.5z"/>
			<path class="st12" d="M465,5.8L459.5,30c6.5-2.2,13.3-3.7,20.4-4.3L465,5.8z"/>
			<path class="st12" d="M528.9,202.3l0.3-22.4c-5.3,3.2-11,5.8-17.1,7.7L528.9,202.3z"/>
			<path class="st12" d="M542.2,170.2l21.6,6.7l-9-21C551.2,161.2,546.9,166,542.2,170.2z"/>
			<path class="st12" d="M562.5,142.2l22.8-2.7l-17.1-15.8C567.1,130.2,565.2,136.4,562.5,142.2z"/>
			<path class="st12" d="M477.3,191.1l9.3,20.2l9.3-20.2c-3.1,0.3-6.2,0.5-9.3,0.5C483.5,191.6,480.4,191.4,477.3,191.1z"/>
			<path class="st12" d="M404.9,123.7l-17.1,15.8l22.8,2.7C408.1,136.4,406.1,130.2,404.9,123.7z"/>
			<path class="st12" d="M418.4,155.9l-9,21l21.6-6.7C426.3,166,422.1,161.2,418.4,155.9z"/>
			<path class="st12" d="M444.4,202.3l16.8-14.7c-6-1.9-11.7-4.5-17.1-7.7L444.4,202.3z"/>
			<circle class="st12" cx="486.6" cy="108.5" r="72.7"/>
		</g>
		<g>
			<g>
				<path class="st4" d="M527.4,86c-2.1,0.8-4.2,1.5-6.3,2.3c-1.3,0.5-1.4,3.1-0.1,7.4c1.1,3.7,3.5,11,5.5,15.1
					c1.7,3.7,3.1,4.2,3.7,4.2l0,0c0.2,0,0.3,0,0.5-0.1c2.1-0.8,4.2-1.5,6.3-2.3c0,0,0.1-0.1,0-0.1L527.4,86
					C527.5,86,527.5,86,527.4,86z"/>
				<path class="st2" d="M447,86C446.9,86,446.9,86,447,86l-9.6,26.6c0,0,0,0.1,0,0.1c2.1,0.8,4.2,1.5,6.2,2.3
					c0.2,0.1,0.3,0.1,0.5,0.1c0.6,0,1.9-0.5,3.7-4.2c1.9-4.1,4.4-11.4,5.5-15.1c1.3-4.3,1.3-6.9,0-7.4C451.2,87.5,449.1,86.7,447,86
					C447,86,447,86,447,86z"/>
				<path class="st13" d="M482.5,134.8L482.5,134.8c1.1,1.1,1.1,3,0,4.1l-1.8,1.8c-1.1,1.1-3,1.1-4.1,0l0,0c-1.1-1.1-1.1-3,0-4.1
					l1.8-1.8C479.5,133.6,481.4,133.6,482.5,134.8L482.5,134.8z"/>
				<path class="st13" d="M478.8,127.3L478.8,127.3c1.1,1.1,1.1,3,0,4.1l-5.9,5.9c-1.1,1.1-3,1.1-4.1,0l0,0c-1.1-1.1-1.1-3,0-4.2
					l5.9-5.9C475.8,126.1,477.7,126.1,478.8,127.3L478.8,127.3z"/>
				<path class="st13" d="M472.4,122.4L472.4,122.4c1.1,1.1,1.1,3,0,4.1l-4.7,4.7c-1.1,1.1-3,1.1-4.1,0l0,0c-1.1-1.1-1.1-3,0-4.2
					l4.7-4.7C469.4,121.3,471.3,121.3,472.4,122.4L472.4,122.4z"/>
				<path class="st13" d="M465.4,118.2L465.4,118.2c1.1,1.1,1.1,3,0,4.1l-2.4,2.4c-1.1,1.1-3,1.1-4.1,0l0,0c-1.1-1.1-1.1-3,0-4.2
					l2.4-2.4C462.4,117,464.3,117,465.4,118.2L465.4,118.2z"/>
				<g>
					<path class="st4" d="M488.4,90.6c-5.1,1.4-10.4,2.8-11.5,5c-0.5,1-1.4,3.4-2.2,6c-1.1,3.3-2.2,7-2.7,8.5
						c0.6,0.5,1.9,1.4,3.5,1.4c0.1,0,0.2,0,0.2,0c0.1,0,0.1,0,0.2,0c0.1,0,0.3,0,0.4-0.1c0.1,0,0.3-0.1,0.4-0.1c0,0,0,0,0,0
						c4.2-1.4,5.8-7.2,5.6-11c0-0.6,0.4-1.1,1-1.1c0.6,0,1.1,0.4,1.1,1c0,0.4,0,0.7,0,1.1c7.6,4.7,13.1,6.8,18.5,4
						c0.5-0.3,1.2-0.1,1.5,0.5c0.3,0.5,0.1,1.2-0.5,1.5c-1.8,0.9-3.6,1.4-5.4,1.5l0,0c3.6,3.5,7,7,10.5,10.4
						c1.2,1.2,2.4,2.4,3.5,3.6c0.2,0.2,0.4,0.4,0.6,0.7c0.1-0.1,0.2-0.2,0.4-0.4c2-1.9,6.5-6.3,12.5-7.4c-3.9-8.5-6.6-16.1-8.1-23
						c-1.4,0.6-3.7,1.3-6.7,1.3c-1.3,0-2.5-0.1-3.8-0.4c-2.1-0.4-4.1-1-6-1.6c-3.2-1-6.2-1.9-9-1.9c-1.1,0-2,0.1-2.9,0.4L488.4,90.6
						z"/>
				</g>
				<g>
					<path class="st14" d="M487.8,138.1c-0.8-0.8-1.6-1.5-2.4-2.3c0.1,0.4,0.2,0.8,0.2,1.3c0,1.4-0.5,2.6-1.5,3.6l-0.3,0.3
						c0.5,0.4,1,0.8,1.6,1.1c2,1.3,4,2.1,5.4,2.1c0.6,0,1-0.1,1.2-0.4c0.3-0.3,0.4-0.9,0.3-1.6C490.8,140.9,489.3,139.5,487.8,138.1
						z"/>
					<path class="st14" d="M511,124.2c-1.2-1.2-2.3-2.4-3.5-3.6c-4-4.1-8.1-8.2-12.3-12.2c-3.4-0.6-6.9-2.3-10.9-4.7
						c-0.7,4-2.9,8.7-7.5,9.8c-0.5,0.1-1,0.2-1.5,0.2c-3.1,0-5.3-2.4-5.4-2.5c-0.2-0.3-0.3-0.7-0.2-1c0.2-0.5,3.8-12.6,5.2-15.5
						c0.2-0.4,0.5-0.8,0.9-1.2c-1.4-0.4-2.7-0.6-4.2-0.6c-1.4,0-2.9,0.2-4.6,0.5c-1.3,0.3-2.5,0.4-3.8,0.4l0,0c-3,0-5.4-0.7-6.7-1.3
						c-1.8,7.8-4.5,15.3-8.1,23c3.5,0.6,6.4,2.4,8.7,4.1c0.1-0.1,0.2-0.2,0.3-0.3l2.4-2.4c1-1,2.2-1.5,3.6-1.5
						c1.4,0,2.6,0.5,3.6,1.5c0.9,0.9,1.4,2,1.5,3.1c0.6-0.2,1.2-0.4,1.9-0.4c1.4,0,2.6,0.5,3.6,1.5c0.9,0.9,1.5,2.2,1.5,3.5
						c0.4-0.1,0.9-0.2,1.3-0.2c1.4,0,2.6,0.5,3.6,1.5c0.9,0.9,1.5,2.2,1.5,3.6c0,0,0,0.1,0,0.1c0.2,0,0.3,0.1,0.5,0.3
						c1.1,1,5.8,5.5,9,8.4l2.5,2.3c0,0,0.1,0.1,0.1,0.1c0,0,0.1,0.1,0.1,0.1c0.4,0.4,0.8,0.8,1.2,1.1c1,0.7,2,1,2.9,1
						c1,0,1.8-0.4,2.3-1.1c0.4-0.7,0.5-1.5,0.1-2.4l-13.5-13.5c-0.4-0.4-0.4-1.1,0-1.5c0.4-0.4,1.1-0.4,1.5,0l12.7,12.8
						c0,0,0.1,0,0.1,0.1h0c0,0,0,0,0,0c0.2,0.2,0.4,0.4,0.7,0.7c0.4,0.2,0.9,0.3,1.4,0.3c1.2,0,2.8-0.5,3.5-1.7
						c0.6-0.9,0.5-2-0.1-3.3l-11.9-11.9c-0.2-0.2-0.3-0.5-0.3-0.8c0-0.3,0.1-0.6,0.3-0.8c0.4-0.4,1.1-0.4,1.5,0l11.9,11.9
						c0.6,0.4,1.4,0.6,2.1,0.6c1.4,0,2.6-0.7,3.1-1.9C514.2,128.8,513.3,126.5,511,124.2z"/>
				</g>
			</g>
		</g>
	</g>
</g>
</svg>
