<?xml version="1.0" encoding="utf-8"?>
<!-- Generator: Adobe Illustrator 21.0.1, SVG Export Plug-In . SVG Version: 6.00 Build 0)  -->
<svg version="1.1" id="Layer_1" xmlns="http://www.w3.org/2000/svg" xmlns:xlink="http://www.w3.org/1999/xlink" x="0px" y="0px"
	 viewBox="0 0 30.6 30.6" style="enable-background:new 0 0 30.6 30.6;" xml:space="preserve">
<style type="text/css">
	.st0{fill:#FFFBE7;}
	.st1{fill:#404040;}
</style>
<g>
	<g>
		<path class="st0" d="M-80.5,0C-89,0-95.8,6.9-95.8,15.3c0,8.5,6.9,15.3,15.3,15.3c8.5,0,15.3-6.9,15.3-15.3
			C-65.2,6.9-72.1,0-80.5,0z"/>
		<path class="st1" d="M-75.8,9.2h-1.7c-0.8,0-1.7,0.6-1.7,1.3V13h3.1v3.5h-3.1v8.9h-3.8v-8.9h-3.1V13h3.1V9.6
			c0-2.1,1.9-3.7,3.6-3.7h3.6V9.2z"/>
	</g>
	<g>
		<path class="st0" d="M-36.5-1C-45-1-51.8,5.9-51.8,14.3c0,8.5,6.9,15.3,15.3,15.3c8.5,0,15.3-6.9,15.3-15.3
			C-21.2,5.9-28.1-1-36.5-1z"/>
		<g>
			<path class="st1" d="M-28.7,12.7c-1.4,8.3-7.7,11.7-13.6,10.3c-2.4-0.6-4.4-1.9-5.9-3.7c1.8,0.1,3.5-0.3,5.1-1
				c-1.6-1.2-1.2-4-1.2-4s0.8,0.7,1.5,0.4c-1.9-2.6,0.2-5.4,0.2-5.4c0.7,2,2.5,3.6,4.1,4.6c-0.3-0.8-0.3-1.8-0.1-2.7
				c0.6-2.7,3.4-4.4,6.1-3.7c1.2,0.3,2.1,0.9,2.8,1.8c0.3,0,2.9-0.1,2.9-0.1l-1.9,1.7l2.4,0.6L-28.7,12.7z"/>
			
				<ellipse transform="matrix(0.2315 -0.9728 0.9728 0.2315 -34.4037 -23.8327)" class="st0" cx="-32.3" cy="9.9" rx="0.9" ry="0.9"/>
		</g>
	</g>
	<g>
		<path class="st0" d="M15.3,0C6.9,0,0,6.9,0,15.3c0,8.5,6.9,15.3,15.3,15.3c8.5,0,15.3-6.9,15.3-15.3C30.6,6.9,23.8,0,15.3,0z"/>
		<g>
			<path class="st1" d="M19.1,24.5h-7.6c-2.9,0-5.3-2.4-5.3-5.3v-8c0-2.9,2.4-5.3,5.3-5.3h7.6c2.9,0,5.3,2.4,5.3,5.3v8
				C24.3,22.1,22,24.5,19.1,24.5z M19.1,23.1c1,0,2-0.4,2.7-1.1c0.7-0.7,1.1-1.7,1.1-2.7v-8c0-1-0.4-2-1.1-2.7
				c-0.7-0.7-1.7-1.1-2.7-1.1h-7.6c-1,0-2,0.4-2.7,1.1s-1.1,1.7-1.1,2.7v8c0,1,0.4,2,1.1,2.7c0.7,0.7,1.7,1.1,2.7,1.1H19.1z"/>
			<path class="st1" d="M20.3,15.1c0,2.7-2.2,5-5,5s-5-2.2-5-5s2.2-5,5-5S20.3,12.4,20.3,15.1z M15.3,11.9c-1.8,0-3.3,1.5-3.3,3.3
				s1.5,3.3,3.3,3.3s3.3-1.5,3.3-3.3S17.1,11.9,15.3,11.9z"/>
			<circle class="st1" cx="20.4" cy="10.1" r="1.2"/>
		</g>
	</g>
</g>
</svg>
