<?xml version="1.0" encoding="utf-8"?>
<!-- Generator: Adobe Illustrator 21.0.2, SVG Export Plug-In . SVG Version: 6.00 Build 0)  -->
<!DOCTYPE svg PUBLIC "-//W3C//DTD SVG 1.1//EN" "http://www.w3.org/Graphics/SVG/1.1/DTD/svg11.dtd">
<svg version="1.1" id="Layer_1" xmlns="http://www.w3.org/2000/svg" xmlns:xlink="http://www.w3.org/1999/xlink" x="0px" y="0px"
	 width="122px" height="157px" viewBox="0 0 122 157" style="enable-background:new 0 0 122 157;" xml:space="preserve">
<style type="text/css">
	.st0{fill:#7DC387;}
</style>
<g>
	<g>
		<rect x="60.8" y="24.1" class="st0" width="2.6" height="62.2"/>
		<path class="st0" d="M52.8,33.9c-2.5,0-4.5-2-4.5-4.5s2-4.5,4.5-4.5s4.5,2,4.5,4.5S55.3,33.9,52.8,33.9z M52.8,27.5
			c-1.1,0-1.9,0.9-1.9,1.9s0.9,1.9,1.9,1.9s1.9-0.9,1.9-1.9S53.9,27.5,52.8,27.5z"/>
		<path class="st0" d="M71.4,33.9c-2.5,0-4.5-2-4.5-4.5s2-4.5,4.5-4.5c2.5,0,4.5,2,4.5,4.5S73.9,33.9,71.4,33.9z M71.4,27.5
			c-1.1,0-1.9,0.9-1.9,1.9s0.9,1.9,1.9,1.9c1.1,0,1.9-0.9,1.9-1.9S72.5,27.5,71.4,27.5z"/>
		<path class="st0" d="M62.1,25.6c-3.2,0-5.8-2.6-5.8-5.8s2.6-5.8,5.8-5.8s5.8,2.6,5.8,5.8S65.3,25.6,62.1,25.6z M62.1,16.5
			c-1.8,0-3.2,1.5-3.2,3.2c0,1.8,1.5,3.2,3.2,3.2s3.2-1.5,3.2-3.2C65.4,18,63.9,16.5,62.1,16.5z"/>
		<path class="st0" d="M39.6,48.9c-3.2,0-5.8-2.6-5.8-5.8s2.6-5.8,5.8-5.8c3.2,0,5.8,2.6,5.8,5.8S42.8,48.9,39.6,48.9z M39.6,39.9
			c-1.8,0-3.2,1.5-3.2,3.2s1.4,3.2,3.2,3.2c1.8,0,3.2-1.4,3.2-3.2S41.4,39.9,39.6,39.9z"/>
		<path class="st0" d="M84.7,48.9c-3.2,0-5.8-2.6-5.8-5.8s2.6-5.8,5.8-5.8c3.2,0,5.8,2.6,5.8,5.8S87.9,48.9,84.7,48.9z M84.7,39.9
			c-1.8,0-3.2,1.5-3.2,3.2s1.5,3.2,3.2,3.2s3.2-1.4,3.2-3.2S86.5,39.9,84.7,39.9z"/>
		<polygon class="st0" points="62.1,40.7 53.7,32.2 55.5,30.4 62.1,37 68.7,30.4 70.5,32.2 		"/>
		<path class="st0" d="M71.3,48.4c-1.2,0-2.3-0.4-3.2-1.3c-1.8-1.8-1.8-4.6,0-6.4c1.8-1.8,4.6-1.8,6.4,0c1.8,1.8,1.8,4.6,0,6.4
			C73.6,48,72.5,48.4,71.3,48.4z M71.3,42c-0.5,0-1,0.2-1.4,0.6c-0.8,0.8-0.8,2,0,2.7c0.8,0.8,2,0.8,2.7,0c0.8-0.8,0.8-2,0-2.7
			C72.3,42.2,71.8,42,71.3,42z"/>
		<path class="st0" d="M83.9,61c-1.2,0-2.3-0.4-3.2-1.3c-1.8-1.8-1.8-4.6,0-6.4c1.8-1.8,4.6-1.8,6.4,0c1.8,1.8,1.8,4.6,0,6.4h0
			C86.2,60.6,85,61,83.9,61z M83.9,54.6c-0.5,0-1,0.2-1.4,0.6c-0.8,0.8-0.8,2,0,2.7c0.8,0.8,2,0.8,2.7,0c0.8-0.8,0.8-2,0-2.7
			C84.9,54.8,84.4,54.6,83.9,54.6z"/>
		<polygon class="st0" points="81.2,57.9 69.9,57.9 69.9,46.6 72.5,46.6 72.5,55.3 81.2,55.3 		"/>
		<path class="st0" d="M58.6,84.4H56c0,0,0-21.7,0-22.1c0-0.5-0.2-0.9-0.4-1.1C55.5,61,41.5,47,41.5,47l1.8-1.8
			c0,0,13.5,13.5,14.2,14.2c1.1,1.1,1.2,1.7,1.2,3.5C58.6,63.7,58.6,84.4,58.6,84.4z"/>
		<path class="st0" d="M65.5,84.4h2.6c0,0,0-21.7,0-22.1c0-0.5,0.2-0.9,0.4-1.1S82.7,47,82.7,47l-1.8-1.8c0,0-13.5,13.5-14.2,14.2
			c-1.1,1.1-1.2,1.7-1.2,3.5C65.5,63.7,65.5,84.4,65.5,84.4z"/>
		<path class="st0" d="M52.8,48.4c-1.2,0-2.3-0.4-3.2-1.3c-1.8-1.8-1.8-4.6,0-6.4c1.8-1.8,4.6-1.8,6.4,0c1.8,1.8,1.8,4.6,0,6.4
			C55.1,48,54,48.4,52.8,48.4z M52.8,42c-0.5,0-1,0.2-1.4,0.6c-0.8,0.8-0.8,2,0,2.7c0.8,0.8,2,0.8,2.7,0c0.8-0.8,0.8-2,0-2.7
			C53.8,42.2,53.3,42,52.8,42z"/>
		<path class="st0" d="M40.3,61c-1.2,0-2.3-0.4-3.2-1.3h0c-1.8-1.8-1.8-4.6,0-6.4c1.8-1.8,4.6-1.8,6.4,0c1.8,1.8,1.8,4.6,0,6.4
			C42.6,60.6,41.4,61,40.3,61z M38.9,57.9c0.8,0.8,2,0.8,2.7,0c0.8-0.8,0.8-2,0-2.7c-0.8-0.8-2-0.8-2.7,0
			C38.1,55.9,38.1,57.1,38.9,57.9z"/>
		<polygon class="st0" points="54.2,57.9 42.9,57.9 42.9,55.3 51.6,55.3 51.6,46.6 54.2,46.6 		"/>
		<path class="st0" d="M62.1,3.7C39.3,3.7,20.8,22.2,20.8,45c0,21.6,16.7,39.4,37.8,41.2v-2.6C38.9,81.8,23.4,65.2,23.4,45
			c0-21.4,17.4-38.7,38.7-38.7s38.7,17.4,38.7,38.7c0,20.2-15.6,36.9-35.4,38.6v2.6c21.2-1.7,37.9-19.5,37.9-41.2
			C103.4,22.2,84.9,3.7,62.1,3.7z"/>
	</g>
	<g>
		<g>
			<path class="st0" d="M27.7,110.2l-9.1,22.2l-7.9-18.9c-0.8-2-1.9-3.8-4.4-3.8c0,0,0,0,0,0c-1,0-1.8,0.3-2.5,0.9l-0.1,0.1
				l-0.3,0.5l0.7,1.9l0.8,0.2l0.2-0.2c0.3-0.2,0.7-0.4,1-0.4c0.7,0,1.2,0.6,2,2.6l9.6,22.3l2.1,0l10.9-26.4l0.1-0.2l-0.4-0.8
				L27.7,110.2z"/>
			<path class="st0" d="M54.5,113.6c-2.4-2.7-5.8-4.1-9.7-4.1c0,0-0.1,0-0.1,0h0c-8,0.1-13.7,6.1-13.7,14.4c0,4.2,1.5,7.8,4.3,10.4
				c2.6,2.4,6.1,3.8,10,3.8c0,0,0.1,0,0.1,0c4.9,0,9.5-2.2,12.1-5.8l0.1-0.2l0-0.7l-1.7-1.3l-0.6,0l-0.2,0.2c-2,2.8-5.8,4.7-9.7,4.7
				c0,0-0.1,0-0.1,0c-6,0-10.4-4.1-11-10L58,125l0.1-0.5c0.1-0.3,0.1-0.6,0.1-1C58.1,119.6,56.8,116.1,54.5,113.6z M44.8,112.5
				c5.6,0,9.5,3.7,10.1,9.7l-20.7,0.1C34.7,116.4,38.9,112.5,44.8,112.5C44.8,112.5,44.8,112.5,44.8,112.5z"/>
			<path class="st0" d="M90,134.3l-0.2,0.2c-0.4,0.3-0.7,0.4-1,0.4c-0.4,0-1,0-1-1.8l-0.2-32.4l-0.7-0.3l-2.4,0.4l0.1,13.5
				c-2.5-3.2-6.3-5-10.6-5c0,0-0.1,0-0.1,0c-3.8,0-7.3,1.5-9.9,4.2c-2.5,2.6-3.8,6.3-3.8,10.2c0.1,8.1,5.9,14.2,13.7,14.2
				c0,0,0.1,0,0.1,0c4.4,0,8.2-1.9,10.7-5.2l0,0.8c0,1.3,0.4,2.4,1,3.1c0.7,0.8,1.7,1.2,2.8,1.2c1,0,1.9-0.3,2.5-0.9l0.1,0l0.3-0.5
				l-0.7-1.8L90,134.3z M74.1,112.3c2.9,0,5.6,1.1,7.5,3.1c2,2.1,3.1,4.9,3.1,8.2c0,6.6-4.4,11.4-10.6,11.4c-3,0-5.8-1.1-7.8-3.2
				c-1.9-2.1-3-4.9-3-8C63.4,117.1,67.8,112.3,74.1,112.3C74.1,112.3,74.1,112.3,74.1,112.3z"/>
			<path class="st0" d="M118.3,134.4l-0.7-0.2l-0.2,0.2c-0.3,0.2-0.6,0.4-1,0.4c-0.3,0-1,0-1-1.8l-0.1-13.7c0-3.3-1.3-6-3.7-7.8
				c-2-1.5-4.7-2.3-7.6-2.3c0,0-0.1,0-0.1,0c-4.2,0-8,1.8-10.7,4.9l-0.1,0.2l0,0.6l1.6,1.4l0.6,0l0.2-0.2c2.4-2.6,5.1-3.9,8.3-3.9
				c2.2,0,4.3,0.6,5.8,1.7c1.7,1.2,2.6,3,2.6,5.2l0,2.3c-2.6-1-5.5-1.6-8.3-1.6c-7.1,0-11.7,3.6-11.6,9c0,2.7,1.1,5,3.2,6.6
				c1.9,1.5,4.5,2.3,7.4,2.3c0,0,0.1,0,0.1,0c3.8,0,7.2-1.4,9.4-3.9c0.1,1,0.4,1.9,1,2.6c0.7,0.8,1.6,1.2,2.8,1.2c0,0,0,0,0,0
				c1,0,1.9-0.3,2.5-0.9l0.1-0.1l0.3-0.5L118.3,134.4z M112.2,127.1c0,2.9-1.5,4.6-2.8,5.6c-1.7,1.3-4,2-6.3,2.1h0
				c-2.1,0-4.1-0.6-5.4-1.6c-1.4-1.1-2.2-2.6-2.2-4.4c0-4.5,4.6-6.1,8.5-6.1c0,0,0.1,0,0.1,0c3,0,6.2,0.8,8.1,1.7L112.2,127.1z"/>
		</g>
		<g>
			<polygon class="st0" points="16.7,151.6 20.1,151.6 20.1,151 17.3,151 17.3,149.2 19.5,149.2 19.5,148.6 17.3,148.6 17.3,146.9 
				20.1,146.9 20.1,146.3 16.7,146.3 			"/>
			<polygon class="st0" points="27.6,150.4 24.3,146.3 23.9,146.3 23.9,151.6 24.5,151.6 24.5,147.5 27.8,151.6 28.3,151.6 
				28.3,146.3 27.6,146.3 			"/>
			<path class="st0" d="M36.3,146.3l-1.7,4.2l-1.5-3.6c-0.1-0.3-0.3-0.7-0.8-0.7c-0.2,0-0.3,0-0.4,0.1l-0.1,0.1l0,0.1l0.1,0.3
				l0.1,0.1l0.2,0l0.1-0.1c0,0,0,0,0.1,0c0,0,0.1,0,0.2,0.3l1.9,4.5h0.4l2.1-5l0-0.1l-0.1-0.2H36.3z"/>
			<rect x="40.6" y="146.3" class="st0" width="0.6" height="5.3"/>
			<path class="st0" d="M49.4,151l-0.2-0.1l-0.1,0.1c0,0-0.1,0-0.1,0c-0.2,0-0.4-0.3-0.6-0.8c-0.2-0.5-0.3-0.7-0.5-0.9
				c0.8-0.2,1.2-0.7,1.2-1.5c0-1-0.7-1.5-1.8-1.5h-1.9v5.3h0.6v-2.2h1c0,0,0.2,0,0.6,1l0.1,0.1c0.2,0.5,0.5,1.2,1.2,1.2
				c0.2,0,0.3,0,0.4-0.1l0,0l0.1-0.1L49.4,151L49.4,151z M47.4,148.8h-1.3v-1.9h1.3c0.7,0,1.1,0.3,1.1,0.9
				C48.5,148.4,48.1,148.8,47.4,148.8z"/>
			<path class="st0" d="M55.5,146.2c-1.6,0-2.8,1.2-2.8,2.7c0,1.6,1.2,2.7,2.8,2.7s2.8-1.2,2.8-2.7
				C58.3,147.4,57.1,146.2,55.5,146.2z M55.5,151.1c-1.2,0-2.1-0.9-2.1-2.1c0-1.2,0.9-2.1,2.1-2.1c1.2,0,2.1,0.9,2.1,2.1
				C57.6,150.1,56.7,151.1,55.5,151.1z"/>
			<polygon class="st0" points="65.9,150.4 62.6,146.3 62.1,146.3 62.1,151.6 62.8,151.6 62.8,147.5 66,151.6 66.5,151.6 
				66.5,146.3 65.9,146.3 			"/>
			<path class="st0" d="M76.3,151l-0.2-0.1l-0.1,0.1c0,0-0.1,0-0.1,0c-0.1,0-0.1-0.2-0.1-0.5l-0.5-4.3h-0.5l-1.7,4.2l-1.7-4.2H71
				l-0.6,5.3h0.6l0.4-3.7l1.5,3.7h0.4l1.5-3.7l0.3,2.9c0,0.3,0.1,0.9,0.7,0.9c0.2,0,0.3-0.1,0.4-0.1l0.1-0.2L76.3,151L76.3,151z"/>
			<polygon class="st0" points="80.1,151.6 83.5,151.6 83.5,151 80.8,151 80.8,149.2 82.9,149.2 82.9,148.6 80.8,148.6 80.8,146.9 
				83.5,146.9 83.5,146.3 80.1,146.3 			"/>
			<polygon class="st0" points="91.1,150.4 87.8,146.3 87.3,146.3 87.3,151.6 88,151.6 88,147.5 91.3,151.6 91.7,151.6 91.7,146.3 
				91.1,146.3 			"/>
			<polygon class="st0" points="95.3,146.9 97,146.9 97,151.6 97.6,151.6 97.6,146.9 99.3,146.9 99.3,146.3 95.3,146.3 			"/>
			<path class="st0" d="M106.9,151l-0.2,0l-0.1,0.1c0,0,0,0-0.1,0c-0.1,0-0.1,0-0.2-0.3l-1.9-4.5H104l-2.3,5.3h0.7l0.5-1.2h2.5
				l0.3,0.7c0.1,0.2,0.2,0.4,0.3,0.5c0.1,0.1,0.3,0.2,0.5,0.2c0.2,0,0.3-0.1,0.4-0.1l0.1-0.2L106.9,151L106.9,151z M103.2,149.7
				l1-2.4l1,2.4H103.2z"/>
			<polygon class="st0" points="111.2,151 111.2,146.3 110.6,146.3 110.6,151.6 113.7,151.6 113.7,151 			"/>
		</g>
	</g>
</g>
</svg>
