<svg id="Layer_1" data-name="Layer 1" xmlns="http://www.w3.org/2000/svg" viewBox="0 0 187.67 58.62"><defs><style>.cls-1{fill:#7dc387;}</style></defs><title>logo-top</title><rect class="cls-1" x="157.44" y="14.52" width="1.83" height="44.1"/><path class="cls-1" d="M151.58,21.75a3.2,3.2,0,1,1,3.2-3.2A3.2,3.2,0,0,1,151.58,21.75Zm0-4.56a1.37,1.37,0,1,0,1.37,1.37A1.37,1.37,0,0,0,151.58,17.18Z" transform="translate(0.16 -0.28)"/><path class="cls-1" d="M164.81,21.75a3.2,3.2,0,1,1,3.2-3.2A3.2,3.2,0,0,1,164.81,21.75Zm0-4.56a1.37,1.37,0,1,0,1.37,1.37A1.37,1.37,0,0,0,164.81,17.18Z" transform="translate(0.16 -0.28)"/><path class="cls-1" d="M158.19,15.81a4.12,4.12,0,1,1,4.12-4.12A4.13,4.13,0,0,1,158.19,15.81Zm0-6.42a2.29,2.29,0,1,0,2.29,2.29A2.3,2.3,0,0,0,158.19,9.39Z" transform="translate(0.16 -0.28)"/><path class="cls-1" d="M142.2,32.38a4.12,4.12,0,1,1,4.12-4.12A4.13,4.13,0,0,1,142.2,32.38Zm0-6.42a2.29,2.29,0,1,0,2.29,2.29A2.3,2.3,0,0,0,142.2,26Z" transform="translate(0.16 -0.28)"/><path class="cls-1" d="M174.19,32.38a4.12,4.12,0,1,1,4.12-4.12A4.13,4.13,0,0,1,174.19,32.38Zm0-6.42a2.29,2.29,0,1,0,2.29,2.29A2.3,2.3,0,0,0,174.19,26Z" transform="translate(0.16 -0.28)"/><polygon class="cls-1" points="158.35 26.25 152.38 20.28 153.68 18.98 158.35 23.66 163.03 18.98 164.33 20.28 158.35 26.25"/><path class="cls-1" d="M164.7,32a3.19,3.19,0,1,1,2.26-.93A3.18,3.18,0,0,1,164.7,32Zm0-4.56a1.37,1.37,0,1,0,1,.4A1.36,1.36,0,0,0,164.7,27.48Z" transform="translate(0.16 -0.28)"/><path class="cls-1" d="M173.63,41a3.19,3.19,0,1,1,2.26-.93h0A3.18,3.18,0,0,1,173.63,41Zm0-4.56a1.37,1.37,0,1,0,1,.4A1.36,1.36,0,0,0,173.63,36.41Z" transform="translate(0.16 -0.28)"/><polygon class="cls-1" points="171.92 38.46 163.9 38.46 163.9 30.44 165.73 30.44 165.73 36.63 171.92 36.63 171.92 38.46"/><path class="cls-1" d="M155.71,57.54h-1.83V41.87a1.18,1.18,0,0,0-.28-.8L143.53,31l1.29-1.29,10.06,10.06c.78.78.83,1.18.83,2.45Z" transform="translate(0.16 -0.28)"/><path class="cls-1" d="M160.59,57.54h1.83V41.87a1.18,1.18,0,0,1,.28-.8L172.78,31l-1.29-1.29L161.42,39.76c-.78.78-.83,1.18-.83,2.45Z" transform="translate(0.16 -0.28)"/><path class="cls-1" d="M151.6,32a3.19,3.19,0,1,1,2.26-.93A3.18,3.18,0,0,1,151.6,32Zm0-4.56a1.37,1.37,0,1,0,1,.4A1.36,1.36,0,0,0,151.6,27.48Z" transform="translate(0.16 -0.28)"/><path class="cls-1" d="M142.67,41a3.18,3.18,0,0,1-2.26-.93h0a3.2,3.2,0,1,1,2.26.93Zm-1-2.23a1.37,1.37,0,1,0,0-1.93A1.37,1.37,0,0,0,141.71,38.74Z" transform="translate(0.16 -0.28)"/><polygon class="cls-1" points="152.72 38.46 144.71 38.46 144.71 36.63 150.9 36.63 150.9 30.44 152.72 30.44 152.72 38.46"/><path class="cls-1" d="M158.19.28a29.31,29.31,0,0,0-2.48,58.51V57a27.49,27.49,0,1,1,4.89,0V58.8A29.31,29.31,0,0,0,158.19.28Z" transform="translate(0.16 -0.28)"/><path class="cls-1" d="M25.54,13.5,16,36.89,7.63,17c-.88-2.1-2.05-4-4.68-4h0a4.21,4.21,0,0,0-2.68.92L.16,14l-.33.5.72,2,.81.2.23-.17a1.94,1.94,0,0,1,1.1-.39c.76,0,1.24.65,2.15,2.77L14.92,42.36h2.17L28.53,14.52l.1-.25-.4-.79Z" transform="translate(0.16 -0.28)"/><path class="cls-1" d="M53.78,17a13.44,13.44,0,0,0-10.23-4.27h-.12C35,12.77,29,19.14,29,27.87a14.79,14.79,0,0,0,4.5,11,15.13,15.13,0,0,0,10.48,4h.12a15.88,15.88,0,0,0,12.69-6.07l.11-.16v-.7l-1.78-1.4h-.68l-.18.25a12.84,12.84,0,0,1-10.24,5H44A11.23,11.23,0,0,1,32.42,29.16l25-.17.09-.48a5.26,5.26,0,0,0,.06-1.05A15.55,15.55,0,0,0,53.78,17ZM43.6,15.84c5.95,0,10,3.87,10.59,10.16l-21.79.15A10.75,10.75,0,0,1,43.5,15.84Z" transform="translate(0.16 -0.28)"/><path class="cls-1" d="M91.19,38.87l-.25.18a1.73,1.73,0,0,1-1,.39c-.38,0-1.06,0-1.07-1.88L88.61,3.42l-.73-.36-2.56.47.1,14.23A13.91,13.91,0,0,0,74.28,12.5h-.11A14.1,14.1,0,0,0,63.79,17a15.45,15.45,0,0,0-4,10.71c.06,8.55,6.26,15,14.44,15h.11a13.92,13.92,0,0,0,11.23-5.5V38a5,5,0,0,0,1.07,3.28,3.8,3.8,0,0,0,3,1.27,4.07,4.07,0,0,0,2.65-.94l.06-.05.32-.49-.78-1.92ZM74.44,15.63a10.94,10.94,0,0,1,7.94,3.21,12.19,12.19,0,0,1,3.27,8.64c0,6.91-4.64,12-11.13,12a10.93,10.93,0,0,1-8.17-3.39,12.41,12.41,0,0,1-3.18-8.47c0-6.91,4.66-12,11.19-12Z" transform="translate(0.16 -0.28)"/><path class="cls-1" d="M120.94,38.91l-.72-.23-.25.18a1.61,1.61,0,0,1-1,.39c-.28,0-1.06,0-1.07-1.88l-.1-14.46a9.87,9.87,0,0,0-3.91-8.21,13.48,13.48,0,0,0-8-2.4h-.11A14.81,14.81,0,0,0,94.5,17.42l-.15.17v.66l1.71,1.47h.65l.18-.19a11.65,11.65,0,0,1,8.7-4.12,10.29,10.29,0,0,1,6.14,1.81,6.6,6.6,0,0,1,2.76,5.49l0,2.45a23.07,23.07,0,0,0-8.74-1.67c-7.47.05-12.27,3.78-12.23,9.51a8.65,8.65,0,0,0,3.36,7,12.6,12.6,0,0,0,7.79,2.43h.11a13.23,13.23,0,0,0,9.89-4.06,4.71,4.71,0,0,0,1,2.7,3.75,3.75,0,0,0,2.95,1.27h0a4.07,4.07,0,0,0,2.65-.94l.06-.05.32-.49Zm-6.4-7.7a7.21,7.21,0,0,1-2.93,5.92,11.25,11.25,0,0,1-6.68,2.16h0a9.41,9.41,0,0,1-5.73-1.68A5.65,5.65,0,0,1,96.87,33c0-4.69,4.81-6.39,9-6.42h.12a23.32,23.32,0,0,1,8.57,1.77Z" transform="translate(0.16 -0.28)"/><polygon class="cls-1" points="12.66 56.76 16.26 56.76 16.26 56.1 13.34 56.1 13.34 54.27 15.63 54.27 15.63 53.62 13.34 53.62 13.34 51.84 16.26 51.84 16.26 51.18 12.66 51.18 12.66 56.76"/><polygon class="cls-1" points="24.19 55.46 20.74 51.18 20.25 51.18 20.25 56.76 20.93 56.76 20.93 52.48 24.38 56.76 24.86 56.76 24.86 51.18 24.19 51.18 24.19 55.46"/><path class="cls-1" d="M33.2,51.46l-1.84,4.42-1.59-3.83c-.15-.34-.37-.69-.83-.69a.8.8,0,0,0-.47.15l-.06.07,0,.12.11.27.07.09.18,0,.07-.06a.15.15,0,0,1,.09,0s.12,0,.23.28l2,4.73h.47l2.23-5.3,0-.11-.11-.16Z" transform="translate(0.16 -0.28)"/><rect class="cls-1" x="37.91" y="51.18" width="0.68" height="5.57"/><path class="cls-1" d="M47,56.45l-.17-.08-.09.07a.21.21,0,0,1-.14,0c-.26,0-.42-.33-.65-.87a5.28,5.28,0,0,0-.48-.94,1.52,1.52,0,0,0,1.27-1.58c0-1-.7-1.62-1.86-1.62h-2V57h.68V54.73h1s.22.05.65,1.05l.05.13c.24.58.52,1.23,1.24,1.23A.94.94,0,0,0,47,57l0,0,.08-.15L47,56.53Zm-2.05-2.37H43.56v-2h1.35c.7,0,1.12.36,1.12,1S45.61,54.08,44.91,54.08Z" transform="translate(0.16 -0.28)"/><path class="cls-1" d="M53.39,51.37a2.88,2.88,0,1,0,2.93,2.88A2.84,2.84,0,0,0,53.39,51.37Zm0,5.1a2.21,2.21,0,1,1,2.24-2.21A2.18,2.18,0,0,1,53.39,56.46Z" transform="translate(0.16 -0.28)"/><polygon class="cls-1" points="64.46 55.46 61.02 51.18 60.53 51.18 60.53 56.76 61.21 56.76 61.21 52.48 64.66 56.76 65.14 56.76 65.14 51.18 64.46 51.18 64.46 55.46"/><path class="cls-1" d="M75.29,56.43l-.16-.05-.08.05a.17.17,0,0,1-.11,0c-.06,0-.1-.17-.15-.51l-.49-4.5h-.51L72,55.88l-1.77-4.42h-.5L69.13,57h.68l.42-3.9L71.79,57h.46l1.55-3.9.32,3c0,.27.12,1,.78,1a.73.73,0,0,0,.46-.15l.1-.17-.13-.29Z" transform="translate(0.16 -0.28)"/><polygon class="cls-1" points="79.48 56.76 83.08 56.76 83.08 56.1 80.15 56.1 80.15 54.27 82.45 54.27 82.45 53.62 80.15 53.62 80.15 51.84 83.08 51.84 83.08 51.18 79.48 51.18 79.48 56.76"/><polygon class="cls-1" points="91.01 55.46 87.56 51.18 87.07 51.18 87.07 56.76 87.75 56.76 87.75 52.48 91.2 56.76 91.68 56.76 91.68 51.18 91.01 51.18 91.01 55.46"/><polygon class="cls-1" points="95.44 51.84 97.21 51.84 97.21 56.76 97.89 56.76 97.89 51.84 99.67 51.84 99.67 51.18 95.44 51.18 95.44 51.84"/><path class="cls-1" d="M107.52,56.43l-.18,0-.07.06a.13.13,0,0,1-.09,0c-.06,0-.11,0-.24-.3l-2-4.71h-.47L102.1,57h.73l.54-1.29H106l.29.69a1.24,1.24,0,0,0,.35.52.74.74,0,0,0,.48.17.73.73,0,0,0,.46-.15l.1-.16-.12-.29Zm-3.87-1.33,1.05-2.49,1,2.49Z" transform="translate(0.16 -0.28)"/><polygon class="cls-1" points="112.22 56.1 112.22 51.18 111.54 51.18 111.54 56.76 114.85 56.76 114.85 56.1 112.22 56.1"/></svg>