<?xml version="1.0" encoding="utf-8"?>
<!-- Generator: Adobe Illustrator 21.0.1, SVG Export Plug-In . SVG Version: 6.00 Build 0)  -->
<svg version="1.1" id="Layer_1" xmlns="http://www.w3.org/2000/svg" xmlns:xlink="http://www.w3.org/1999/xlink" x="0px" y="0px"
	 viewBox="0 0 115.8 148" style="enable-background:new 0 0 115.8 148;" xml:space="preserve">
<style type="text/css">
	.st0{opacity:0.35;}
	.st1{fill:#FFFBE7;}
</style>
<g class="st0">
	<g>
		<rect x="57.6" y="20.5" class="st1" width="2.6" height="62.2"/>
		<path class="st1" d="M49.5,30.3c-2.5,0-4.5-2-4.5-4.5s2-4.5,4.5-4.5s4.5,2,4.5,4.5S52,30.3,49.5,30.3z M49.5,23.8
			c-1.1,0-1.9,0.9-1.9,1.9s0.9,1.9,1.9,1.9s1.9-0.9,1.9-1.9S50.6,23.8,49.5,23.8z"/>
		<path class="st1" d="M68.2,30.3c-2.5,0-4.5-2-4.5-4.5s2-4.5,4.5-4.5c2.5,0,4.5,2,4.5,4.5S70.7,30.3,68.2,30.3z M68.2,23.8
			c-1.1,0-1.9,0.9-1.9,1.9s0.9,1.9,1.9,1.9s1.9-0.9,1.9-1.9S69.3,23.8,68.2,23.8z"/>
		<path class="st1" d="M58.9,21.9c-3.2,0-5.8-2.6-5.8-5.8s2.6-5.8,5.8-5.8s5.8,2.6,5.8,5.8S62.1,21.9,58.9,21.9z M58.9,12.8
			c-1.8,0-3.2,1.5-3.2,3.2c0,1.8,1.5,3.2,3.2,3.2s3.2-1.5,3.2-3.2C62.1,14.3,60.7,12.8,58.9,12.8z"/>
		<path class="st1" d="M36.3,45.3c-3.2,0-5.8-2.6-5.8-5.8s2.6-5.8,5.8-5.8s5.8,2.6,5.8,5.8S39.5,45.3,36.3,45.3z M36.3,36.2
			c-1.8,0-3.2,1.5-3.2,3.2s1.4,3.2,3.2,3.2s3.2-1.4,3.2-3.2S38.1,36.2,36.3,36.2z"/>
		<path class="st1" d="M81.4,45.3c-3.2,0-5.8-2.6-5.8-5.8s2.6-5.8,5.8-5.8c3.2,0,5.8,2.6,5.8,5.8S84.6,45.3,81.4,45.3z M81.4,36.2
			c-1.8,0-3.2,1.5-3.2,3.2s1.5,3.2,3.2,3.2s3.2-1.4,3.2-3.2S83.2,36.2,81.4,36.2z"/>
		<polygon class="st1" points="58.9,37 50.5,28.6 52.3,26.8 58.9,33.4 65.5,26.8 67.3,28.6 		"/>
		<path class="st1" d="M68.1,44.8c-1.2,0-2.3-0.4-3.2-1.3c-1.8-1.8-1.8-4.6,0-6.4c1.8-1.8,4.6-1.8,6.4,0c1.8,1.8,1.8,4.6,0,6.4
			C70.4,44.3,69.2,44.8,68.1,44.8z M68.1,38.3c-0.5,0-1,0.2-1.4,0.6c-0.8,0.8-0.8,2,0,2.7c0.8,0.8,2,0.8,2.7,0c0.8-0.8,0.8-2,0-2.7
			C69,38.5,68.5,38.3,68.1,38.3z"/>
		<path class="st1" d="M80.6,57.4c-1.2,0-2.3-0.4-3.2-1.3c-1.8-1.8-1.8-4.6,0-6.4c1.8-1.8,4.6-1.8,6.4,0c1.8,1.8,1.8,4.6,0,6.4h0
			C82.9,56.9,81.8,57.4,80.6,57.4z M80.6,50.9c-0.5,0-1,0.2-1.4,0.6c-0.8,0.8-0.8,2,0,2.7c0.8,0.8,2,0.8,2.7,0c0.8-0.8,0.8-2,0-2.7
			C81.6,51.1,81.1,50.9,80.6,50.9z"/>
		<polygon class="st1" points="78,54.2 66.7,54.2 66.7,42.9 69.3,42.9 69.3,51.6 78,51.6 		"/>
		<path class="st1" d="M55.4,80.7h-2.6c0,0,0-21.7,0-22.1c0-0.5-0.2-0.9-0.4-1.1S38.2,43.3,38.2,43.3l1.8-1.8
			c0,0,13.5,13.5,14.2,14.2c1.1,1.1,1.2,1.7,1.2,3.5C55.4,60.1,55.4,80.7,55.4,80.7z"/>
		<path class="st1" d="M62.3,80.7h2.6c0,0,0-21.7,0-22.1c0-0.5,0.2-0.9,0.4-1.1s14.2-14.2,14.2-14.2l-1.8-1.8
			c0,0-13.5,13.5-14.2,14.2c-1.1,1.1-1.2,1.7-1.2,3.5C62.3,60.1,62.3,80.7,62.3,80.7z"/>
		<path class="st1" d="M49.6,44.8c-1.2,0-2.3-0.4-3.2-1.3c-1.8-1.8-1.8-4.6,0-6.4c1.8-1.8,4.6-1.8,6.4,0c1.8,1.8,1.8,4.6,0,6.4
			C51.9,44.3,50.7,44.8,49.6,44.8z M49.6,38.3c-0.5,0-1,0.2-1.4,0.6c-0.8,0.8-0.8,2,0,2.7c0.8,0.8,2,0.8,2.7,0c0.8-0.8,0.8-2,0-2.7
			C50.6,38.5,50.1,38.3,49.6,38.3z"/>
		<path class="st1" d="M37,57.4c-1.2,0-2.3-0.4-3.2-1.3h0c-1.8-1.8-1.8-4.6,0-6.4c1.8-1.8,4.6-1.8,6.4,0c1.8,1.8,1.8,4.6,0,6.4
			C39.3,56.9,38.1,57.4,37,57.4z M35.6,54.2c0.8,0.8,2,0.8,2.7,0c0.8-0.8,0.8-2,0-2.7c-0.8-0.8-2-0.8-2.7,0
			C34.9,52.2,34.9,53.5,35.6,54.2z"/>
		<polygon class="st1" points="50.9,54.2 39.6,54.2 39.6,51.6 48.4,51.6 48.4,42.9 50.9,42.9 		"/>
		<path class="st1" d="M58.9,0C36.1,0,17.6,18.5,17.6,41.3c0,21.6,16.7,39.4,37.8,41.2v-2.6c-19.7-1.8-35.2-18.4-35.2-38.6
			C20.1,20,37.5,2.6,58.9,2.6S97.6,20,97.6,41.3c0,20.2-15.6,36.9-35.4,38.6v2.6c21.2-1.7,37.9-19.5,37.9-41.2
			C100.2,18.5,81.7,0,58.9,0z"/>
	</g>
	<g>
		<g>
			<path class="st1" d="M24.4,106.6l-9.1,22.2l-7.9-18.9c-0.8-2-1.9-3.8-4.4-3.8c0,0,0,0,0,0c-1,0-1.8,0.3-2.5,0.9L0.3,107L0,107.5
				l0.7,1.9l0.8,0.2l0.2-0.2c0.3-0.2,0.7-0.4,1-0.4c0.7,0,1.2,0.6,2,2.6l9.6,22.3l2.1,0l10.9-26.4l0.1-0.2l-0.4-0.8L24.4,106.6z"/>
			<path class="st1" d="M51.2,109.9c-2.4-2.7-5.8-4.1-9.7-4.1c0,0-0.1,0-0.1,0h0c-8,0.1-13.7,6.1-13.7,14.4c0,4.2,1.5,7.8,4.3,10.4
				c2.6,2.4,6.1,3.8,10,3.8c0,0,0.1,0,0.1,0c4.9,0,9.5-2.2,12.1-5.8l0.1-0.2l0-0.7l-1.7-1.3l-0.6,0l-0.2,0.2c-2,2.8-5.8,4.7-9.7,4.7
				c0,0-0.1,0-0.1,0c-6,0-10.4-4.1-11-10l23.8-0.2l0.1-0.5c0.1-0.3,0.1-0.6,0.1-1C54.8,115.9,53.5,112.4,51.2,109.9z M41.6,108.8
				c5.6,0,9.5,3.7,10.1,9.7l-20.7,0.1C31.4,112.7,35.6,108.8,41.6,108.8C41.5,108.8,41.5,108.8,41.6,108.8z"/>
			<path class="st1" d="M86.8,130.7l-0.2,0.2c-0.4,0.3-0.7,0.4-1,0.4c-0.4,0-1,0-1-1.8L84.3,97l-0.7-0.3l-2.4,0.4l0.1,13.5
				c-2.5-3.2-6.3-5-10.6-5c0,0-0.1,0-0.1,0c-3.8,0-7.3,1.5-9.9,4.2c-2.5,2.6-3.8,6.3-3.8,10.2c0.1,8.1,5.9,14.2,13.7,14.2
				c0,0,0.1,0,0.1,0c4.4,0,8.2-1.9,10.7-5.2l0,0.8c0,1.3,0.4,2.4,1,3.1c0.7,0.8,1.7,1.2,2.8,1.2c1,0,1.9-0.3,2.5-0.9l0.1,0l0.3-0.5
				l-0.7-1.8L86.8,130.7z M70.9,108.6c2.9,0,5.6,1.1,7.5,3.1c2,2.1,3.1,4.9,3.1,8.2c0,6.6-4.4,11.4-10.6,11.4c-3,0-5.8-1.1-7.8-3.2
				c-1.9-2.1-3-4.9-3-8C60.1,113.4,64.6,108.6,70.9,108.6C70.8,108.6,70.8,108.6,70.9,108.6z"/>
			<path class="st1" d="M115,130.7l-0.7-0.2l-0.2,0.2c-0.3,0.2-0.6,0.4-1,0.4c-0.3,0-1,0-1-1.8l-0.1-13.7c0-3.3-1.3-6-3.7-7.8
				c-2-1.5-4.7-2.3-7.6-2.3c0,0-0.1,0-0.1,0c-4.2,0-8,1.8-10.7,4.9l-0.1,0.2l0,0.6l1.6,1.4l0.6,0l0.2-0.2c2.4-2.6,5.1-3.9,8.3-3.9
				c2.2,0,4.3,0.6,5.8,1.7c1.7,1.2,2.6,3,2.6,5.2l0,2.3c-2.6-1-5.5-1.6-8.3-1.6c-7.1,0-11.7,3.6-11.6,9c0,2.7,1.1,5,3.2,6.6
				c1.9,1.5,4.5,2.3,7.4,2.3c0,0,0.1,0,0.1,0c3.8,0,7.2-1.4,9.4-3.9c0.1,1,0.4,1.9,1,2.6c0.7,0.8,1.6,1.2,2.8,1.2c0,0,0,0,0,0
				c1,0,1.9-0.3,2.5-0.9l0.1-0.1l0.3-0.5L115,130.7z M108.9,123.4c0,2.9-1.5,4.6-2.8,5.6c-1.7,1.3-4,2-6.3,2.1h0
				c-2.1,0-4.1-0.6-5.4-1.6c-1.4-1.1-2.2-2.6-2.2-4.4c0-4.5,4.6-6.1,8.5-6.1c0,0,0.1,0,0.1,0c3,0,6.2,0.8,8.1,1.7L108.9,123.4z"/>
		</g>
		<g>
			<polygon class="st1" points="13.4,147.9 16.8,147.9 16.8,147.3 14,147.3 14,145.6 16.2,145.6 16.2,144.9 14,144.9 14,143.3 
				16.8,143.3 16.8,142.6 13.4,142.6 			"/>
			<polygon class="st1" points="24.4,146.7 21.1,142.6 20.6,142.6 20.6,147.9 21.3,147.9 21.3,143.9 24.5,147.9 25,147.9 25,142.6 
				24.4,142.6 			"/>
			<path class="st1" d="M33.1,142.6l-1.7,4.2l-1.5-3.6c-0.1-0.3-0.3-0.7-0.8-0.7c-0.2,0-0.3,0-0.4,0.1l-0.1,0.1l0,0.1l0.1,0.3
				l0.1,0.1l0.2,0l0.1-0.1c0,0,0,0,0.1,0c0,0,0.1,0,0.2,0.3l1.9,4.5h0.4l2.1-5l0-0.1l-0.1-0.2H33.1z"/>
			<rect x="37.4" y="142.6" class="st1" width="0.6" height="5.3"/>
			<path class="st1" d="M46.1,147.4l-0.2-0.1l-0.1,0.1c0,0-0.1,0-0.1,0c-0.2,0-0.4-0.3-0.6-0.8c-0.2-0.5-0.3-0.7-0.5-0.9
				c0.8-0.2,1.2-0.7,1.2-1.5c0-1-0.7-1.5-1.8-1.5h-1.9v5.3h0.6v-2.2h1c0,0,0.2,0,0.6,1l0.1,0.1c0.2,0.5,0.5,1.2,1.2,1.2
				c0.2,0,0.3,0,0.4-0.1l0,0l0.1-0.1L46.1,147.4L46.1,147.4z M44.2,145.1h-1.3v-1.9h1.3c0.7,0,1.1,0.3,1.1,0.9
				C45.3,144.8,44.9,145.1,44.2,145.1z"/>
			<path class="st1" d="M52.2,142.5c-1.6,0-2.8,1.2-2.8,2.7c0,1.6,1.2,2.7,2.8,2.7s2.8-1.2,2.8-2.7C55,143.7,53.8,142.5,52.2,142.5z
				 M52.2,147.4c-1.2,0-2.1-0.9-2.1-2.1c0-1.2,0.9-2.1,2.1-2.1c1.2,0,2.1,0.9,2.1,2.1C54.4,146.5,53.5,147.4,52.2,147.4z"/>
			<polygon class="st1" points="62.6,146.7 59.3,142.6 58.9,142.6 58.9,147.9 59.5,147.9 59.5,143.9 62.8,147.9 63.3,147.9 
				63.3,142.6 62.6,142.6 			"/>
			<path class="st1" d="M73,147.4l-0.2-0.1l-0.1,0.1c0,0-0.1,0-0.1,0c-0.1,0-0.1-0.2-0.1-0.5l-0.5-4.3h-0.5l-1.7,4.2l-1.7-4.2h-0.5
				l-0.6,5.3h0.6l0.4-3.7l1.5,3.7h0.4l1.5-3.7l0.3,2.9c0,0.3,0.1,0.9,0.7,0.9c0.2,0,0.3-0.1,0.4-0.1l0.1-0.2L73,147.4L73,147.4z"/>
			<polygon class="st1" points="76.9,147.9 80.3,147.9 80.3,147.3 77.5,147.3 77.5,145.6 79.7,145.6 79.7,144.9 77.5,144.9 
				77.5,143.3 80.3,143.3 80.3,142.6 76.9,142.6 			"/>
			<polygon class="st1" points="87.8,146.7 84.5,142.6 84.1,142.6 84.1,147.9 84.7,147.9 84.7,143.9 88,147.9 88.5,147.9 
				88.5,142.6 87.8,142.6 			"/>
			<polygon class="st1" points="92,143.3 93.7,143.3 93.7,147.9 94.4,147.9 94.4,143.3 96,143.3 96,142.6 92,142.6 			"/>
			<path class="st1" d="M103.7,147.3l-0.2,0l-0.1,0.1c0,0,0,0-0.1,0c-0.1,0-0.1,0-0.2-0.3l-1.9-4.5h-0.4l-2.3,5.3h0.7l0.5-1.2h2.5
				l0.3,0.7c0.1,0.2,0.2,0.4,0.3,0.5c0.1,0.1,0.3,0.2,0.5,0.2c0.2,0,0.3-0.1,0.4-0.1l0.1-0.2L103.7,147.3L103.7,147.3z M100,146.1
				l1-2.4l1,2.4H100z"/>
			<polygon class="st1" points="108,147.3 108,142.6 107.3,142.6 107.3,147.9 110.5,147.9 110.5,147.3 			"/>
		</g>
	</g>
</g>
</svg>
