<?xml version="1.0" encoding="utf-8"?>
<!-- Generator: Adobe Illustrator 21.0.1, SVG Export Plug-In . SVG Version: 6.00 Build 0)  -->
<svg version="1.1" id="Layer_1" xmlns="http://www.w3.org/2000/svg" xmlns:xlink="http://www.w3.org/1999/xlink" x="0px" y="0px"
	 viewBox="0 0 106.9 158.2" style="enable-background:new 0 0 106.9 158.2;" xml:space="preserve">
<style type="text/css">
	.st0{fill:#404040;}
</style>
<g>
	<g>
		<path class="st0" d="M101.9,38.5c0,18.7-11.5,30.8-29.7,35.8c18.9,2,34.7,13.5,34.7,37.4c0,25.7-20.3,46.6-56.5,46.6
			c-21.8,0-38.7-8.1-50.4-22.5L17.3,119c10.1,10.1,19.6,14.4,31.3,14.4c15.3,0,25.4-8.8,25.4-23.9c0-16.9-9.5-23-26.1-23H35.6
			l3.8-22.5h8.3c13.7,0,23.2-7.7,23.2-21.4c0-11.7-8.3-18.7-21.4-18.7c-11.5,0-20.7,4.3-29.9,13.1l-16-17.3C17.3,6.8,33.5,0,52.7,0
			C84.8,0,101.9,17.3,101.9,38.5z"/>
	</g>
</g>
</svg>
