<?xml version="1.0" encoding="utf-8"?>
<!-- Generator: Adobe Illustrator 21.0.1, SVG Export Plug-In . SVG Version: 6.00 Build 0)  -->
<svg version="1.1" id="Layer_1" xmlns="http://www.w3.org/2000/svg" xmlns:xlink="http://www.w3.org/1999/xlink" x="0px" y="0px"
	 viewBox="0 0 427.5 404.7" style="enable-background:new 0 0 427.5 404.7;" xml:space="preserve">
<style type="text/css">
	.st0{opacity:0.15;fill:url(#SVGID_1_);}
	.st1{fill:#FFC97F;}
	.st2{fill:none;stroke:#404040;stroke-miterlimit:10;}
	.st3{fill:none;stroke:#404040;stroke-miterlimit:10;stroke-dasharray:2.0239,4.0478;}
	.st4{fill:none;stroke:#404040;stroke-miterlimit:10;stroke-dasharray:1.9803,3.9605;}
	.st5{fill:#404040;}
	.st6{fill:none;stroke:#404040;stroke-miterlimit:10;stroke-dasharray:2.0397,4.0794;}
	.st7{fill:none;stroke:#404040;stroke-miterlimit:10;stroke-dasharray:2.0092,4.0184;}
	.st8{fill:#FFFBE7;}
	.st9{fill-rule:evenodd;clip-rule:evenodd;fill:#404040;}
	.st10{fill-rule:evenodd;clip-rule:evenodd;fill:#FFFBE7;}
	.st11{fill:none;stroke:#404040;stroke-miterlimit:10;stroke-dasharray:1.9956,3.9912;}
</style>
<g>
	
		<radialGradient id="SVGID_1_" cx="324.5056" cy="-12334.6973" r="185.1862" gradientTransform="matrix(0.8394 0 0 0.2532 -80.5149 3457.7666)" gradientUnits="userSpaceOnUse">
		<stop  offset="0" style="stop-color:#000000"/>
		<stop  offset="1" style="stop-color:#FFFFFF"/>
	</radialGradient>
	<ellipse class="st0" cx="191.9" cy="334.1" rx="155.4" ry="46.9"/>
	<g>
		<path class="st1" d="M81.8,91.7l-40.7-3.7l23.3,33C69,110.4,74.9,100.6,81.8,91.7z"/>
		<path class="st1" d="M228.1,4.7l-25,33.4c11.9,1,23.3,3.4,34.2,7.1L228.1,4.7z"/>
		<path class="st1" d="M125.7,54.4L89.5,34.1l8,40.4C106,66.7,115.5,59.9,125.7,54.4z"/>
		<path class="st1" d="M294.2,34.1l-36.2,20.2c10.2,5.5,19.7,12.3,28.1,20.2L294.2,34.1z"/>
		<path class="st1" d="M52.6,176.9c0-11.4,1.4-22.4,4-33l-37.8,12.9L52.6,176.9C52.6,176.9,52.6,176.9,52.6,176.9z"/>
		<path class="st1" d="M365,156.8l-37.8-12.9c2.6,10.6,4,21.6,4,33c0,0,0,0,0,0.1L365,156.8z"/>
		<path class="st1" d="M342.7,87.9l-40.7,3.7c7,9,12.8,18.8,17.5,29.3L342.7,87.9z"/>
		<path class="st1" d="M155.7,4.7l-9.2,40.6c10.9-3.8,22.3-6.2,34.2-7.1L155.7,4.7z"/>
		<path class="st1" d="M262.7,334.1l0.5-37.6c-8.9,5.4-18.5,9.7-28.6,13L262.7,334.1z"/>
		<path class="st1" d="M285.1,280.3l36.2,11.2l-15.1-35.2C300.1,265.1,293,273.2,285.1,280.3z"/>
		<path class="st1" d="M319.2,233.3l38.3-4.5l-28.7-26.5C326.8,213.1,323.5,223.5,319.2,233.3z"/>
		<path class="st1" d="M176.3,315.3l15.6,33.8l15.6-33.8c-5.1,0.6-10.3,0.9-15.6,0.9C186.6,316.2,181.4,315.9,176.3,315.3z"/>
		<path class="st1" d="M54.9,202.3l-28.7,26.5l38.3,4.5C60.2,223.5,56.9,213.1,54.9,202.3z"/>
		<path class="st1" d="M77.6,256.4l-15.1,35.1l36.2-11.2C90.7,273.2,83.7,265.1,77.6,256.4z"/>
		<path class="st1" d="M121,334.1l28.1-24.6c-10.1-3.3-19.7-7.6-28.6-13L121,334.1z"/>
		<circle class="st1" cx="191.9" cy="176.9" r="121.9"/>
	</g>
	<g>
		<g>
			<line class="st2" x1="183.2" y1="381.5" x2="184.2" y2="381.5"/>
			<line class="st3" x1="188.2" y1="381.5" x2="222.6" y2="382.1"/>
			<polyline class="st2" points="224.6,382.1 225.6,382.1 225.6,381.1 			"/>
			<line class="st4" x1="225.6" y1="377.2" x2="225.6" y2="266.3"/>
			<line class="st2" x1="225.6" y1="264.3" x2="225.6" y2="263.3"/>
			<g>
				
					<ellipse transform="matrix(1.590914e-02 -0.9999 0.9999 1.590914e-02 -200.9948 558.7238)" class="st5" cx="183.3" cy="381.5" rx="3.8" ry="3.8"/>
			</g>
			<g>
				<circle class="st5" cx="225.6" cy="263.5" r="3.8"/>
			</g>
		</g>
	</g>
	<g>
		<g>
			<line class="st2" x1="68.1" y1="27.9" x2="69.1" y2="27.9"/>
			<line class="st6" x1="73.2" y1="27.9" x2="126.2" y2="27.5"/>
			<polyline class="st2" points="128.3,27.5 129.3,27.5 129.3,28.5 			"/>
			<line class="st7" x1="129.3" y1="32.5" x2="129.3" y2="102.8"/>
			<line class="st2" x1="129.3" y1="104.8" x2="129.3" y2="105.8"/>
			<g>
				
					<ellipse transform="matrix(1 -7.597183e-03 7.597183e-03 1 -0.2103 0.5199)" class="st5" cx="68.3" cy="27.9" rx="3.8" ry="3.8"/>
			</g>
			<g>
				<circle class="st5" cx="129.3" cy="105.6" r="3.8"/>
			</g>
		</g>
	</g>
	<g>
		<g>
			<path class="st5" d="M260.3,139.1c-3.5,1.3-7,2.5-10.5,3.8c-2.2,0.8-2.3,5.2-0.1,12.5c1.9,6.2,5.9,18.4,9.2,25.3
				c2.9,6.2,5.1,7.1,6.2,7.1l0,0c0.3,0,0.5,0,0.8-0.1c3.5-1.3,7-2.5,10.5-3.8c0.1,0,0.1-0.1,0.1-0.2l-16-44.5
				C260.4,139.1,260.4,139.1,260.3,139.1z"/>
			<path class="st8" d="M125.4,139.1c-0.1,0-0.1,0-0.1,0.1l-16,44.5c0,0.1,0,0.1,0.1,0.2c3.5,1.3,7,2.5,10.5,3.8
				c0.3,0.1,0.6,0.2,0.8,0.2c1.1,0,3.3-0.9,6.2-7.1c3.3-6.9,7.3-19.2,9.2-25.3c2.2-7.2,2.2-11.6-0.1-12.5
				C132.4,141.6,128.9,140.4,125.4,139.1C125.5,139.1,125.4,139.1,125.4,139.1z"/>
			<path class="st9" d="M185,220.9L185,220.9c1.9,1.9,1.9,5.1,0,7l-3,3c-1.9,1.9-5,1.9-6.9,0l0,0c-1.9-1.9-1.9-5,0-7l3-3
				C180,219,183.1,219,185,220.9L185,220.9z"/>
			<path class="st9" d="M178.8,208.3L178.8,208.3c1.9,1.9,1.9,5,0,7l-9.9,9.9c-1.9,1.9-5,1.9-6.9,0l0,0c-1.9-1.9-1.9-5.1,0-7
				l9.9-9.9C173.8,206.4,176.9,206.4,178.8,208.3L178.8,208.3z"/>
			<path class="st9" d="M168.1,200.2L168.1,200.2c1.9,1.9,1.9,5,0,7l-7.9,7.9c-1.9,1.9-5,1.9-7,0l0,0c-1.9-1.9-1.9-5.1,0-7l7.9-7.9
				C163,198.3,166.2,198.3,168.1,200.2L168.1,200.2z"/>
			<path class="st9" d="M156.4,193L156.4,193c1.9,1.9,1.9,5,0,7l-4,4c-1.9,1.9-5,1.9-6.9,0l0,0c-1.9-1.9-1.9-5.1,0-7l4-4
				C151.4,191.1,154.5,191.1,156.4,193L156.4,193z"/>
			<g>
				<path class="st5" d="M194.8,146.8c-8.5,2.3-17.4,4.7-19.3,8.4c-0.9,1.7-2.3,5.7-3.8,10.1c-1.9,5.6-3.7,11.8-4.4,14.2
					c1,0.9,3.2,2.4,5.8,2.3c0.1,0,0.3,0,0.4,0c0.1,0,0.2,0,0.3,0c0.2,0,0.5-0.1,0.7-0.1c0.2-0.1,0.5-0.1,0.7-0.2c0,0,0.1,0,0.1,0
					c7-2.3,9.7-12,9.4-18.4c-0.1-1,0.7-1.9,1.7-1.9c1,0,1.8,0.7,1.9,1.7c0,0.6,0,1.2,0,1.9c12.7,7.8,21.9,11.3,31,6.7
					c0.9-0.4,2-0.1,2.4,0.8c0.5,0.9,0.1,2-0.8,2.4c-3,1.5-6,2.3-9.1,2.4l0,0c6,5.8,11.8,11.7,17.6,17.5c2,2,4,4,5.9,6
					c0.4,0.4,0.7,0.7,1,1.1c0.2-0.2,0.4-0.4,0.6-0.6c3.4-3.3,10.9-10.6,20.9-12.4c-6.6-14.3-11.1-26.9-13.6-38.6
					c-2.3,0.9-6.2,2.2-11.2,2.2c-2.1,0-4.2-0.2-6.3-0.6c-3.4-0.7-6.8-1.7-10.1-2.7c-5.3-1.6-10.3-3.2-15.1-3.2
					c-1.8,0-3.4,0.2-4.9,0.6L194.8,146.8z"/>
			</g>
			<g>
				<path class="st10" d="M193.8,226.4c-1.4-1.3-2.7-2.6-4-3.8c0.2,0.7,0.3,1.4,0.3,2.2c0,2.3-0.9,4.4-2.5,6l-0.5,0.5
					c0.9,0.7,1.8,1.3,2.6,1.9c3.4,2.3,6.7,3.6,9,3.6c0.9,0,1.6-0.2,2-0.7c0.4-0.5,0.6-1.5,0.5-2.8
					C198.9,231.2,196.3,228.8,193.8,226.4z"/>
				<path class="st10" d="M232.7,203.1c-2-2-3.9-4-5.9-6c-6.8-6.8-13.6-13.7-20.7-20.5c-5.6-1.1-11.6-3.9-18.3-7.9
					c-1.1,6.8-4.8,14.5-12.5,16.4c-0.9,0.2-1.7,0.3-2.5,0.3c-5.2,0-8.8-4.1-9-4.3c-0.4-0.5-0.5-1.1-0.4-1.7
					c0.3-0.9,6.3-21.2,8.8-25.9c0.4-0.7,0.9-1.3,1.5-2c-2.3-0.7-4.6-1-7-1c-2.3,0-4.9,0.3-7.8,0.9c-2.1,0.4-4.2,0.6-6.3,0.6l0,0
					c-5,0-9-1.2-11.3-2.2c-3.1,13-7.5,25.7-13.6,38.6c5.8,1.1,10.8,4,14.6,6.9c0.1-0.2,0.3-0.3,0.4-0.5l4-4c1.6-1.6,3.7-2.5,6-2.5
					c2.3,0,4.4,0.9,6,2.5c1.5,1.5,2.3,3.3,2.5,5.3c1-0.4,2.1-0.6,3.2-0.6c2.3,0,4.4,0.9,6,2.5c1.6,1.6,2.4,3.7,2.5,5.9
					c0.7-0.2,1.4-0.3,2.2-0.3c2.3,0,4.4,0.9,6,2.5c1.6,1.6,2.5,3.7,2.5,6c0,0.1,0,0.1,0,0.2c0.3,0.1,0.6,0.2,0.8,0.4
					c1.8,1.7,9.7,9.2,15,14.2l4.2,3.9c0.1,0.1,0.1,0.1,0.2,0.2c0,0,0.1,0.1,0.1,0.1c0.7,0.7,1.4,1.3,2,1.9c1.7,1.1,3.3,1.7,4.9,1.7
					c1.7,0,3.1-0.7,3.8-1.9c0.7-1.1,0.8-2.5,0.2-4l-22.6-22.6c-0.7-0.7-0.7-1.9,0-2.6c0.7-0.7,1.9-0.7,2.6,0l21.3,21.4
					c0,0,0.1,0.1,0.1,0.1h0c0,0,0,0,0,0c0.3,0.3,0.7,0.6,1.2,1.2c0.6,0.3,1.4,0.4,2.3,0.4c2,0,4.6-0.9,5.8-2.9
					c0.9-1.5,0.9-3.4-0.2-5.6l-19.9-19.9c-0.4-0.3-0.5-0.8-0.5-1.3c0-0.5,0.2-0.9,0.5-1.3c0.7-0.7,1.9-0.7,2.6,0l19.9,20
					c1.1,0.6,2.3,0.9,3.5,0.9c2.3,0,4.4-1.2,5.2-3.2C238.1,210.9,236.6,207,232.7,203.1z"/>
			</g>
		</g>
	</g>
	<g>
		<rect x="374.9" y="140.1" class="st5" width="47.9" height="2.4"/>
		<rect x="374.9" y="113.4" class="st5" width="47.9" height="2.4"/>
		<polygon class="st5" points="422.7,111.3 374.9,111.3 374.9,109.3 398.8,99.8 422.7,109.3 		"/>
		<rect x="370" y="144.5" class="st5" width="57.5" height="2.7"/>
		<g>
			<rect x="379.6" y="117.2" class="st5" width="5.7" height="20.9"/>
			<rect x="390.5" y="117.2" class="st5" width="5.7" height="20.9"/>
			<rect x="401.4" y="117.2" class="st5" width="5.7" height="20.9"/>
			<rect x="412.3" y="117.2" class="st5" width="5.7" height="20.9"/>
		</g>
	</g>
	<g>
		<g>
			<line class="st2" x1="245" y1="124.2" x2="246" y2="124.2"/>
			<line class="st11" x1="250" y1="124.2" x2="355.8" y2="124.2"/>
			<line class="st2" x1="357.8" y1="124.2" x2="358.8" y2="124.2"/>
			<g>
				<circle class="st5" cx="245.2" cy="124.2" r="3.8"/>
			</g>
			<g>
				<circle class="st5" cx="358.6" cy="124.2" r="3.8"/>
			</g>
		</g>
	</g>
	<g>
		<polygon class="st5" points="154.9,360.8 147.8,360.8 147.8,367.1 135.2,357.6 109,377.2 112.5,381.9 135.2,365 157.9,381.9 
			161.4,377.2 154.9,372.3 		"/>
		<path class="st5" d="M115.5,383.2v21.5h23.7v-13.9h9.1v13.9h6.6v-21.5l-19.7-14.7L115.5,383.2z M131.7,394h-9.5v-9.5h9.5V394z"/>
		<path class="st5" d="M168.7,342c-15,0.6-16.4,12-16.4,16.1c0.3-0.6,0.6-1.2,0.9-1.7c0.8-1.4,1.7-2.6,2.7-3.8
			c1-1.2,2.2-2.3,3.5-3.2c1.3-0.9,2.7-1.7,4.3-2c-1.2,1-2.4,1.9-3.5,3c-1.1,1-2.1,2.1-3.1,3.3c-1,1.1-1.9,2.3-2.9,3.5
			c-0.6,0.8-1.2,1.6-1.9,2.4c0,0.1,0,0.1,0,0.1C170.3,361.7,168.7,342,168.7,342z"/>
		<path class="st5" d="M151,358.2C151,358.2,151,358.2,151,358.2c-0.7-0.6-1.4-1-2.1-1.5c-1-0.7-2.1-1.4-3.2-2.1
			c-1.1-0.7-2.1-1.3-3.3-1.8c-1.1-0.6-2.3-1.1-3.5-1.5c1.3-0.1,2.6,0.1,3.9,0.5c1.3,0.4,2.4,1,3.6,1.7c1.1,0.7,2.2,1.5,3.1,2.4
			c0.4,0.4,0.8,0.7,1.1,1.1c-1-3.3-5-12-17.1-8.8C133.6,348.3,137.1,364.4,151,358.2z"/>
	</g>
	<g>
		<path class="st5" d="M48.6,0H3.7C1.6,0,0,1.6,0,3.7v55.5c0,2,1.6,3.7,3.7,3.7h44.9c2,0,3.7-1.6,3.7-3.7V3.7
			C52.2,1.6,50.6,0,48.6,0L48.6,0z"/>
		<g>
			<path class="st8" d="M35.2,47.4l-3.6,7.5c-2.8-1.3-4.7-4.2-4.7-7.5H35.2z"/>
			<path class="st8" d="M38.2,35.7c5.6,0,10.2,4.6,10.2,10.2c0,5.6-4.6,10.2-10.2,10.2c-1.6,0-3.1-0.4-4.4-1l4.4-9.2V35.7z"/>
			<path class="st8" d="M26.3,45.8h10.2V35.6C30.9,35.6,26.3,40.2,26.3,45.8z M35.9,45.2H27c0.3-4.8,4.1-8.6,8.9-8.9V45.2z"/>
		</g>
		<g>
			<path class="st8" d="M20.5,40.2H5.5c-0.8,0-1.5-0.6-1.5-1.3l0,0c0-0.7,0.7-1.3,1.5-1.3h14.9c0.8,0,1.5,0.6,1.5,1.3l0,0
				C22,39.7,21.3,40.2,20.5,40.2z"/>
			<path class="st8" d="M20.5,48.2H5.5c-0.8,0-1.5-0.6-1.5-1.3l0,0c0-0.7,0.7-1.3,1.5-1.3h14.9c0.8,0,1.5,0.6,1.5,1.3l0,0
				C22,47.6,21.3,48.2,20.5,48.2z"/>
			<path class="st8" d="M20.5,56.1H5.5c-0.8,0-1.5-0.6-1.5-1.3l0,0c0-0.7,0.7-1.3,1.5-1.3h14.9c0.8,0,1.5,0.6,1.5,1.3l0,0
				C22,55.5,21.3,56.1,20.5,56.1z"/>
		</g>
		<g>
			<path class="st8" d="M46.3,11.1H31.4c-0.8,0-1.5-0.6-1.5-1.3l0,0c0-0.7,0.7-1.3,1.5-1.3h14.9c0.8,0,1.5,0.6,1.5,1.3l0,0
				C47.8,10.5,47.1,11.1,46.3,11.1z"/>
			<path class="st8" d="M46.3,19H31.4c-0.8,0-1.5-0.6-1.5-1.3l0,0c0-0.7,0.7-1.3,1.5-1.3h14.9c0.8,0,1.5,0.6,1.5,1.3l0,0
				C47.8,18.5,47.1,19,46.3,19z"/>
			<path class="st8" d="M46.3,27H31.4c-0.8,0-1.5-0.6-1.5-1.3l0,0c0-0.7,0.7-1.3,1.5-1.3h14.9c0.8,0,1.5,0.6,1.5,1.3l0,0
				C47.8,26.4,47.1,27,46.3,27z"/>
		</g>
		<rect x="4.7" y="15" class="st8" width="5.8" height="13.2"/>
		<rect x="20.3" y="11.2" class="st8" width="5.8" height="17"/>
		<rect x="12.2" y="4.9" class="st8" width="5.8" height="23.3"/>
	</g>
</g>
</svg>
