<?xml version="1.0" encoding="utf-8"?>
<!-- Generator: Adobe Illustrator 21.0.1, SVG Export Plug-In . SVG Version: 6.00 Build 0)  -->
<svg version="1.1" id="Layer_1" xmlns="http://www.w3.org/2000/svg" xmlns:xlink="http://www.w3.org/1999/xlink" x="0px" y="0px"
	 viewBox="0 0 19.7 19.7" style="enable-background:new 0 0 19.7 19.7;" xml:space="preserve">
<style type="text/css">
	.st0{fill:#404040;}
</style>
<path class="st0" d="M19.7,12V7.6h-2.5c-0.2-0.5-0.3-1-0.6-1.4l1.7-1.7l-3.1-3.1l-1.7,1.7C13,2.8,12.5,2.6,12,2.5V0H7.6v2.5
	c-0.5,0.2-1,0.3-1.4,0.6L4.4,1.3L1.3,4.4l1.7,1.7C2.8,6.6,2.6,7.1,2.5,7.6H0V12h2.5c0.2,0.5,0.3,1,0.6,1.4l-1.7,1.7l3.1,3.1l1.7-1.7
	c0.5,0.2,0.9,0.4,1.4,0.6v2.5H12v-2.5c0.5-0.2,1-0.3,1.4-0.6l1.7,1.7l3.1-3.1l-1.7-1.7c0.2-0.5,0.4-0.9,0.6-1.4H19.7z M9.8,13.7
	C7.7,13.7,6,12,6,9.8C6,7.7,7.7,6,9.8,6c2.1,0,3.9,1.7,3.9,3.9C13.7,12,12,13.7,9.8,13.7z"/>
</svg>
