<?xml version="1.0" encoding="utf-8"?>
<!-- Generator: Adobe Illustrator 21.0.1, SVG Export Plug-In . SVG Version: 6.00 Build 0)  -->
<svg version="1.1" id="Layer_1" xmlns="http://www.w3.org/2000/svg" xmlns:xlink="http://www.w3.org/1999/xlink" x="0px" y="0px"
	 viewBox="0 0 117 68.4" style="enable-background:new 0 0 117 68.4;" xml:space="preserve">
<style type="text/css">
	.st0{fill:#404040;}
	.st1{fill-rule:evenodd;clip-rule:evenodd;fill:#404040;}
</style>
<g>
	<g>
		<path class="st0" d="M105.7,0c-2.5,0.9-4.9,1.8-7.4,2.7c-1.6,0.6-1.6,3.7-0.1,8.7c1.3,4.3,4.2,12.9,6.4,17.7c2,4.3,3.6,5,4.3,5
			l0,0c0.2,0,0.4,0,0.6-0.1c2.5-0.9,4.9-1.8,7.3-2.7c0,0,0.1-0.1,0-0.1L105.7,0C105.8,0,105.7,0,105.7,0z"/>
		<path class="st0" d="M11.3,0C11.3,0,11.2,0,11.3,0L0,31.2c0,0,0,0.1,0,0.1c2.4,0.9,4.9,1.8,7.3,2.6c0.2,0.1,0.4,0.1,0.6,0.1
			c0.7,0,2.3-0.6,4.3-5c2.3-4.8,5.1-13.4,6.4-17.7c1.5-5.1,1.5-8.1-0.1-8.7C16.2,1.8,13.8,0.9,11.3,0C11.3,0,11.3,0,11.3,0z"/>
		<path class="st1" d="M53,57.2L53,57.2c1.3,1.3,1.3,3.5,0,4.9l-2.1,2.1c-1.3,1.3-3.5,1.3-4.9,0l0,0c-1.3-1.3-1.3-3.5,0-4.9l2.1-2.1
			C49.5,55.9,51.7,55.9,53,57.2L53,57.2z"/>
		<path class="st1" d="M48.6,48.4L48.6,48.4c1.3,1.3,1.3,3.5,0,4.9l-6.9,7c-1.3,1.3-3.5,1.3-4.9,0l0,0c-1.3-1.3-1.3-3.5,0-4.9
			l6.9-6.9C45.1,47.1,47.3,47.1,48.6,48.4L48.6,48.4z"/>
		<path class="st1" d="M41.1,42.8L41.1,42.8c1.3,1.3,1.3,3.5,0,4.9l-5.5,5.6c-1.3,1.3-3.5,1.3-4.9,0l0,0c-1.3-1.3-1.3-3.5,0-4.9
			l5.5-5.5C37.6,41.4,39.8,41.4,41.1,42.8L41.1,42.8z"/>
		<path class="st1" d="M33,37.8L33,37.8c1.3,1.3,1.3,3.5,0,4.9l-2.8,2.8c-1.3,1.3-3.5,1.3-4.9,0l0,0c-1.3-1.3-1.3-3.5,0-4.9l2.8-2.8
			C29.4,36.4,31.6,36.4,33,37.8L33,37.8z"/>
		<g>
			<path class="st0" d="M59.9,5.4c-6,1.6-12.2,3.3-13.5,5.9c-0.6,1.2-1.6,4-2.6,7c-1.3,3.9-2.6,8.2-3.1,9.9c0.7,0.6,2.2,1.7,4.1,1.6
				c0.1,0,0.2,0,0.3,0c0.1,0,0.1,0,0.2,0c0.2,0,0.3,0,0.5-0.1c0.2,0,0.3-0.1,0.5-0.1c0,0,0,0,0.1,0c4.9-1.6,6.8-8.4,6.6-12.9
				c0-0.7,0.5-1.3,1.2-1.3c0.7,0,1.3,0.5,1.3,1.2c0,0.4,0,0.9,0,1.3c8.9,5.5,15.4,7.9,21.7,4.7c0.6-0.3,1.4-0.1,1.7,0.6
				c0.3,0.6,0.1,1.4-0.6,1.7c-2.1,1.1-4.2,1.6-6.4,1.7l0,0c4.2,4.1,8.3,8.2,12.3,12.3c1.4,1.4,2.8,2.8,4.1,4.2
				c0.3,0.3,0.5,0.5,0.7,0.8c0.1-0.1,0.3-0.3,0.5-0.4c2.4-2.3,7.7-7.4,14.6-8.7c-4.6-10-7.7-18.8-9.5-27c-1.6,0.7-4.3,1.5-7.8,1.5
				c-1.5,0-3-0.2-4.4-0.5c-2.4-0.5-4.8-1.2-7.1-1.9c-3.7-1.1-7.2-2.2-10.6-2.2c-1.2,0-2.4,0.1-3.5,0.4L59.9,5.4z"/>
		</g>
		<g>
			<path class="st1" d="M59.2,61.1c-1-0.9-1.9-1.8-2.8-2.7c0.1,0.5,0.2,1,0.2,1.5c0,1.6-0.6,3.1-1.7,4.2l-0.3,0.3
				c0.6,0.5,1.2,0.9,1.8,1.3c2.4,1.6,4.7,2.5,6.3,2.5c0.7,0,1.1-0.2,1.4-0.5c0.3-0.4,0.4-1,0.3-1.9C62.7,64.5,60.9,62.8,59.2,61.1z"
				/>
			<path class="st1" d="M86.4,44.8c-1.4-1.4-2.8-2.8-4.1-4.2c-4.7-4.8-9.5-9.6-14.5-14.4c-3.9-0.8-8.1-2.7-12.8-5.5
				c-0.8,4.8-3.4,10.2-8.8,11.5c-0.6,0.1-1.2,0.2-1.7,0.2c-3.7,0-6.2-2.8-6.3-3c-0.3-0.3-0.4-0.8-0.3-1.2c0.2-0.6,4.4-14.8,6.2-18.2
				c0.3-0.5,0.6-0.9,1-1.4C43.5,8.3,41.9,8,40.2,8c-1.6,0-3.4,0.2-5.4,0.6c-1.5,0.3-3,0.4-4.4,0.4l0,0c-3.5,0-6.3-0.9-7.9-1.5
				c-2.2,9.1-5.3,18-9.5,27c4.1,0.7,7.6,2.8,10.2,4.8c0.1-0.1,0.2-0.2,0.3-0.3l2.8-2.8c1.1-1.1,2.6-1.7,4.2-1.7
				c1.6,0,3.1,0.6,4.2,1.7c1,1,1.6,2.3,1.7,3.7c0.7-0.3,1.5-0.4,2.2-0.4c1.6,0,3.1,0.6,4.2,1.8c1.1,1.1,1.7,2.6,1.7,4.1
				c0.5-0.1,1-0.2,1.5-0.2c1.6,0,3.1,0.6,4.2,1.8c1.1,1.1,1.7,2.6,1.7,4.2c0,0,0,0.1,0,0.1c0.2,0.1,0.4,0.2,0.6,0.3
				c1.2,1.2,6.8,6.4,10.5,9.9l2.9,2.8c0,0,0.1,0.1,0.1,0.1c0,0,0.1,0.1,0.1,0.1c0.5,0.5,1,0.9,1.4,1.3c1.2,0.8,2.3,1.2,3.4,1.2
				c1.2,0,2.1-0.5,2.7-1.3c0.5-0.8,0.5-1.8,0.1-2.8L58.2,47c-0.5-0.5-0.5-1.3,0-1.8c0.5-0.5,1.3-0.5,1.8,0l14.9,15
				c0,0,0.1,0.1,0.1,0.1h0c0,0,0,0,0,0c0.2,0.2,0.5,0.4,0.8,0.8c0.5,0.2,1,0.3,1.6,0.3c1.4,0,3.2-0.6,4.1-2c0.6-1.1,0.6-2.4-0.1-3.9
				L67.6,41.6c-0.2-0.2-0.4-0.6-0.4-0.9c0-0.3,0.1-0.7,0.4-0.9c0.5-0.5,1.3-0.5,1.8,0l13.9,14c0.8,0.4,1.6,0.7,2.4,0.7
				c1.6,0,3.1-0.9,3.6-2.2C90.2,50.2,89.1,47.5,86.4,44.8z"/>
		</g>
	</g>
</g>
</svg>
