<?xml version="1.0" encoding="utf-8"?>
<!-- Generator: Adobe Illustrator 21.0.1, SVG Export Plug-In . SVG Version: 6.00 Build 0)  -->
<svg version="1.1" id="Layer_1" xmlns="http://www.w3.org/2000/svg" xmlns:xlink="http://www.w3.org/1999/xlink" x="0px" y="0px"
	 viewBox="0 0 102.3 102.3" style="enable-background:new 0 0 102.3 102.3;" xml:space="preserve">
<style type="text/css">
	.st0{fill:#404040;}
</style>
<g>
	<circle class="st0" cx="51.1" cy="51.1" r="10.9"/>
	<g>
		<path class="st0" d="M51.1,102.3c-10.1,0-18-22.5-18-51.1S41.1,0,51.1,0c10.1,0,18,22.5,18,51.1S61.2,102.3,51.1,102.3z M51.1,2
			c-8.7,0-16,22.5-16,49.1s7.3,49.1,16,49.1s16-22.5,16-49.1S59.8,2,51.1,2z"/>
	</g>
	<g>
		<path class="st0" d="M51.1,69.1C22.5,69.1,0,61.2,0,51.1s22.5-18,51.1-18c28.7,0,51.1,7.9,51.1,18S79.8,69.1,51.1,69.1z
			 M51.1,35.2C24.5,35.2,2,42.5,2,51.1s22.5,16,49.1,16c26.6,0,49.1-7.3,49.1-16S77.8,35.2,51.1,35.2z"/>
	</g>
	<g>
		<path class="st0" d="M80.9,89.6c-9.9,0-26.5-9.8-42.5-25.7l0,0C28.9,54.3,21.2,44.1,16.7,35c-4.6-9.4-5.2-16.5-1.7-20
			c3.5-3.5,10.6-2.9,20,1.7c9.1,4.5,19.3,12.2,28.9,21.7c20.3,20.3,30.6,41.7,23.5,48.9C85.8,88.8,83.6,89.6,80.9,89.6z M39.9,62.4
			c18.8,18.8,39.9,29.6,46,23.5c6.1-6.1-4.6-27.2-23.5-46C53,30.5,43,22.9,34.1,18.5c-8.4-4.2-14.9-4.9-17.7-2.1
			c-2.8,2.8-2.1,9.3,2.1,17.7C22.9,43,30.5,53,39.9,62.4L39.9,62.4z"/>
	</g>
	<g>
		<path class="st0" d="M21.4,89.6c-2.7,0-4.9-0.7-6.4-2.3c-7.1-7.1,3.2-28.6,23.5-48.9l0,0l0,0c9.5-9.5,19.8-17.3,28.9-21.7
			c9.4-4.6,16.5-5.2,20-1.7c3.5,3.5,2.9,10.6-1.7,20c-4.5,9.1-12.2,19.3-21.7,28.9C47.9,79.8,31.3,89.6,21.4,89.6z M80.9,14.7
			c-3.3,0-7.6,1.3-12.7,3.8c-8.9,4.4-18.9,12-28.3,21.4l0,0C21,58.7,10.3,79.8,16.4,85.9c6.1,6.1,27.2-4.6,46-23.5
			c9.4-9.4,17-19.5,21.4-28.3c4.2-8.4,4.9-14.9,2.1-17.7C84.8,15.3,83.1,14.7,80.9,14.7z"/>
	</g>
	<circle class="st0" cx="17.2" cy="14.8" r="5.5"/>
	<circle class="st0" cx="86.9" cy="29.1" r="5.5"/>
	<circle class="st0" cx="6.9" cy="59.3" r="5.5"/>
	<circle class="st0" cx="59.8" cy="94.3" r="5.5"/>
</g>
</svg>
