<?xml version="1.0" encoding="utf-8"?>
<!-- Generator: Adobe Illustrator 21.0.1, SVG Export Plug-In . SVG Version: 6.00 Build 0)  -->
<svg version="1.1" id="Layer_1" xmlns="http://www.w3.org/2000/svg" xmlns:xlink="http://www.w3.org/1999/xlink" x="0px" y="0px"
	 viewBox="0 0 397.4 384.3" style="enable-background:new 0 0 397.4 384.3;" xml:space="preserve">
<style type="text/css">
	.st0{opacity:0.17;fill:url(#SVGID_1_);}
	.st1{fill:#E97269;}
	.st2{fill:none;stroke:#404040;stroke-miterlimit:10;}
	.st3{fill:none;stroke:#404040;stroke-miterlimit:10;stroke-dasharray:2.0603,4.1206;}
	.st4{fill:none;stroke:#404040;stroke-miterlimit:10;stroke-dasharray:1.9875,3.9749;}
	.st5{fill:#404040;}
	.st6{fill:none;stroke:#404040;stroke-miterlimit:10;stroke-dasharray:1.9492,3.8984;}
	.st7{fill:#FFFBE7;}
	.st8{fill-rule:evenodd;clip-rule:evenodd;fill:#404040;}
	.st9{fill:#E97269;stroke:#FFFBE7;stroke-width:9;stroke-miterlimit:10;}
	.st10{fill:none;stroke:#404040;stroke-miterlimit:10;stroke-dasharray:2,4;}
</style>
<g>
	
		<radialGradient id="SVGID_1_" cx="361.4952" cy="-12308.4326" r="185.1862" gradientTransform="matrix(0.8394 0 0 0.2532 -83.0698 3450.1597)" gradientUnits="userSpaceOnUse">
		<stop  offset="0" style="stop-color:#000000"/>
		<stop  offset="1" style="stop-color:#FFFFFF"/>
	</radialGradient>
	<ellipse class="st0" cx="220.4" cy="333.1" rx="155.4" ry="46.9"/>
	<g>
		<circle class="st1" cx="233" cy="184.3" r="122.5"/>
		<polygon class="st1" points="220.4,285.1 110.5,347.7 159.8,242.9 		"/>
	</g>
	<g>
		<g>
			<line class="st2" x1="266.9" y1="231.3" x2="267.6" y2="232"/>
			<line class="st3" x1="270.5" y1="234.9" x2="325.9" y2="290.2"/>
			<polyline class="st2" points="327.3,291.7 328,292.4 328,293.4 			"/>
			<line class="st4" x1="328" y1="297.4" x2="328" y2="337.1"/>
			<line class="st2" x1="328" y1="339.1" x2="328" y2="340.1"/>
			<g>
				
					<ellipse transform="matrix(0.7071 -0.7071 0.7071 0.7071 -85.4056 256.5935)" class="st5" cx="267" cy="231.4" rx="3.8" ry="3.8"/>
			</g>
			<g>
				<circle class="st5" cx="328" cy="339.9" r="3.8"/>
			</g>
		</g>
	</g>
	<g>
		<g>
			<line class="st2" x1="95.4" y1="255.1" x2="96.4" y2="255.1"/>
			<line class="st6" x1="100.3" y1="255.1" x2="145.1" y2="255.1"/>
			<line class="st2" x1="147" y1="255.1" x2="148" y2="255.1"/>
			<g>
				<circle class="st5" cx="95.6" cy="255.1" r="3.8"/>
			</g>
			<g>
				<circle class="st5" cx="147.9" cy="255.1" r="3.8"/>
			</g>
		</g>
	</g>
	<g>
		<path class="st7" d="M279.7,151.4c0,32.7-35.7,30.9-35.7,52.3v3.8H212v-5c0-34.9,30.5-32.9,30.5-47.7c0-6.2-4.4-9.6-12-9.6
			c-7.6,0-15.2,4-22.1,11.6l-22.1-17.6c11.2-13.2,26.3-21.8,48.1-21.8C264.7,117.5,279.7,133.2,279.7,151.4z M247.5,244.2
			c0,10.6-8.6,19.1-19.4,19.1c-10.6,0-19.2-8.6-19.2-19.1c0-10.6,8.6-19.4,19.2-19.4C239,224.8,247.5,233.6,247.5,244.2z"/>
	</g>
	<g>
		<g>
			<g>
				<path class="st5" d="M302.3,115C302.3,115,302.3,114.9,302.3,115c0-0.3,0.3-0.4,0.5-0.4l50.7,9.8c0.2,0,0.4,0.2,0.3,0.5
					c0,0.2-0.2,0.3-0.5,0.3l-50.7-9.8C302.5,115.3,302.3,115.2,302.3,115z"/>
			</g>
			<g>
				<path class="st5" d="M353.1,124.8c0,0,0-0.1,0-0.1c0.1-0.2,0.3-0.3,0.5-0.2l38.5,14.5c0.2,0.1,0.3,0.3,0.2,0.5
					c-0.1,0.2-0.3,0.3-0.5,0.2l-38.5-14.5C353.2,125.1,353.1,125,353.1,124.8z"/>
			</g>
			<g>
				<path class="st5" d="M302.3,115c0-0.1,0.1-0.3,0.3-0.3c0.2-0.1,0.4,0,0.5,0.2l12.4,32.8c0.1,0.2,0,0.4-0.2,0.5
					c-0.2,0.1-0.4,0-0.5-0.2l-12.4-32.8C302.4,115.1,302.3,115,302.3,115z"/>
			</g>
			<g>
				<path class="st5" d="M314.7,147.7c0-0.1,0-0.1,0-0.2c0.1-0.2,0.3-0.3,0.5-0.2l32.1,17.1c0.2,0.1,0.3,0.3,0.2,0.5
					c-0.1,0.2-0.3,0.3-0.5,0.2l-32.1-17.1C314.8,148,314.7,147.9,314.7,147.7z"/>
			</g>
			<g>
				<path class="st5" d="M317.7,185.2c0-0.1,0-0.1,0.1-0.2c0.1-0.2,0.3-0.3,0.5-0.1l37.9,21.6c0.2,0.1,0.2,0.3,0.1,0.5
					c-0.1,0.2-0.3,0.3-0.5,0.1l-37.9-21.6C317.8,185.5,317.7,185.3,317.7,185.2z"/>
			</g>
			<g>
				<path class="st5" d="M361.1,244.6c0-0.1,0-0.2,0.1-0.2l29.7-33.8l-14.6-33.9c-0.1-0.2,0-0.4,0.2-0.5c0.2-0.1,0.4,0,0.5,0.2
					l14.7,34.2c0.1,0.1,0,0.3-0.1,0.4l-29.9,34c-0.1,0.2-0.4,0.2-0.5,0C361.2,244.8,361.1,244.7,361.1,244.6z"/>
			</g>
			<g>
				<path class="st5" d="M355.6,206.7c0-0.2,0.1-0.3,0.3-0.4c0.2,0,0.4,0.1,0.4,0.3l5.5,37.9c0,0.2-0.1,0.4-0.3,0.4
					c-0.2,0-0.4-0.1-0.4-0.3L355.6,206.7C355.6,206.8,355.6,206.8,355.6,206.7z"/>
			</g>
			<g>
				<path class="st5" d="M376.3,176.5c0,0,0-0.1,0-0.1l15.3-37.2c0.1-0.2,0.3-0.3,0.5-0.2c0.2,0.1,0.3,0.3,0.2,0.5l-15.3,37.2
					c-0.1,0.2-0.3,0.3-0.5,0.2C376.4,176.8,376.3,176.6,376.3,176.5z"/>
			</g>
			<g>
				<path class="st5" d="M346.8,164.8C346.8,164.8,346.8,164.8,346.8,164.8l6.3-40c0-0.2,0.2-0.4,0.4-0.3c0.2,0,0.4,0.2,0.3,0.4
					l-6.3,40c0,0.2-0.2,0.4-0.4,0.3C346.9,165.2,346.8,165,346.8,164.8z"/>
			</g>
			<g>
				<path class="st5" d="M317.7,185.2c0-0.1,0.1-0.2,0.2-0.3l29.1-20.4c0.2-0.1,0.4-0.1,0.5,0.1c0.1,0.2,0.1,0.4-0.1,0.5l-29.1,20.4
					c-0.2,0.1-0.4,0.1-0.5-0.1C317.7,185.3,317.7,185.3,317.7,185.2z"/>
			</g>
			<g>
				<path class="st5" d="M314.7,147.7c0-0.2,0.2-0.3,0.4-0.4c0.2,0,0.4,0.1,0.4,0.4l3,37.4c0,0.2-0.1,0.4-0.4,0.4s-0.4-0.1-0.4-0.4
					L314.7,147.7C314.7,147.8,314.7,147.8,314.7,147.7z"/>
			</g>
			<g>
				<path class="st5" d="M314.7,147.7c0-0.1,0.1-0.2,0.2-0.3l38.4-22.9c0.2-0.1,0.4,0,0.5,0.1c0.1,0.2,0,0.4-0.1,0.5l-38.4,22.9
					c-0.2,0.1-0.4,0-0.5-0.1C314.7,147.9,314.7,147.8,314.7,147.7z"/>
			</g>
			<g>
				<path class="st5" d="M346.8,164.8c0,0,0-0.1,0-0.1c0.1-0.2,0.3-0.3,0.5-0.2l29.5,11.7c0.1,0,0.2,0.1,0.2,0.2
					c0,0.1,0,0.2-0.1,0.3L356.3,207c-0.1,0.2-0.4,0.2-0.5,0.1c-0.2-0.1-0.2-0.4-0.1-0.5l20.4-29.9L347,165.2
					C346.9,165.1,346.8,165,346.8,164.8z"/>
			</g>
			<g>
				<path class="st5" d="M346.8,164.8c0-0.2,0.1-0.3,0.3-0.4c0.2,0,0.4,0.1,0.5,0.3l8.8,41.9c0,0.2-0.1,0.4-0.3,0.5
					c-0.2,0-0.4-0.1-0.5-0.3l-8.8-41.9C346.8,164.9,346.8,164.8,346.8,164.8z"/>
			</g>
			<g>
				<path class="st5" d="M355.6,206.7C355.6,206.7,355.6,206.7,355.6,206.7c0-0.2,0.2-0.4,0.4-0.4l35.4,3.9c0.2,0,0.4,0.2,0.3,0.4
					c0,0.2-0.2,0.4-0.4,0.3l-35.4-3.9C355.8,207.1,355.6,206.9,355.6,206.7z"/>
			</g>
			<g>
				<path class="st5" d="M346.8,164.8c0-0.1,0.1-0.2,0.2-0.3l44.8-25.5c0.2-0.1,0.4,0,0.5,0.1c0.1,0.2,0,0.4-0.1,0.5l-44.8,25.5
					c-0.2,0.1-0.4,0-0.5-0.1C346.8,164.9,346.8,164.9,346.8,164.8z"/>
			</g>
		</g>
		<g>
			
				<ellipse transform="matrix(5.778375e-02 -0.9983 0.9983 5.778375e-02 208.428 470.4655)" class="st5" cx="353.5" cy="124.8" rx="4" ry="4"/>
			
				<ellipse transform="matrix(5.778375e-02 -0.9983 0.9983 5.778375e-02 230.283 522.5811)" class="st5" cx="392" cy="139.3" rx="5.4" ry="5.4"/>
			
				<ellipse transform="matrix(5.778375e-02 -0.9983 0.9983 5.778375e-02 149.5318 453.645)" class="st5" cx="315.1" cy="147.6" rx="2.5" ry="2.5"/>
			
				<ellipse transform="matrix(5.778375e-02 -0.9983 0.9983 5.778375e-02 170.4378 410.5763)" class="st5" cx="302.7" cy="115" rx="7.1" ry="7.1"/>
			
				<ellipse transform="matrix(5.778375e-02 -0.9983 0.9983 5.778375e-02 162.6363 501.9581)" class="st5" cx="347.2" cy="164.8" rx="7.7" ry="7.7"/>
			
				<ellipse transform="matrix(5.778375e-02 -0.9983 0.9983 5.778375e-02 178.7496 542.3546)" class="st5" cx="376.7" cy="176.5" rx="4" ry="4"/>
			
				<ellipse transform="matrix(5.778375e-02 -0.9983 0.9983 5.778375e-02 158.4712 589.2014)" class="st5" cx="391.4" cy="210.6" rx="2.8" ry="2.8"/>
			
				<ellipse transform="matrix(5.778375e-02 -0.9983 0.9983 5.778375e-02 129.0378 550.2333)" class="st5" cx="356" cy="206.8" rx="2.3" ry="2.3"/>
			
				<ellipse transform="matrix(5.778375e-02 -0.9983 0.9983 5.778375e-02 114.8181 492.049)" class="st5" cx="318.1" cy="185.2" rx="4" ry="4"/>
			
				<ellipse transform="matrix(5.778375e-02 -0.9983 0.9983 5.778375e-02 96.422 591.4179)" class="st5" cx="361.5" cy="244.6" rx="4" ry="4"/>
		</g>
	</g>
	<g>
		<g>
			<path class="st8" d="M289.6,23.3c3,0,5.4,2.4,5.4,5.4v1.7l-8.9,4.5c-1.4,0.8-1.9,1.4-1.9,3.2v0.3c-7.9,0.9-14.5,2.2-19.2,3.7
				V28.7c0-3,2.4-5.4,5.4-5.4h5.3c-0.1-0.8-0.2-1.3-0.6-1.5c-4.6-2.1-6.4-5.4-6.4-5.4s0.6-8.5,4.1-12.4c3.6-3.9,8-2.4,8-2.4
				c5.7-2,13.4,10.5,8.8,16.3c-1.2,1.5-2.4,3.1-4.9,4.1c-0.3,0.1-0.4,0.6-0.5,1.3H289.6L289.6,23.3z M276.2,23.3L276.2,23.3
				c-0.4,4.3,3.6,3.6,3.6,6.8c0,0.7-0.3,1-0.6,1.2c-0.9,0.6-0.4,1.8,0.8,1.8c1.1,0,1.7-1.2,0.8-1.8c-0.4-0.2-0.6-0.5-0.6-1.2
				c0-0.6,0.1-1,0.3-1.4l0,0c1-1.7,3.6-1.8,3.2-5.4l0,0l0-0.1v-2.5c-1.2,1.1-2.5,1.9-3.8,1.8c-1.5-0.1-2.6-0.6-3.6-1.6L276.2,23.3
				L276.2,23.3L276.2,23.3z M286.4,14.7c-1.7-0.7-7.2-3.3-7.2-9.2c0,0-5.2-1-5.3,6.4c0,0.1,0,0.1,0,0.2c-0.2-0.1-0.5-0.1-0.6,0.1
				c-0.3,0.5,0,3,0.5,3.4c0.1,0.1,0.3,0.2,0.5,0.1c0.3,1.4,1,3.7,2.1,4.7c0.9,0.8,2.2,1.4,3.4,1.4h0.1c1.4,0,2.9-0.9,3.9-2
				c0.9-1,1.5-2.3,1.5-3.8C285.3,16.1,286.8,15.9,286.4,14.7z"/>
			<g>
				<path class="st8" d="M308.8,0c9.8,0.3,10.4,6.4,10.4,13.3c0,0.1,0,0.3,0,0.5c-0.1,1.1,0.4,0.3,0.6,1c0.5,1.5-0.3,3.6-1.1,4.3
					c-0.5,0.5-0.7,0.1-0.9,0.4c-0.7,1.3-0.9,4.4-3.3,6c-3.3-0.6-8.1-0.6-11.3,0c-2.4-1.7-2.6-4.7-3.3-6c-0.2-0.3-0.4,0.1-0.9-0.4
					c-0.8-0.7-1.5-2.8-1.1-4.3c0.2-0.7,0.7,0.1,0.6-1c0-0.2,0-0.4,0-0.5C298.4,6.4,298.9,0.3,308.8,0z"/>
				<path class="st8" d="M316.8,29.5c0.8,1.1,1.5,1.6,3.3,2.5l9,4.6c1.2,0.7,1.8,1.3,1.8,2.8v15.8v0.9c0,2.8-2.3,5.1-5.1,5.1h-34
					c-2.8,0-5.1-2.3-5.1-5.1v-0.9V39.4c0-1.6,0.5-2.1,1.8-2.8l9-4.6c1.8-0.9,2.5-1.5,3.3-2.5C304.3,28.1,313.3,28.1,316.8,29.5z"/>
			</g>
			<path class="st8" d="M284.2,53.2c-13.6-1.1-22.6-3.2-22.6-5.6c0-2.4,9.1-4.4,22.6-5.6V53.2z"/>
		</g>
	</g>
	<g>
		<g>
			<path class="st5" d="M273.2,358l10.9-12.9c2.6-2.7,4.1-6.3,4.1-10.4c0-8.3-6.7-15.1-15.1-15.1c-8.3,0-15.1,6.7-15.1,15.1
				c0,4,1.6,7.7,4.1,10.4L273.2,358z M273.2,326.7c4.4,0,8,3.6,8,8c0,4.4-3.6,8-8,8c-4.4,0-8-3.6-8-8
				C265.2,330.3,268.8,326.7,273.2,326.7z"/>
			<path class="st5" d="M289.6,323.8c0.4,0.7,0.8,1.4,1.1,2.1c0.2,0.4,0.4,0.9,0.6,1.3c0,0.1,0,0.1,0.1,0.2c0.1,0.4,0.3,0.8,0.4,1.2
				c0.5,1.6,0.7,3.2,0.8,5c1-0.2,2.5,0.3,2.7-0.4c0.1-0.2,0.2-0.4,0.4-0.6c0.3,0.4,0.7,0.9,1,1.4c0.4,0.6,0.8,1.3,1.2,2
				c-1.7-0.6-3.5-1.1-5.3-1.5c0,0.6-0.1,1.3-0.1,1.9c1.5,0.3,3,0.8,4.4,1.3c-0.3,0.4-0.3,0.8,0.4,1.1c0.9,0.3,1.5,0.2,2,0.1
				c0.4,1,0.8,2,1.1,3c-0.1,0-0.1,0.1-0.2,0.1c-1.8,0.9-2.7,2.6-1.3,2.4c0.7-0.1,1.4-0.2,2-0.5c0.1,0.3,0.2,0.7,0.2,1
				c-1.4,0.3-2.7,0.7-3.3,1.5c-0.3,0.5-1,1.2-1.6,1.9c-2-0.2-4.1-0.3-6.4-0.4c0-1.2-0.1-2.4-0.2-3.5c-0.5,0.8-1.1,1.7-1.7,2.4
				c0,0.3,0,0.7,0,1c-0.3,0-0.6,0-0.9,0l-1.6,1.8c0.9,0,1.7,0,2.6,0.1c0,1.4,0.1,2.9,0.1,4.4c0,1.5,0,3-0.1,4.4c-0.3,0-0.5,0-0.8,0
				c-0.4-0.6-0.5-1.6-1.3-1.6c-1.3-0.1-1.3-1.5-3.3-2.2c-0.4-0.1-0.8-0.2-1.2-0.3l-3.5,4.1l0,0l-1.5,1.8c0,0,0,0,0,0L274,363
				c0.7,0.5,1.5,0.8,2.2,0.7c1.5-0.1,0.2,4.3,0.1,7.8c-2.8-0.5-5.5-1.3-7.9-2.4c-1.3-3.1-2.3-6.5-2.8-10.2c1.2,0.2,2.4,0.3,3.7,0.5
				l-1.8-2.1c-0.7-0.1-1.4-0.2-2.1-0.3c-0.1-0.8-0.1-1.6-0.1-2.4l-1.9-2.2c0,0.4,0,0.9,0,1.3c0,1,0,2,0.1,2.9c0,0,0,0,0,0
				c-2.8-0.5-5-1.1-6.3-1.7c0-0.4,0-0.8,0-1.2c0-0.4,0-0.8,0-1.2c1.1-0.5,2.9-1,5.1-1.5l-1.3-1.6c-1.4,0.3-2.6,0.7-3.6,1.1
				c0.2-1.5,0.5-2.9,0.9-4.3c0,0,0,0,0,0l0,0c0,0,0,0,0,0c-0.2-0.3-0.5-0.6-0.7-0.9c-0.1-0.1-0.1-0.2-0.2-0.3c-0.7-1-1.3-2-1.8-3.1
				c-1.5,3.6-2.4,7.6-2.4,11.8c0,16.9,13.7,30.6,30.6,30.6c16.9,0,30.6-13.7,30.6-30.6C314.3,338.9,303.7,326.5,289.6,323.8z
				 M291.2,379.2c-1.4,0.4-2.9,0.7-4.4,0.9c0.6-1.5,1.2-3.5,1.6-5.8c0-0.2,0.1-0.3,0.1-0.5c3.3-0.4,6.5-1.1,9.3-2.2
				c-0.4,0.7-0.8,1.4-1.2,2C295.1,376,293.3,377.9,291.2,379.2z M287.8,362c0.1,0,0.1-0.1,0.2-0.1c-0.2,3.8-0.6,7.2-1,10.2
				c-1.1,0.1-2.1,0.1-3.2,0.1c-0.9,0-1.7,0-2.5-0.1c1.3-1.2,2.7-2.3,2.9-3.5c0.2-1.4,2.4-0.8,3-3C287.7,363.5,285.6,363,287.8,362z
				 M281.7,377.7c0.5-0.2,0.6-0.8-0.3-1.2c-0.2-0.8-0.3-1.6-0.5-2.5c0,0,0,0,0,0c1,0.1,1.9,0.1,2.9,0.1c1,0,2,0,2.9-0.1c0,0,0,0,0,0
				c-0.5,2.8-1.1,5-1.7,6.3c-0.4,0-0.8,0-1.2,0c-0.4,0-0.8,0-1.2,0C282.2,379.6,282,378.7,281.7,377.7z M288.9,371.9
				c0.5-3.4,0.9-7.5,1.1-11.9c4.4-0.2,8.5-0.6,11.9-1.1c-0.5,3.7-1.4,7.2-2.7,10.2C296.1,370.5,292.6,371.4,288.9,371.9z
				 M303.8,358.6c0.2,0,0.4-0.1,0.5-0.1c0.3-0.1,0.6-0.1,0.9-0.2c0.9,1.2,2.3,2.5,2.9,4.4c-1.2,1.5-2.7,2.8-4.5,4
				c-0.6,0.4-1.3,0.8-2,1.2C302.7,365,303.4,361.9,303.8,358.6z M304,354.9c0.3,0.4,0.4,1,0.5,1.7c-0.2,0-0.4,0.1-0.5,0.1
				c0,0,0,0,0,0C304,356.1,304,355.5,304,354.9z M298.4,331.8c1.5,0.9,1.4,0.4,2.7,1.6c-0.1,0.5,0.1,1-1.2,1.9c0,0-0.1,0.1-0.1,0.1
				c-0.5-0.9-1-1.7-1.5-2.5c-0.2-0.3-0.5-0.7-0.7-1C297.8,331.8,298.1,331.8,298.4,331.8z M302.4,341.8c0.3-0.5,1-0.7,1.7-0.7
				c1.2,0.8,2.2,1.7,3.2,2.7c0.6,1.2,1,1.5-0.4,1.6c-1.8,0.1-1.5-2.5-3.1-1.6c-0.2,0.1-0.5,0.2-0.7,0.3
				C302.8,343.3,302.6,342.6,302.4,341.8z M290,349.4c1.7,0.1,3.3,0.2,4.9,0.3c-0.4,0.7-0.8,1.4-0.8,2.1c0,2,1.4,3.1,3.6,4.1
				c1.7,0.8,3.3,0.3,4.4-0.4c0,0.5,0,1-0.1,1.5c-3.4,0.5-7.5,0.9-12,1.1c0-1.4,0.1-2.9,0.1-4.3C290.1,352.3,290.1,350.8,290,349.4z
				 M276.4,373.4c0.5,2.2,2,3.3,3.3,3.9c0.3,1.1,0.6,2,0.9,2.8c-1.5-0.2-3-0.5-4.4-0.9c-2-1.4-3.9-3.3-5.4-5.6
				c-0.4-0.6-0.8-1.3-1.2-2C271.7,372.4,274,373,276.4,373.4z M263.2,358.5c0.2,0,0.4,0.1,0.5,0.1c0.4,3.3,1.1,6.5,2.2,9.3
				c-0.7-0.4-1.4-0.8-2-1.2c-2.3-1.6-4.2-3.4-5.6-5.4c-0.4-1.4-0.7-2.9-0.9-4.4C258.9,357.5,260.8,358,263.2,358.5z M260.3,366.3
				c0.8,0.7,1.6,1.3,2.5,1.9c1.3,0.9,2.7,1.6,4.1,2.3c0.7,1.5,1.5,2.9,2.3,4.1c0.6,0.9,1.2,1.7,1.9,2.5
				C266.6,374.7,262.8,370.9,260.3,366.3z M296.3,377.2c0.7-0.8,1.3-1.6,1.9-2.5c0.9-1.3,1.6-2.7,2.3-4.1c1.5-0.7,2.9-1.5,4.1-2.3
				c0.9-0.6,1.7-1.2,2.5-1.9C304.7,370.9,300.9,374.7,296.3,377.2z"/>
		</g>
	</g>
	<g>
		<rect x="18.2" y="255.8" class="st5" width="12" height="32.3"/>
		<rect x="50.6" y="246.4" class="st5" width="12" height="41.7"/>
		<rect x="33.9" y="231.1" class="st5" width="12" height="57"/>
		<g>
			<g>
				<path class="st5" d="M91,289.5c-2.1,0-4.1-0.8-5.6-2.3L68,269.6c-2.6,1.1-5.4,1.7-8.2,1.7c-11.5,0-20.8-9.3-20.8-20.8
					c0-11.5,9.3-20.8,20.8-20.8s20.8,9.3,20.8,20.8c0,2.7-0.5,5.4-1.6,7.9L96.6,276c1.5,1.5,2.3,3.5,2.3,5.6c0,2.1-0.8,4.1-2.3,5.6
					C95.1,288.6,93.1,289.5,91,289.5z M59.7,238.7c-6.5,0-11.8,5.3-11.8,11.8c0,6.5,5.3,11.8,11.8,11.8s11.8-5.3,11.8-11.8
					C71.5,244,66.2,238.7,59.7,238.7z"/>
				<path class="st7" d="M59.7,230.7c10.9,0,19.8,8.9,19.8,19.8c0,2.8-0.6,5.6-1.7,8.1l18.1,18.1c1.3,1.3,2,3,2,4.9
					c0,1.8-0.7,3.6-2,4.9c-1.3,1.3-3,2-4.9,2c-1.8,0-3.6-0.7-4.9-2l-18-18c-2.6,1.2-5.5,1.9-8.5,1.9c-10.9,0-19.8-8.9-19.8-19.8
					C39.9,239.6,48.8,230.7,59.7,230.7 M59.7,263.4c7.1,0,12.8-5.8,12.8-12.8c0-7.1-5.8-12.8-12.8-12.8c-7.1,0-12.8,5.8-12.8,12.8
					C46.9,257.6,52.6,263.4,59.7,263.4 M59.7,228.7c-12,0-21.8,9.8-21.8,21.8c0,12,9.8,21.8,21.8,21.8c2.7,0,5.5-0.5,8-1.5l17,17
					c1.7,1.7,3.9,2.6,6.3,2.6c2.4,0,4.6-0.9,6.3-2.6c1.7-1.7,2.6-3.9,2.6-6.3c0-2.4-0.9-4.6-2.6-6.3l-17.2-17.2
					c0.9-2.4,1.4-5,1.4-7.6C81.5,238.5,71.7,228.7,59.7,228.7L59.7,228.7z M59.7,261.4c-6,0-10.8-4.9-10.8-10.8
					c0-6,4.9-10.8,10.8-10.8c6,0,10.8,4.9,10.8,10.8C70.5,256.5,65.7,261.4,59.7,261.4L59.7,261.4z"/>
			</g>
		</g>
	</g>
	<path class="st9" d="M156.8,169.9c13-17.4,19.4-39.7,16.1-62.9c-6.7-46.3-49.6-78.3-95.9-71.6S-1.3,84.9,5.4,131.2
		c6.7,46.3,49.6,78.3,95.9,71.6c9.4-1.4,18.2-4.2,26.3-8.3l61.5,24.2L156.8,169.9z"/>
	<g>
		<g>
			<polyline class="st10" points="154.6,83.3 154.6,30.6 243.1,30.6 			"/>
			<g>
				<circle class="st5" cx="154.6" cy="83.1" r="3.8"/>
			</g>
			<g>
				<circle class="st5" cx="242.9" cy="30.6" r="3.8"/>
			</g>
		</g>
	</g>
	<g>
		<circle class="st5" cx="55.6" cy="119.7" r="9.7"/>
		<circle class="st5" cx="88.9" cy="119.7" r="9.7"/>
		<circle class="st5" cx="122.2" cy="119.7" r="9.7"/>
	</g>
</g>
</svg>
