<?xml version="1.0" encoding="utf-8"?>
<!-- Generator: Adobe Illustrator 21.0.1, SVG Export Plug-In . SVG Version: 6.00 Build 0)  -->
<svg version="1.1" id="Layer_1" xmlns="http://www.w3.org/2000/svg" xmlns:xlink="http://www.w3.org/1999/xlink" x="0px" y="0px"
	 viewBox="0 0 97.3 86.1" style="enable-background:new 0 0 97.3 86.1;" xml:space="preserve">
<style type="text/css">
	.st0{fill-rule:evenodd;clip-rule:evenodd;fill:#404040;}
</style>
<g>
	<g>
		<path class="st0" d="M39.3,32.7c4.2,0,7.6,3.4,7.6,7.6v2.4L34.5,49c-1.9,1.1-2.7,2-2.7,4.4v0.5c-11.1,1.2-20.4,3-27,5.2V40.3
			c0-4.2,3.4-7.6,7.6-7.6h7.5c-0.1-1.1-0.3-1.9-0.8-2.1C12.6,27.6,10,23,10,23s0.8-11.9,5.8-17.4c5-5.5,11.2-3.3,11.2-3.3
			c8-2.8,18.8,14.7,12.3,22.9c-1.7,2.1-3.3,4.3-6.9,5.8c-0.4,0.2-0.6,0.9-0.7,1.8H39.3L39.3,32.7z M20.6,32.7L20.6,32.7
			c-0.6,6.1,5,5.1,5,9.5c0,1-0.4,1.4-0.9,1.7c-1.2,0.9-0.5,2.5,1.1,2.5c1.6,0,2.3-1.6,1.1-2.5c-0.5-0.3-0.9-0.8-0.9-1.7
			c0-0.8,0.2-1.4,0.5-1.9l0,0c1.4-2.3,5-2.6,4.6-7.6l0,0l0-0.1V29c-1.6,1.6-3.5,2.6-5.4,2.6c-2-0.1-3.7-0.9-5.1-2.2v3.1L20.6,32.7
			L20.6,32.7z M34.9,20.7c-2.4-1-10-4.6-10-12.9c0,0-7.3-1.4-7.5,9c0,0.1,0,0.2,0,0.3c-0.3-0.1-0.7-0.1-0.9,0.2
			c-0.4,0.7,0.1,4.2,0.7,4.8c0.2,0.2,0.4,0.2,0.6,0.2c0.4,1.9,1.4,5.2,2.9,6.6c1.3,1.1,3.1,2,4.8,2h0.1c2,0.1,4.1-1.3,5.5-2.7
			c1.3-1.4,2.1-3.2,2.1-5.4C33.3,22.6,35.4,22.4,34.9,20.7z"/>
		<g>
			<path class="st0" d="M66.3,0c13.8,0.5,14.6,9,14.6,18.7c0,0.2,0,0.5-0.1,0.7c-0.2,1.6,0.5,0.4,0.9,1.4c0.7,2.1-0.4,5.1-1.5,6.1
				c-0.7,0.6-1,0.1-1.2,0.5c-1,1.8-1.3,6.1-4.7,8.5c-4.6-0.8-11.3-0.8-15.9,0c-3.3-2.3-3.7-6.6-4.7-8.5c-0.2-0.4-0.5,0.1-1.2-0.5
				c-1.1-1-2.2-4-1.5-6.1c0.3-1,1,0.2,0.9-1.4c0-0.3-0.1-0.5-0.1-0.7C51.7,9,52.5,0.5,66.3,0z"/>
			<path class="st0" d="M77.6,41.4c1.1,1.5,2.1,2.3,4.6,3.6l12.6,6.4c1.7,1,2.5,1.8,2.5,4v22.2v1.3c0,3.9-3.2,7.2-7.2,7.2H42.4
				c-3.9,0-7.2-3.2-7.2-7.2v-1.3V55.4c0-2.2,0.7-3,2.5-4L50.4,45c2.6-1.3,3.5-2.1,4.6-3.6C60,39.4,72.6,39.4,77.6,41.4z"/>
		</g>
		<path class="st0" d="M31.8,74.8C12.7,73.2,0,70.3,0,66.9c0-3.3,12.7-6.2,31.8-7.8V74.8z"/>
	</g>
</g>
</svg>
