<?xml version="1.0" encoding="utf-8"?>
<!-- Generator: Adobe Illustrator 21.0.1, SVG Export Plug-In . SVG Version: 6.00 Build 0)  -->
<svg version="1.1" id="Layer_1" xmlns="http://www.w3.org/2000/svg" xmlns:xlink="http://www.w3.org/1999/xlink" x="0px" y="0px"
	 viewBox="0 0 96.8 93.1" style="enable-background:new 0 0 96.8 93.1;" xml:space="preserve">
<style type="text/css">
	.st0{fill:#404040;}
	.st1{fill:#FFFBE7;}
</style>
<g>
	<g>
		<path class="st0" d="M80.5,53.8c-3,0-5.6-1.9-6.6-4.6c-0.9-2.4-0.4-5,1.2-7c0-0.1,0.1-0.3,0.1-0.4c-0.1-0.1-0.5-0.3-0.9-0.3
			c0,0,0,0-0.1,0l-12.8,4.8c0,0-4.6-12.4-4.8-12.9c-0.2-0.6-0.1-1.8,0.4-2.6c0.4-0.5,0.9-0.8,1.5-0.8c0.4,0,0.8,0.1,1.2,0.3l0.1,0
			l0.1,0c1.2,1,2.7,1.5,4.2,1.5c0.8,0,1.5-0.1,2.3-0.4c3.4-1.2,5.1-5,3.9-8.4c-0.9-2.5-3.4-4.3-6.1-4.3c-0.8,0-1.5,0.1-2.3,0.4
			c-2.3,0.9-3.9,2.9-4.2,5.3l0,0.2l-0.1,0.2c-0.5,0.6-1.1,0.9-1.9,0.9c-1,0-1.9-0.7-2.3-1.6l-4.7-12.8l0.6-0.3
			c0.2-0.1,0.5-0.2,0.8-0.3l26-9.6c0.9-0.3,1.8-0.5,2.7-0.5c3.3,0,6.3,2.1,7.4,5.1l9.6,26c0.1,0.3,0.2,0.7,0.3,1l0.1,0.6l-14.1,5.2
			c-0.1,0.1-0.3,0.3-0.3,0.6c0,0.1,0,0.3,0.1,0.4c2.5,0.4,4.6,2.1,5.5,4.5c1.4,3.7-0.5,7.7-4.2,9.1C82.1,53.6,81.3,53.8,80.5,53.8
			L80.5,53.8z"/>
		<path class="st1" d="M78.5,1.5c2.9,0,5.6,1.8,6.7,4.6l9.6,26c0.1,0.3,0.2,0.6,0.3,0.9l-13.5,5c-0.9,0.5-1.1,1.7-0.3,2.4
			c2.3,0.3,4.3,1.8,5.2,4.1c1.2,3.3-0.5,6.9-3.7,8.1c-0.7,0.3-1.5,0.4-2.2,0.4c-2.6,0-5-1.6-5.9-4.1c-0.8-2.2-0.3-4.6,1.1-6.3
			c0.7-1.3-0.6-1.8-1.4-1.8c-0.1,0-0.2,0-0.2,0l-12.2,4.5c-1.5-4.1-4.3-11.6-4.5-12.2c-0.2-0.7,0.1-2.4,1.2-2.4
			c0.2,0,0.5,0.1,0.8,0.2c1.3,1.1,3,1.7,4.7,1.7c0.8,0,1.7-0.1,2.5-0.5c3.8-1.4,5.7-5.6,4.3-9.3c-1.1-2.9-3.9-4.8-6.8-4.8
			c-0.8,0-1.7,0.1-2.5,0.5c-2.6,1-4.4,3.3-4.7,5.9c-0.3,0.4-0.8,0.6-1.3,0.6c-0.7,0-1.3-0.4-1.6-1.2c-0.4-1.1-3.2-8.7-4.5-12.1
			c0.2-0.1,0.5-0.2,0.7-0.3l26-9.6C76.8,1.6,77.6,1.5,78.5,1.5 M78.5,0c-1,0-2,0.2-3,0.5l-26,9.6c-0.3,0.1-0.6,0.2-0.8,0.4l-1.2,0.6
			l0.5,1.3l3.1,8.3l1.4,3.9c0.5,1.3,1.7,2.1,3,2.1c1,0,1.9-0.4,2.5-1.2l0.2-0.3l0-0.4c0.3-2.2,1.7-4,3.7-4.7c0.6-0.2,1.3-0.4,2-0.4
			c2.4,0,4.6,1.5,5.4,3.8c0.5,1.4,0.5,3-0.2,4.4c-0.6,1.4-1.8,2.5-3.2,3c-0.6,0.2-1.3,0.4-2,0.4c-1.4,0-2.7-0.5-3.7-1.4l-0.1-0.1
			L60,29.6c-0.5-0.3-1-0.4-1.6-0.4c-0.9,0-1.6,0.4-2.1,1.2c-0.6,0.9-0.8,2.3-0.5,3.2l1.2,3.2l3.4,9.1l0.5,1.4l1.4-0.5l11.6-4.3
			c-1.3,2.1-1.6,4.7-0.8,7c1.1,3.1,4.1,5.1,7.3,5.1c0.9,0,1.8-0.2,2.7-0.5c2-0.7,3.5-2.2,4.4-4.1c0.9-1.9,1-4,0.2-6
			c-0.9-2.4-2.8-4.1-5.1-4.8l12.9-4.8l1.2-0.5l-0.3-1.3c-0.1-0.4-0.2-0.7-0.3-1.1l-9.6-26C85.3,2.3,82.1,0,78.5,0L78.5,0z"/>
	</g>
	<g>
		<g>
			<path class="st0" d="M1,56.4l-0.1-0.7c0-0.3,0-0.6,0-0.8V27.1c0-4.4,3.5-7.9,7.9-7.9h27.7c0.3,0,0.7,0,1,0.1l0.7,0.1v15.1
				c0,0.3,0.3,0.6,0.7,0.6c0.1,0,0.1,0,0.2,0c1.3-2.3,3.6-3.6,6.2-3.6c3.9,0,7.1,3.2,7.1,7.1s-3.2,7.1-7.1,7.1
				c-2.5,0-4.9-1.3-6.1-3.5c-0.1-0.1-0.2-0.2-0.3-0.2c-0.2,0-0.5,0.4-0.6,0.8v13.8H1z"/>
			<path class="st1" d="M36.4,19.9c0.3,0,0.6,0,0.9,0.1v14.5c0.1,0.8,0.7,1.3,1.4,1.3c0.2,0,0.5-0.1,0.7-0.2c1.1-2,3.2-3.4,5.6-3.4
				c3.5,0,6.3,2.8,6.3,6.4c0,3.5-2.8,6.4-6.3,6.4c-2.4,0-4.4-1.3-5.5-3.2c-0.3-0.4-0.6-0.5-0.9-0.5c-0.7,0-1.3,0.9-1.4,1.4v13.1
				c-1.6,0-3.7,0-5.7,0c-3.6,0-7,0-7.4,0h-9.7c-0.6,0-3,0-5.6,0c-2.6,0-5.5,0-7.3,0c0-0.2,0-0.5,0-0.8V27.1c0-3.9,3.2-7.1,7.1-7.1
				H36.4 M36.4,18.4H8.7c-4.7,0-8.6,3.9-8.6,8.6v27.8c0,0.3,0,0.6,0,0.9l0.1,1.3h1.3h7.3h5.6h9.7h7.4h5.7h1.5v-1.5V43.1
				c1.5,2,3.8,3.2,6.3,3.2c4.3,0,7.8-3.5,7.8-7.9c0-4.3-3.5-7.9-7.8-7.9c-2.5,0-4.8,1.2-6.3,3.2V20v-1.3l-1.3-0.2
				C37.2,18.5,36.8,18.4,36.4,18.4L36.4,18.4z"/>
		</g>
		<g>
			<path class="st0" d="M8.6,92.4c-4.3,0-7.9-3.5-7.9-7.9V56.8c0-0.3,0-0.7,0.1-1l0.1-0.7H16c0.2,0,0.4-0.2,0.5-0.4
				c0.1-0.1,0.1-0.3,0-0.4c-2.3-1.3-3.6-3.6-3.6-6.2c0-3.9,3.2-7.1,7.1-7.1s7.1,3.2,7.1,7.1c0,2.5-1.3,4.9-3.5,6.1
				c-0.1,0.1-0.2,0.2-0.2,0.3c0.1,0.2,0.4,0.5,0.8,0.6H38v37.1l-0.7,0.1c-0.3,0-0.6,0-0.8,0H8.6z"/>
			<path class="st1" d="M20,41.8c3.5,0,6.4,2.8,6.4,6.3c0,2.4-1.3,4.4-3.2,5.5c-1.3,1,0.1,2.1,0.9,2.3h13.1c0,1.6,0,3.7,0,5.7
				c0,3.6,0,7,0,7.4v9.7c0,0.6,0,3,0,5.6c0,2.6,0,5.5,0,7.3c-0.2,0-0.5,0-0.8,0H8.6c-3.9,0-7.1-3.2-7.1-7.1V56.8
				c0-0.3,0-0.6,0.1-0.9H16c1-0.1,1.7-1.2,1.1-2.2c-2-1.1-3.4-3.2-3.4-5.6C13.7,44.6,16.5,41.8,20,41.8 M20,40.3
				c-4.3,0-7.9,3.5-7.9,7.8c0,2.5,1.2,4.8,3.2,6.3H1.6H0.2l-0.2,1.3C0,56.1,0,56.5,0,56.8v27.7c0,4.7,3.9,8.6,8.6,8.6h27.8
				c0.3,0,0.6,0,0.9,0l1.3-0.1v-1.3v-7.3v-5.6V69v-7.4v-5.7v-1.5h-1.5H24.7c2-1.5,3.2-3.8,3.2-6.3C27.9,43.8,24.4,40.3,20,40.3
				L20,40.3z"/>
		</g>
		<g>
			<path class="st0" d="M38.5,92.4c-0.3,0-0.7,0-1-0.1l-0.6-0.1V77.1c0-0.3-0.3-0.6-0.7-0.6c-0.1,0-0.1,0-0.2,0
				c-1.3,2.3-3.6,3.6-6.2,3.6c-3.9,0-7.1-3.2-7.1-7.1s3.2-7.1,7.1-7.1c2.5,0,4.8,1.3,6.1,3.5c0.1,0.1,0.2,0.2,0.3,0.2
				c0.2,0,0.5-0.4,0.6-0.8V55.2h14.9l0.2,0.1c0.6,0.4,1,1,1.1,1.6c0,0.4-0.1,1-0.8,1.6l-0.1,0l-0.1,0c-1.7,1-2.8,2.9-2.8,4.9
				c0,3.1,2.5,5.6,5.6,5.6s5.6-2.5,5.6-5.6c0-2.1-1.2-4-3-5l-0.2-0.1l-0.1-0.2c-0.6-1-0.4-2.2,0.5-2.8l0.2-0.2h16.1l0.1,0.7
				c0,0.3,0,0.6,0,0.8v27.8c0,4.4-3.5,7.9-7.9,7.9H38.5z"/>
			<path class="st1" d="M73.3,55.9c0,0.2,0,0.5,0,0.8v27.8c0,3.9-3.2,7.1-7.1,7.1H38.5c-0.3,0-0.6,0-0.9-0.1V77.1
				c-0.1-0.8-0.7-1.3-1.4-1.3c-0.2,0-0.5,0.1-0.7,0.2c-1.1,2-3.2,3.4-5.6,3.4c-3.5,0-6.3-2.8-6.3-6.4c0-3.5,2.8-6.4,6.3-6.4
				c2.4,0,4.4,1.3,5.5,3.2c0.3,0.4,0.6,0.5,0.9,0.5c0.7,0,1.3-0.9,1.4-1.4V55.9c1.6,0,3.7,0,5.7,0c3.6,0,7,0,7.4,0h0.9
				c0.6,0.4,1.1,1.2,0.2,2c-1.9,1.1-3.2,3.1-3.2,5.5c0,3.5,2.8,6.3,6.3,6.3c3.5,0,6.3-2.8,6.3-6.3c0-2.5-1.4-4.6-3.4-5.6
				c-0.4-0.7-0.2-1.4,0.3-1.9h2.2c0.6,0,3,0,5.6,0C68.6,55.9,71.5,55.9,73.3,55.9 M74.6,54.4h-1.3H66h-5.6h-2.2h-0.5l-0.4,0.3
				c-1.2,0.9-1.5,2.5-0.7,3.8l0.2,0.3l0.4,0.2c1.6,0.8,2.6,2.5,2.6,4.3c0,2.7-2.2,4.8-4.8,4.8S50,66.1,50,63.4
				c0-1.7,0.9-3.3,2.4-4.2l0.1-0.1l0.1-0.1c1-0.8,1.1-1.7,1-2.2c0-0.8-0.6-1.6-1.4-2.2L52,54.4h-0.5h-0.9h-7.4h-5.7h-1.5v1.5v12.5
				c-1.5-2-3.8-3.2-6.3-3.2c-4.3,0-7.8,3.5-7.8,7.9c0,4.3,3.5,7.9,7.8,7.9c2.5,0,4.8-1.2,6.3-3.2v13.8v1.3l1.3,0.2
				c0.4,0,0.7,0.1,1.1,0.1h27.7c4.7,0,8.6-3.9,8.6-8.6V56.7c0-0.3,0-0.6,0-0.9L74.6,54.4L74.6,54.4z"/>
		</g>
	</g>
</g>
</svg>
