<?xml version="1.0" encoding="utf-8"?>
<!-- Generator: Adobe Illustrator 21.0.1, SVG Export Plug-In . SVG Version: 6.00 Build 0)  -->
<svg version="1.1" id="Layer_1" xmlns="http://www.w3.org/2000/svg" xmlns:xlink="http://www.w3.org/1999/xlink" x="0px" y="0px"
	 viewBox="0 0 30.6 30.6" style="enable-background:new 0 0 30.6 30.6;" xml:space="preserve">
<style type="text/css">
	.st0{fill:#FFFBE7;}
	.st1{fill:#404040;}
</style>
<g>
	<g>
		<path class="st0" d="M-28.7,1C-37.1,1-44,7.9-44,16.3c0,8.5,6.9,15.3,15.3,15.3c8.5,0,15.3-6.9,15.3-15.3C-13.4,7.9-20.2,1-28.7,1
			z"/>
		<path class="st1" d="M-24,10.2h-1.7c-0.8,0-1.7,0.6-1.7,1.3V14h3.1v3.5h-3.1v8.9h-3.8v-8.9h-3.1V14h3.1v-3.4
			c0-2.1,1.9-3.7,3.6-3.7h3.6V10.2z"/>
	</g>
	<g>
		<path class="st0" d="M15.3,0C6.9,0,0,6.9,0,15.3c0,8.5,6.9,15.3,15.3,15.3c8.5,0,15.3-6.9,15.3-15.3C30.6,6.9,23.8,0,15.3,0z"/>
		<g>
			<path class="st1" d="M23.1,13.7C21.6,22.1,15.4,25.4,9.5,24c-2.4-0.6-4.4-1.9-5.9-3.7c1.8,0.1,3.5-0.3,5.1-1
				c-1.6-1.2-1.2-4-1.2-4S8.3,16,9,15.7C7,13,9.2,10.3,9.2,10.3c0.7,2,2.5,3.6,4.1,4.6c-0.3-0.8-0.3-1.8-0.1-2.7
				c0.6-2.7,3.4-4.4,6.1-3.7c1.2,0.3,2.1,0.9,2.8,1.8c0.3,0,2.9-0.1,2.9-0.1L23,11.9l2.4,0.6L23.1,13.7z"/>
			<ellipse transform="matrix(0.2315 -0.9728 0.9728 0.2315 4.4502 27.3506)" class="st0" cx="19.5" cy="10.9" rx="0.9" ry="0.9"/>
		</g>
	</g>
	<g>
		<path class="st0" d="M58.7,1c-8.5,0-15.3,6.9-15.3,15.3c0,8.5,6.9,15.3,15.3,15.3c8.5,0,15.3-6.9,15.3-15.3C74,7.9,67.2,1,58.7,1z
			"/>
		<g>
			<path class="st1" d="M62.5,25.5H55c-2.9,0-5.3-2.4-5.3-5.3v-8c0-2.9,2.4-5.3,5.3-5.3h7.6c2.9,0,5.3,2.4,5.3,5.3v8
				C67.8,23.1,65.4,25.5,62.5,25.5z M62.5,24.1c1,0,2-0.4,2.7-1.1c0.7-0.7,1.1-1.7,1.1-2.7v-8c0-1-0.4-2-1.1-2.7
				c-0.7-0.7-1.7-1.1-2.7-1.1H55c-1,0-2,0.4-2.7,1.1s-1.1,1.7-1.1,2.7v8c0,1,0.4,2,1.1,2.7c0.7,0.7,1.7,1.1,2.7,1.1H62.5z"/>
			<path class="st1" d="M63.7,16.1c0,2.7-2.2,5-5,5c-2.7,0-5-2.2-5-5s2.2-5,5-5C61.5,11.1,63.7,13.4,63.7,16.1z M58.7,12.9
				c-1.8,0-3.3,1.5-3.3,3.3s1.5,3.3,3.3,3.3s3.3-1.5,3.3-3.3S60.5,12.9,58.7,12.9z"/>
			<circle class="st1" cx="63.8" cy="11.1" r="1.2"/>
		</g>
	</g>
</g>
</svg>
