<?xml version="1.0" encoding="utf-8"?>
<!-- Generator: Adobe Illustrator 21.0.1, SVG Export Plug-In . SVG Version: 6.00 Build 0)  -->
<svg version="1.1" id="Layer_1" xmlns="http://www.w3.org/2000/svg" xmlns:xlink="http://www.w3.org/1999/xlink" x="0px" y="0px"
	 viewBox="0 0 748.7 118.5" style="enable-background:new 0 0 748.7 118.5;" xml:space="preserve">
<style type="text/css">
	.st0{fill:#FFFBE7;}
</style>
<g>
	<g>
		<path class="st0" d="M61.3,34.1L38.5,89.9L18.6,42.5c-2.1-5-4.9-9.6-11.2-9.6c0,0-0.1,0-0.1,0c-2.5,0-4.5,0.7-6.4,2.2l-0.2,0.1
			L0,36.4l1.7,4.7l1.9,0.5l0.5-0.4c0.7-0.6,1.8-0.9,2.6-0.9c1.8,0.1,3,1.6,5.1,6.6l24,56.1l5.2,0l27.3-66.3l0.2-0.6l-1-1.9
			L61.3,34.1z"/>
		<path class="st0" d="M128.6,42.4c-6.1-6.7-14.5-10.2-24.4-10.2c-0.1,0-0.2,0-0.3,0h0c-20,0.1-34.5,15.3-34.3,36.1
			c0.1,10.5,3.8,19.6,10.7,26.1c6.5,6.1,15.4,9.5,25,9.5c0.1,0,0.2,0,0.3,0c12.3-0.1,23.9-5.6,30.3-14.5l0.3-0.4l0-1.7l-4.2-3.3
			l-1.6,0l-0.4,0.6c-5,7.1-14.6,11.7-24.4,11.8c-0.1,0-0.1,0-0.2,0c-15,0-26.1-10.2-27.5-25.1l59.6-0.4l0.2-1.1
			c0.2-0.8,0.1-1.6,0.1-2.5C137.6,57.6,134.4,48.7,128.6,42.4z M104.3,39.7c14.2,0,23.7,9.2,25.2,24.2l-51.9,0.4
			c1.3-14.7,11.7-24.5,26.5-24.6C104.2,39.7,104.2,39.7,104.3,39.7z"/>
		<path class="st0" d="M217.8,94.6l-0.6,0.4c-0.9,0.6-1.6,0.9-2.5,0.9c-0.9,0-2.5,0-2.6-4.5l-0.6-81.4l-1.7-0.9l-6.1,1.1l0.2,33.9
			c-6.4-8-15.8-12.5-26.6-12.5c-0.1,0-0.2,0-0.3,0c-9.7,0.1-18.4,3.8-24.7,10.6c-6.2,6.6-9.5,15.7-9.5,25.5
			c0.1,20.4,14.9,35.7,34.4,35.7c0.1,0,0.2,0,0.3,0c10.9-0.1,20.5-4.8,26.8-13.1l0,2c0,3.2,0.9,5.9,2.5,7.8c1.7,2,4.2,3,7.1,3
			c2.4,0,4.7-0.8,6.3-2.2l0.1-0.1l0.8-1.2l-1.9-4.6L217.8,94.6z M177.8,39.2c7.4,0,14.1,2.7,18.9,7.7c5,5.2,7.7,12.3,7.8,20.6
			c0.1,16.5-11,28.5-26.5,28.6c-7.6,0.1-14.5-2.8-19.5-8.1c-4.8-5.2-7.5-12.3-7.6-20.2c-0.1-16.5,11.1-28.5,26.7-28.6
			C177.7,39.2,177.8,39.2,177.8,39.2z"/>
		<path class="st0" d="M288.7,94.7l-1.7-0.6l-0.6,0.4c-0.8,0.6-1.5,0.9-2.5,0.9c-0.7,0-2.5,0-2.6-4.5l-0.2-34.5
			c-0.1-8.3-3.3-15.1-9.3-19.6c-5-3.7-11.8-5.7-19.1-5.7c-0.1,0-0.2,0-0.3,0c-10.5,0.1-20,4.4-26.8,12.2l-0.4,0.4l0,1.6l4.1,3.5
			l1.5,0l0.4-0.5c5.9-6.5,12.9-9.8,20.7-9.8c5.6,0,10.8,1.5,14.6,4.3c4.3,3.1,6.5,7.6,6.6,13.1l0,5.8c-6.4-2.6-13.7-4-20.8-4
			c-17.8,0.1-29.2,9-29.2,22.7c0,6.8,2.8,12.5,8,16.6c4.8,3.7,11.3,5.8,18.6,5.8c0.1,0,0.2,0,0.3,0c9.6-0.1,18.2-3.6,23.6-9.7
			c0.2,2.6,1.1,4.8,2.5,6.4c1.7,2,4.1,3,7,3c0,0,0.1,0,0.1,0c2.4,0,4.7-0.8,6.3-2.2l0.1-0.1l0.8-1.2L288.7,94.7z M273.4,76.3
			c0,7.2-3.8,11.6-7,14.1c-4.2,3.2-10,5.1-15.9,5.1h0c-5.4,0-10.2-1.4-13.7-4c-3.6-2.7-5.5-6.5-5.5-11
			c-0.1-11.2,11.5-15.2,21.4-15.3c0.1,0,0.2,0,0.3,0c7.5,0,15.4,2.1,20.4,4.2L273.4,76.3z"/>
	</g>
	<g>
		<circle class="st0" cx="464.6" cy="61.8" r="12.1"/>
		<g>
			<path class="st0" d="M464.6,118.5c-11.2,0-19.9-24.9-19.9-56.7s8.7-56.7,19.9-56.7c11.2,0,19.9,24.9,19.9,56.7
				S475.8,118.5,464.6,118.5z M464.6,7.4c-9.6,0-17.7,24.9-17.7,54.4s8.1,54.4,17.7,54.4c9.6,0,17.7-24.9,17.7-54.4
				S474.2,7.4,464.6,7.4z"/>
		</g>
		<g>
			<path class="st0" d="M464.6,81.8c-31.8,0-56.7-8.7-56.7-19.9s24.9-19.9,56.7-19.9c31.8,0,56.7,8.8,56.7,19.9
				S496.4,81.8,464.6,81.8z M464.6,44.1c-29.5,0-54.4,8.1-54.4,17.7s24.9,17.7,54.4,17.7c29.5,0,54.4-8.1,54.4-17.7
				S494.1,44.1,464.6,44.1z"/>
		</g>
		<g>
			<path class="st0" d="M497.6,104.4c-10.9,0-29.4-10.8-47.1-28.5l0,0c-10.6-10.6-19.1-21.9-24.1-32c-5.1-10.4-5.8-18.3-1.9-22.2
				c3.9-3.9,11.8-3.2,22.2,1.9c10,5,21.4,13.5,32,24.1c22.5,22.5,33.9,46.3,26,54.2C503,103.6,500.6,104.4,497.6,104.4z M452.1,74.4
				c20.9,20.9,44.2,32.8,51,26c6.8-6.8-5.1-30.1-26-51c-10.4-10.4-21.6-18.8-31.4-23.7c-9.3-4.6-16.5-5.5-19.6-2.3
				c-3.1,3.1-2.3,10.3,2.3,19.6C433.3,52.8,441.7,64,452.1,74.4L452.1,74.4z"/>
		</g>
		<g>
			<path class="st0" d="M431.6,104.4c-3,0-5.4-0.8-7.1-2.5c-7.9-7.9,3.5-31.7,26-54.2l0,0l0,0c10.6-10.6,21.9-19.1,32-24.1
				c10.4-5.1,18.3-5.8,22.2-1.9c3.9,3.9,3.2,11.8-1.9,22.2c-5,10-13.5,21.4-24.1,32C461,93.6,442.6,104.4,431.6,104.4z M497.6,21.5
				c-3.6,0-8.5,1.4-14.1,4.2c-9.8,4.9-21,13.3-31.4,23.7l0,0c-20.9,20.9-32.8,44.2-26,51c6.8,6.8,30.1-5.1,51-26
				C487.5,64,495.9,52.8,500.8,43c4.6-9.3,5.5-16.5,2.3-19.6C501.9,22.1,500,21.5,497.6,21.5z"/>
		</g>
		<circle class="st0" cx="427" cy="21.6" r="6.1"/>
		<circle class="st0" cx="504.2" cy="37.4" r="6.1"/>
		<circle class="st0" cx="415.6" cy="70.8" r="6.1"/>
		<circle class="st0" cx="474.2" cy="109.7" r="6.1"/>
	</g>
	<g>
		<g>
			<path class="st0" d="M730.6,53.6c0-17.3-15-31.1-32.7-29.1c-13.7,1.5-24.7,12.8-25.9,26.6c-0.8,10.2,3.5,19.4,10.7,25.2
				c5.6,4.5,9,11.1,9,18.3v1.3h19v-1.3c0-7,3.3-13.7,8.8-18.1C726.3,71.1,730.6,62.8,730.6,53.6z"/>
			<rect x="689.1" y="99.5" class="st0" width="24.4" height="17"/>
		</g>
		<path class="st0" d="M702.9,17.9c-1,0-1.8-0.8-1.8-1.8V1.8c0-1,0.8-1.8,1.8-1.8s1.8,0.8,1.8,1.8v14.2
			C704.7,17.1,703.9,17.9,702.9,17.9z"/>
		<path class="st0" d="M721.7,22.4c-0.3,0-0.7-0.1-1-0.3c-0.9-0.5-1.1-1.7-0.6-2.5l7.7-12c0.5-0.9,1.7-1.1,2.5-0.6
			c0.9,0.5,1.1,1.7,0.6,2.5l-7.7,12C722.9,22.1,722.3,22.4,721.7,22.4z"/>
		<path class="st0" d="M734.4,36c-0.6,0-1.3-0.3-1.6-0.9c-0.5-0.9-0.2-2,0.7-2.5l12.4-7c0.9-0.5,2-0.2,2.5,0.7
			c0.5,0.9,0.2,2-0.7,2.5l-12.4,7C735,36,734.7,36,734.4,36z"/>
		<path class="st0" d="M682.8,22.4c-0.6,0-1.2-0.3-1.5-0.8l-7.7-12c-0.5-0.9-0.3-2,0.6-2.5c0.9-0.5,2-0.3,2.5,0.6l7.7,12
			c0.5,0.9,0.3,2-0.6,2.5C683.4,22.3,683.1,22.4,682.8,22.4z"/>
		<path class="st0" d="M670.1,36c-0.3,0-0.6-0.1-0.9-0.2l-12.4-7c-0.9-0.5-1.2-1.6-0.7-2.5c0.5-0.9,1.6-1.2,2.5-0.7l12.4,7
			c0.9,0.5,1.2,1.6,0.7,2.5C671.3,35.7,670.7,36,670.1,36z"/>
	</g>
	<g>
		<rect x="327.3" y="50.5" class="st0" width="34" height="9.2"/>
		<rect x="327.3" y="66.8" class="st0" width="34" height="9.2"/>
	</g>
	<g>
		<rect x="567.8" y="54.8" class="st0" width="34" height="9.2"/>
		
			<rect x="567.8" y="55.5" transform="matrix(-1.836970e-16 1 -1 -1.836970e-16 644.9081 -524.7208)" class="st0" width="34" height="9.2"/>
	</g>
</g>
</svg>
