<?xml version="1.0" encoding="utf-8"?>
<!-- Generator: Adobe Illustrator 21.0.1, SVG Export Plug-In . SVG Version: 6.00 Build 0)  -->
<svg version="1.1" id="Layer_1" xmlns="http://www.w3.org/2000/svg" xmlns:xlink="http://www.w3.org/1999/xlink" x="0px" y="0px"
	 viewBox="0 0 77.9 25.4" style="enable-background:new 0 0 77.9 25.4;" xml:space="preserve">
<style type="text/css">
	.st0{opacity:0.3;}
	.st1{fill:#FFFBE7;}
</style>
<g class="st0">
	<path class="st1" d="M16.4,6.7l-6.1,15L5,8.9C4.4,7.6,3.7,6.3,2,6.3c0,0,0,0,0,0c-0.7,0-1.2,0.2-1.7,0.6l0,0L0,7.3l0.5,1.2L1,8.7
		l0.1-0.1c0.2-0.2,0.5-0.2,0.7-0.2c0.5,0,0.8,0.4,1.4,1.8l6.4,15l1.4,0l7.3-17.8l0.1-0.2l-0.3-0.5L16.4,6.7z"/>
	<path class="st1" d="M34.5,8.9c-1.6-1.8-3.9-2.7-6.5-2.7c0,0-0.1,0-0.1,0h0c-5.4,0-9.2,4.1-9.2,9.7c0,2.8,1,5.2,2.9,7
		c1.7,1.6,4.1,2.6,6.7,2.6c0,0,0.1,0,0.1,0c3.3,0,6.4-1.5,8.1-3.9l0.1-0.1l0-0.4l-1.1-0.9l-0.4,0l-0.1,0.2c-1.3,1.9-3.9,3.1-6.5,3.2
		c0,0,0,0-0.1,0c-4,0-7-2.7-7.4-6.7l16-0.1l0.1-0.3c0-0.2,0-0.4,0-0.7C36.9,13,36,10.6,34.5,8.9z M28,8.2c3.8,0,6.4,2.5,6.8,6.5
		l-13.9,0.1C21.2,10.8,24,8.2,28,8.2C27.9,8.2,27.9,8.2,28,8.2z"/>
	<path class="st1" d="M58.4,22.9L58.2,23c-0.2,0.2-0.4,0.2-0.7,0.3c-0.2,0-0.7,0-0.7-1.2L56.7,0.2L56.3,0l-1.6,0.3l0.1,9.1
		C53,7.2,50.5,6,47.6,6c0,0,0,0-0.1,0c-2.6,0-4.9,1-6.6,2.8c-1.7,1.8-2.6,4.2-2.5,6.8c0,5.5,4,9.6,9.2,9.6c0,0,0,0,0.1,0
		c2.9,0,5.5-1.3,7.2-3.5l0,0.5c0,0.9,0.2,1.6,0.7,2.1c0.5,0.5,1.1,0.8,1.9,0.8c0.7,0,1.3-0.2,1.7-0.6l0,0l0.2-0.3L58.8,23L58.4,22.9
		z M47.7,8c2,0,3.8,0.7,5.1,2.1c1.4,1.4,2.1,3.3,2.1,5.5c0,4.4-3,7.6-7.1,7.7c-2,0-3.9-0.8-5.2-2.2c-1.3-1.4-2-3.3-2-5.4
		C40.4,11.3,43.5,8.1,47.7,8C47.6,8,47.7,8,47.7,8z"/>
	<path class="st1" d="M77.4,22.9l-0.5-0.1l-0.2,0.1c-0.2,0.2-0.4,0.2-0.7,0.3c-0.2,0-0.7,0-0.7-1.2l-0.1-9.2c0-2.2-0.9-4-2.5-5.2
		c-1.3-1-3.2-1.5-5.1-1.5c0,0,0,0-0.1,0c-2.8,0-5.4,1.2-7.2,3.3l-0.1,0.1l0,0.4l1.1,0.9l0.4,0l0.1-0.1c1.6-1.7,3.5-2.6,5.6-2.6
		c1.5,0,2.9,0.4,3.9,1.2c1.1,0.8,1.8,2,1.8,3.5l0,1.6c-1.7-0.7-3.7-1.1-5.6-1.1c-4.8,0-7.8,2.4-7.8,6.1c0,1.8,0.8,3.4,2.1,4.5
		c1.3,1,3,1.6,5,1.6c0,0,0,0,0.1,0c2.6,0,4.9-1,6.3-2.6c0.1,0.7,0.3,1.3,0.7,1.7c0.5,0.5,1.1,0.8,1.9,0.8c0,0,0,0,0,0
		c0.7,0,1.3-0.2,1.7-0.6l0,0l0.2-0.3L77.4,22.9z M73.3,18c0,1.9-1,3.1-1.9,3.8c-1.1,0.9-2.7,1.4-4.3,1.4h0c-1.4,0-2.7-0.4-3.7-1.1
		c-1-0.7-1.5-1.7-1.5-3c0-3,3.1-4.1,5.7-4.1c0,0,0,0,0.1,0c2,0,4.1,0.6,5.5,1.1L73.3,18z"/>
</g>
</svg>
