<?xml version="1.0" encoding="utf-8"?>
<!-- Generator: Adobe Illustrator 21.0.2, SVG Export Plug-In . SVG Version: 6.00 Build 0)  -->
<!DOCTYPE svg PUBLIC "-//W3C//DTD SVG 1.1//EN" "http://www.w3.org/Graphics/SVG/1.1/DTD/svg11.dtd">
<svg version="1.1" id="Layer_1" xmlns="http://www.w3.org/2000/svg" xmlns:xlink="http://www.w3.org/1999/xlink" x="0px" y="0px"
	 width="167px" height="165px" viewBox="0 0 167 165" style="enable-background:new 0 0 167 165;" xml:space="preserve">
<style type="text/css">
	.st0{opacity:0.25;}
	.st1{fill:#FFFBE7;}
</style>
<g>
	<circle class="st0" cx="84.3" cy="83.6" r="77.4"/>
	<g>
		<path class="st1" d="M84.3,21.2c-34.5,0-62.4,27.9-62.4,62.4S49.9,146,84.3,146s62.4-27.9,62.4-62.4S118.8,21.2,84.3,21.2z
			 M84.3,135.2c-28.5,0-51.6-23.1-51.6-51.6S55.8,32,84.3,32S136,55.1,136,83.6S112.8,135.2,84.3,135.2z"/>
	</g>
	<g>
		<polygon class="st1" points="113.3,79.9 88,79.9 88,54.6 80.7,54.6 80.7,79.9 55.3,79.9 55.3,87.2 80.7,87.2 80.7,112.6 88,112.6 
			88,87.2 113.3,87.2 		"/>
	</g>
</g>
</svg>
