<?xml version="1.0" standalone="no"?>
<!DOCTYPE svg PUBLIC "-//W3C//DTD SVG 20010904//EN"
 "http://www.w3.org/TR/2001/REC-SVG-20010904/DTD/svg10.dtd">
<svg version="1.0" xmlns="http://www.w3.org/2000/svg"
 width="700.000000pt" height="700.000000pt" viewBox="0 0 700.000000 700.000000"
 preserveAspectRatio="xMidYMid meet">
<metadata>
Created by potrace 1.11, written by Peter Selinger 2001-2013
</metadata>
<g transform="translate(0.000000,700.000000) scale(0.100000,-0.100000)"
fill="#000000" stroke="none">
<path d="M3279 6975 c-2 -1 -46 -6 -98 -10 -52 -3 -97 -8 -100 -9 -3 -2 -31
-7 -61 -10 -68 -8 -269 -44 -278 -50 -4 -2 -23 -7 -42 -10 -38 -6 -302 -81
-335 -95 -11 -5 -76 -30 -144 -56 -268 -103 -570 -272 -811 -453 -114 -86
-135 -104 -235 -192 -523 -467 -911 -1117 -1069 -1790 -23 -98 -29 -125 -42
-205 -3 -16 -7 -37 -9 -45 -2 -8 -7 -42 -11 -75 -3 -33 -8 -62 -9 -65 -2 -3
-7 -51 -12 -105 -15 -190 -8 -632 12 -734 2 -13 6 -42 9 -65 7 -58 35 -216 40
-224 2 -4 7 -24 10 -44 20 -125 115 -428 190 -603 42 -98 139 -292 193 -385
48 -81 176 -279 203 -314 5 -6 39 -49 76 -96 183 -232 348 -395 613 -610 237
-192 634 -409 951 -522 60 -21 236 -77 260 -83 8 -2 62 -15 120 -29 159 -38
225 -49 438 -75 62 -7 62 -7 62 18 4 213 -1 2037 -6 2066 -12 77 -35 109 -199
274 l-165 167 0 335 0 336 50 23 c230 108 280 434 93 612 -50 48 -102 76 -171
92 -201 46 -388 -60 -450 -254 -56 -174 28 -369 194 -451 l64 -32 0 -221 0
-221 -305 305 -304 304 23 41 c104 178 69 419 -83 571 -195 197 -496 198 -690
3 -111 -112 -165 -282 -136 -432 35 -182 180 -334 362 -382 107 -29 206 -18
340 36 l32 13 302 -302 301 -302 -218 0 -219 0 -18 44 c-134 325 -611 296
-710 -43 -63 -215 78 -438 302 -479 30 -6 66 -8 80 -6 14 2 42 7 61 10 96 15
215 109 259 203 l24 49 331 0 331 0 153 -154 c98 -100 152 -162 153 -177 4
-72 3 -1799 -1 -1802 -8 -4 -262 50 -366 79 -370 101 -769 300 -1084 540 -345
262 -620 568 -842 936 -113 186 -232 448 -303 665 -34 106 -88 313 -100 385
-3 19 -10 60 -15 90 -5 30 -12 74 -15 98 -3 23 -7 59 -10 80 -23 182 -23 514
0 712 12 96 27 205 30 210 2 3 6 26 10 50 8 53 41 196 59 260 8 25 19 65 27
90 7 25 33 99 57 165 184 498 483 939 882 1300 431 389 1006 676 1565 780 50
10 97 18 105 20 14 3 74 10 155 20 230 27 549 23 795 -11 145 -19 160 -22 282
-50 654 -149 1241 -491 1704 -995 33 -36 93 -109 197 -239 33 -41 132 -188
185 -277 307 -508 465 -1081 465 -1688 0 -98 -11 -306 -18 -345 -1 -8 -6 -42
-10 -75 -47 -412 -212 -879 -447 -1266 -62 -103 -237 -349 -273 -385 -6 -6
-31 -35 -56 -64 -105 -125 -300 -310 -456 -433 -190 -150 -476 -322 -683 -411
-36 -15 -78 -34 -95 -41 -148 -66 -519 -174 -659 -191 -23 -3 -47 -7 -53 -9
-18 -6 -19 1785 -2 1818 6 12 77 88 157 169 l145 146 333 1 332 0 6 -22 c10
-42 65 -116 115 -155 250 -198 615 -21 613 297 -2 339 -411 499 -655 256 -15
-15 -41 -57 -58 -91 l-32 -64 -216 0 -216 0 305 305 c168 168 310 303 315 301
121 -55 163 -66 253 -67 126 -1 260 58 349 155 53 57 113 162 113 197 0 9 3
19 7 23 4 3 8 14 10 24 5 21 4 151 0 172 -75 342 -438 508 -734 335 -55 -33
-135 -113 -168 -168 -86 -147 -91 -326 -13 -473 l22 -42 -306 -305 c-168 -169
-308 -301 -310 -294 -3 10 -2 402 1 430 1 4 6 7 13 7 28 0 103 46 148 91 70
70 106 151 109 250 5 154 -73 290 -202 352 -68 33 -86 38 -153 42 -107 6 -213
-35 -288 -111 -158 -160 -143 -423 33 -563 28 -22 67 -45 86 -52 l35 -13 0
-333 0 -333 -156 -158 c-174 -174 -199 -207 -211 -278 -13 -72 -10 -2099 2
-2097 6 1 37 4 71 7 225 20 566 98 789 179 414 150 808 380 1126 657 71 62
264 253 323 321 247 279 451 603 600 953 43 101 132 347 140 389 3 12 18 76
35 142 26 101 50 218 67 335 2 14 6 41 8 60 28 184 29 664 2 860 -12 87 -17
118 -21 145 -11 59 -27 150 -31 170 -24 130 -99 372 -169 550 -48 122 -182
398 -216 447 -11 14 -19 29 -19 32 0 19 -277 418 -310 446 -3 3 -30 34 -60 69
-54 64 -274 287 -321 326 -13 11 -49 41 -79 66 -423 354 -946 610 -1490 728
-141 31 -154 33 -285 50 -44 6 -100 13 -125 17 -48 6 -545 15 -551 9z m-1578
-3077 c53 -23 107 -75 137 -132 52 -100 30 -236 -53 -316 -48 -47 -135 -78
-203 -74 -232 14 -341 285 -183 456 76 82 199 109 302 66z m3843 -18 c88 -54
135 -140 131 -241 -6 -143 -114 -254 -256 -263 -195 -11 -338 185 -268 369 58
155 251 221 393 135z m-2736 -176 c87 -67 82 -201 -10 -261 -71 -47 -170 -30
-219 38 -28 40 -36 113 -16 160 15 37 66 83 102 92 40 11 108 -3 143 -29z
m1519 25 c121 -46 142 -213 35 -284 -47 -31 -83 -37 -133 -24 -41 10 -95 58
-109 95 -49 128 80 261 207 213z m-2597 -1074 c76 -39 105 -137 64 -216 -13
-25 -68 -78 -82 -80 -4 0 -25 -2 -47 -5 -84 -10 -174 70 -175 154 0 69 53 143
115 161 35 10 90 4 125 -14z m3657 16 c21 -2 74 -53 92 -90 43 -89 -17 -208
-114 -227 -73 -13 -151 30 -180 99 -27 66 -12 131 41 181 40 37 76 45 161 37z"/>
<path d="M3405 6099 c-134 -27 -275 -132 -336 -251 -100 -196 -65 -420 90
-574 49 -48 145 -106 213 -127 15 -5 16 -43 16 -437 0 -392 -1 -430 -16 -418
-8 7 -86 83 -173 169 l-156 156 18 40 c106 232 -66 513 -324 528 -179 10 -340
-102 -390 -272 -17 -55 -16 -165 1 -219 50 -157 198 -266 362 -265 65 0 151
19 162 35 4 7 109 -91 262 -244 l254 -255 0 -1965 c1 -1081 1 -1973 1 -1983 1
-16 11 -17 108 -15 l106 3 1 1977 1 1978 254 254 253 253 50 -19 c52 -19 158
-26 213 -12 87 21 193 100 238 177 154 263 -43 589 -346 572 -177 -10 -315
-131 -351 -308 -15 -72 -5 -164 24 -219 l19 -37 -162 -163 c-90 -90 -170 -169
-178 -175 -14 -12 -16 32 -15 423 l1 435 50 17 c190 65 321 237 330 437 8 149
-51 289 -165 393 -101 91 -277 139 -415 111z m192 -226 c131 -59 196 -182 168
-314 -27 -123 -138 -211 -266 -210 -183 1 -309 172 -259 353 12 42 62 111 101
140 64 48 186 63 256 31z m-789 -939 c122 -94 55 -287 -100 -286 -103 1 -178
104 -149 203 33 108 160 151 249 83z m1563 11 c35 -19 79 -92 79 -133 0 -119
-125 -199 -232 -148 -103 49 -118 200 -27 269 19 14 43 27 54 30 29 8 93 -1
126 -18z"/>
</g>
</svg>
